<svg width="12" height="11" viewBox="0 0 12 11" fill="none" xmlns="http://www.w3.org/2000/svg">
<path d="M5.99625 11C6.19137 11 6.37148 10.941 6.52908 10.8157C6.65666 10.7125 9.77111 8.34585 11.0169 6.42158C11.4296 5.78753 12 4.92493 12 3.70107C12 1.65885 10.4465 0 8.54784 0C7.57974 0 6.65666 0.434987 5.99625 1.19437C5.34334 0.427614 4.42777 0 3.45216 0C1.54597 0 -1.2791e-07 1.65885 -1.2791e-07 3.70107C-1.2791e-07 4.90282 0.532832 5.72855 0.968104 6.39946L0.983114 6.42158C2.22889 8.34585 5.34334 10.7198 5.47092 10.8157C5.62101 10.9336 5.80113 11 5.99625 11ZM8.54784 0.589812C10.1238 0.589812 11.3996 1.98324 11.3996 3.70107C11.3996 4.74799 10.9118 5.5 10.5141 6.10456C9.32083 7.94035 6.28893 10.2554 6.16135 10.3512C6.10882 10.3881 6.05629 10.4102 5.99625 10.4102C5.93621 10.4102 5.88368 10.3881 5.83114 10.3512C5.70356 10.2554 2.67167 7.94035 1.47842 6.10456L1.46341 6.08244C1.05816 5.44839 0.59287 4.73324 0.59287 3.70107C0.59287 1.99062 1.87617 0.589812 3.44465 0.589812C4.30769 0.589812 5.11069 1.00268 5.65103 1.73257L5.74109 1.85791C5.80113 1.93164 5.89118 1.97587 5.98124 1.97587C6.07129 1.97587 6.16886 1.93164 6.22139 1.85791L6.31144 1.73257C6.8818 1.01005 7.69231 0.589812 8.54784 0.589812Z" fill="black"/>
</svg>
