<svg width="17" height="12" viewBox="0 0 17 12" fill="none" xmlns="http://www.w3.org/2000/svg">
<mask id="path-1-inside-1_63_39" fill="white">
<path d="M16.6317 3.36827C15.5639 2.3004 14.2961 1.45331 12.9009 0.875385C11.5056 0.297456 10.0102 -3.42051e-07 8.5 0C6.9898 3.42051e-07 5.49438 0.297457 4.09914 0.875387C2.70389 1.45332 1.43614 2.3004 0.36827 3.36827L8.5 11.5L16.6317 3.36827Z"/>
</mask>
<path d="M16.6317 3.36827C15.5639 2.3004 14.2961 1.45331 12.9009 0.875385C11.5056 0.297456 10.0102 -3.42051e-07 8.5 0C6.9898 3.42051e-07 5.49438 0.297457 4.09914 0.875387C2.70389 1.45332 1.43614 2.3004 0.36827 3.36827L8.5 11.5L16.6317 3.36827Z" stroke="black" mask="url(#path-1-inside-1_63_39)"/>
</svg>
