<svg width="15" height="12" viewBox="0 0 15 12" fill="none" xmlns="http://www.w3.org/2000/svg">
    <path
        d="M9.375 0C12.48 0 15 2.0175 15 4.5C15 5.9175 14.19 7.17 12.915 7.995L13.5 9.75L11.625 8.625C10.9575 8.8575 10.2225 9 9.4425 9C9.64311 8.52523 9.74762 8.01541 9.75 7.5C9.75 5.0175 7.4025 3 4.5 3C4.3575 3 4.215 3 4.08 3.0225C4.845 1.2675 6.915 0 9.375 0ZM11.625 1.875C11.4261 1.875 11.2353 1.95402 11.0947 2.09467C10.954 2.23532 10.875 2.42609 10.875 2.625C10.875 2.82391 10.954 3.01468 11.0947 3.15533C11.2353 3.29598 11.4261 3.375 11.625 3.375C11.8239 3.375 12.0147 3.29598 12.1553 3.15533C12.296 3.01468 12.375 2.82391 12.375 2.625C12.375 2.42609 12.296 2.23532 12.1553 2.09467C12.0147 1.95402 11.8239 1.875 11.625 1.875ZM7.875 1.875C7.67609 1.875 7.48532 1.95402 7.34467 2.09467C7.20402 2.23532 7.125 2.42609 7.125 2.625C7.125 2.82391 7.20402 3.01468 7.34467 3.15533C7.48532 3.29598 7.67609 3.375 7.875 3.375C8.07391 3.375 8.26468 3.29598 8.40533 3.15533C8.54598 3.01468 8.625 2.82391 8.625 2.625C8.625 2.42609 8.54598 2.23532 8.40533 2.09467C8.26468 1.95402 8.07391 1.875 7.875 1.875ZM4.5 3.75C6.9825 3.75 9 5.43 9 7.5C9 9.57 6.9825 11.25 4.5 11.25C3.9975 11.25 3.5175 11.19 3.0675 11.0625L1.5 12L1.965 10.5975C0.787501 9.915 0 8.7825 0 7.5C0 5.43 2.0175 3.75 4.5 3.75ZM6 5.625C5.80109 5.625 5.61032 5.70402 5.46967 5.84467C5.32902 5.98532 5.25 6.17609 5.25 6.375C5.25 6.57391 5.32902 6.76468 5.46967 6.90533C5.61032 7.04598 5.80109 7.125 6 7.125C6.19891 7.125 6.38968 7.04598 6.53033 6.90533C6.67098 6.76468 6.75 6.57391 6.75 6.375C6.75 6.17609 6.67098 5.98532 6.53033 5.84467C6.38968 5.70402 6.19891 5.625 6 5.625ZM3 5.625C2.80109 5.625 2.61032 5.70402 2.46967 5.84467C2.32902 5.98532 2.25 6.17609 2.25 6.375C2.25 6.57391 2.32902 6.76468 2.46967 6.90533C2.61032 7.04598 2.80109 7.125 3 7.125C3.19891 7.125 3.38968 7.04598 3.53033 6.90533C3.67098 6.76468 3.75 6.57391 3.75 6.375C3.75 6.17609 3.67098 5.98532 3.53033 5.84467C3.38968 5.70402 3.19891 5.625 3 5.625Z"
        fill="black" />
</svg>
