<svg width="12" height="12" viewBox="0 0 12 12" fill="none" xmlns="http://www.w3.org/2000/svg">
    <path
        d="M1.90101 0H10.0997C10.3504 0.000979939 10.5985 0.0513703 10.8297 0.14829C11.061 0.245209 11.2708 0.386757 11.4473 0.564838C11.6238 0.74292 11.7634 0.954042 11.8583 1.18613C11.9531 1.41823 12.0013 1.66673 12 1.91745V8.12465C11.9955 8.12465 11.6027 8.09024 9.77205 7.51643C9.46383 7.41169 9.08677 7.27179 8.66557 7.11543C8.43814 7.03064 8.19949 6.94261 7.94962 6.85134C8.39623 6.0606 8.7299 5.21121 8.94089 4.32791H6.6V3.47804H9.46607V3.00373H6.60075V1.58678H5.43142C5.22644 1.58678 5.22644 1.79101 5.22644 1.79101V3.00373H2.3267V3.47804H5.22569V4.32791H2.83168V4.80222H7.47381C7.30398 5.3925 7.07581 5.94686 6.80498 6.4496C5.299 5.94835 3.69203 5.54287 2.68281 5.79274C2.03643 5.95284 1.62047 6.23938 1.37658 6.53937C0.255136 7.91593 1.05937 10.0054 3.42719 10.0054C4.82769 10.0054 6.17656 9.21767 7.22169 7.92042C8.77779 8.67453 11.9873 9.96879 12 9.97402V10.0526C12.0013 10.3033 11.9531 10.5518 11.8583 10.7839C11.7634 11.016 11.6238 11.2271 11.4473 11.4052C11.2708 11.5833 11.061 11.7248 10.8297 11.8217C10.5985 11.9187 10.3504 11.969 10.0997 11.97H1.90101C1.65024 11.9691 1.40209 11.9188 1.17078 11.8219C0.939463 11.7251 0.72952 11.5835 0.552957 11.4054C0.376394 11.2274 0.236678 11.0162 0.1418 10.7841C0.0469218 10.5519 -0.00125519 10.3034 2.48533e-05 10.0526V1.91745C-0.00125519 1.66667 0.0469218 1.4181 0.1418 1.18596C0.236678 0.953821 0.376394 0.742666 0.552957 0.564574C0.72952 0.386483 0.939463 0.244951 1.17078 0.148075C1.40209 0.0511999 1.65024 0.000881841 1.90101 0Z"
        fill="black" />
    <path
        d="M1.72739 6.93514C0.814671 7.73788 1.3608 9.20495 3.20718 9.20495C4.27999 9.20495 5.35281 8.51294 6.1952 7.40496C4.9967 6.81469 3.98149 6.39275 2.88474 6.50197C2.58773 6.5319 2.03187 6.66357 1.72739 6.93514Z"
        fill="black" />
</svg>
