<svg width="12" height="10" viewBox="0 0 12 10" fill="none" xmlns="http://www.w3.org/2000/svg">
    <path
        d="M12 0.00548493C11.4777 0.373927 10.8993 0.655726 10.2873 0.840031C9.95877 0.462309 9.52218 0.19459 9.03656 0.073081C8.55095 -0.0484276 8.03973 -0.0178629 7.57204 0.160641C7.10436 0.339146 6.70279 0.656977 6.42163 1.07115C6.14047 1.48532 5.99329 1.97585 6 2.47639V3.02185C5.04144 3.0467 4.0916 2.83411 3.2351 2.403C2.37859 1.97189 1.64199 1.33565 1.09091 0.550939C1.09091 0.550939 -1.09091 5.46003 3.81818 7.64185C2.69483 8.40438 1.35663 8.78672 0 8.73276C4.90909 11.46 10.9091 8.73276 10.9091 2.46003C10.9086 2.3081 10.894 2.15654 10.8655 2.0073C11.4221 1.4583 11.815 0.765146 12 0.00548493Z"
        fill="black" />
</svg>
