<svg width="12" height="12" viewBox="0 0 12 12" fill="none" xmlns="http://www.w3.org/2000/svg">
    <path
        d="M3.175 7.675L2.125 6.6C2.64167 6.08333 3.23333 5.6875 3.9 5.4125C4.56667 5.1375 5.26667 5 6 5C6.73333 5 7.4355 5.13967 8.1065 5.419C8.7775 5.69833 9.367 6.10033 9.875 6.625L8.825 7.675C8.45 7.3 8.01867 7.0105 7.531 6.8065C7.04333 6.6025 6.533 6.50033 6 6.5C5.467 6.49967 4.95667 6.60183 4.469 6.8065C3.98133 7.01117 3.55 7.30067 3.175 7.675ZM1.05 5.55L0 4.5C0.791667 3.69167 1.70633 3.07283 2.744 2.6435C3.78167 2.21417 4.867 1.99967 6 2C7.133 2.00033 8.2185 2.215 9.2565 2.644C10.2945 3.073 11.209 3.69167 12 4.5L10.95 5.55C10.2917 4.89167 9.53533 4.3855 8.681 4.0315C7.82667 3.6775 6.933 3.50033 6 3.5C5.067 3.49967 4.17317 3.67683 3.3185 4.0315C2.46383 4.38617 1.70767 4.89233 1.05 5.55ZM6 10.5L4.2375 8.725C4.47083 8.49167 4.73967 8.3125 5.044 8.1875C5.34833 8.0625 5.667 8 6 8C6.333 8 6.65183 8.0625 6.9565 8.1875C7.26117 8.3125 7.52983 8.49167 7.7625 8.725L6 10.5Z"
        fill="black" />
</svg>
