<svg width="12" height="12" viewBox="0 0 12 12" fill="none" xmlns="http://www.w3.org/2000/svg">
    <g clip-path="url(#clip0_64_10279)">
        <path
            d="M5.35078 10.9945L1.11562 7.04063C1.01719 6.94922 0.923438 6.85079 0.836719 6.75H2.87578C3.40547 6.75 3.88359 6.43125 4.0875 5.94141L4.33359 5.35079L5.48906 7.91719C5.57812 8.11641 5.77266 8.24532 5.99063 8.24766C6.20859 8.25 6.40781 8.13047 6.50625 7.93594L7.5 5.9461L7.53984 6.02579C7.7625 6.4711 8.21719 6.75235 8.71406 6.75235H11.1633C11.0766 6.85313 10.9828 6.95157 10.8844 7.04297L6.64922 10.9945C6.47344 11.1586 6.24141 11.25 6 11.25C5.75859 11.25 5.52656 11.1586 5.35078 10.9945ZM11.8055 5.625H8.71172C8.64141 5.625 8.57578 5.58516 8.54297 5.52188L7.99922 4.43672C7.90312 4.24688 7.70859 4.125 7.49531 4.125C7.28203 4.125 7.0875 4.24454 6.99141 4.43672L6.02109 6.37735L4.82578 3.70782C4.73437 3.50391 4.52812 3.37266 4.30547 3.37735C4.08281 3.38204 3.88125 3.51563 3.79453 3.72422L3.04922 5.5125C3.02109 5.58282 2.95078 5.62735 2.87578 5.62735H0.375C0.314063 5.62735 0.257812 5.63672 0.203906 5.65313C0.0703125 5.27813 0 4.87969 0 4.47422V4.33829C0 2.7 1.18359 1.30313 2.79844 1.0336C3.86719 0.855472 4.95469 1.20469 5.71875 1.96875L6 2.25L6.28125 1.96875C7.04531 1.20469 8.13281 0.855472 9.20156 1.0336C10.8164 1.30313 12 2.7 12 4.33829V4.47422C12 4.87032 11.9344 5.25938 11.8055 5.625Z"
            fill="black" />
    </g>
    <defs>
        <clipPath id="clip0_64_10279">
            <rect width="12" height="12" fill="white" />
        </clipPath>
    </defs>
</svg>
