<svg width="12" height="12" viewBox="0 0 12 12" fill="none" xmlns="http://www.w3.org/2000/svg">
<g clip-path="url(#clip0_64_96)">
<path d="M10.11 5.96939C9.31587 5.71225 8.49053 5.5641 7.65657 5.52899C8.64781 5.50396 9.63296 5.36607 10.593 5.11799C10.9591 4.95458 11.2495 4.65823 11.4054 4.28888C11.5614 3.91952 11.5712 3.50473 11.433 3.12839C11.433 3.12839 11.1786 2.34839 9.81297 2.20439C9.8339 1.88107 9.76445 1.5583 9.61239 1.27219C9.46033 0.98609 9.23166 0.74794 8.95197 0.58439C8.67256 0.461044 8.36482 0.4162 8.06183 0.454682C7.75884 0.493163 7.47208 0.613514 7.23237 0.80279C6.35517 1.44659 6.25017 3.68279 6.24297 3.82559C6.24897 3.69119 6.31797 1.64699 5.83077 0.77039C5.83077 0.77039 5.30937 -0.44461 3.83037 0.18119C3.83037 0.18119 2.57577 0.584989 2.83497 1.74899C2.83497 1.74899 1.00317 1.35959 0.749972 3.11279C0.722355 3.31493 0.735096 3.52055 0.787457 3.71774C0.839818 3.91492 0.93076 4.09977 1.05502 4.26159C1.17928 4.4234 1.3344 4.55897 1.51139 4.66045C1.68839 4.76193 1.88375 4.8273 2.08617 4.85279C2.59197 4.97639 4.30617 5.25299 4.30617 5.25299C4.30617 5.25299 0.791972 4.92899 0.620372 6.64619C0.620372 6.64619 0.323972 8.26139 2.14797 8.22119C2.09545 8.56051 2.16352 8.9075 2.34034 9.20183C2.51716 9.49616 2.79154 9.7192 3.11577 9.83219C3.11577 9.82859 4.66677 10.2798 5.40357 8.29739C5.60761 7.79553 5.73484 7.26578 5.78097 6.72599C5.78097 6.72599 5.80917 9.87239 3.16857 11.4762L4.04877 12.0036C5.29051 10.6221 5.98427 8.83426 5.99937 6.97679C6.01197 7.59119 6.10557 9.10079 6.64557 9.66839C6.88719 9.9783 7.22614 10.1978 7.60778 10.2915C7.98941 10.3853 8.39148 10.3477 8.74917 10.185C9.00322 10.067 9.21572 9.87506 9.35886 9.63429C9.50199 9.39352 9.56909 9.11513 9.55137 8.83559C9.89455 8.88656 10.244 8.80075 10.5246 8.59663C10.8051 8.39251 10.9943 8.0864 11.0514 7.74419C11.1375 7.38562 11.09 7.00794 10.9177 6.6819C10.7454 6.35585 10.4602 6.10381 10.1154 5.97299L10.11 5.96939Z" fill="black"/>
</g>
<defs>
<clipPath id="clip0_64_96">
<rect width="12" height="12" fill="white"/>
</clipPath>
</defs>
</svg>
