<svg width="14" height="14" viewBox="0 0 14 14" fill="none" xmlns="http://www.w3.org/2000/svg">
<path d="M13.5101 14H0.412528C0.180482 14 0 13.8144 0 13.5758C0 13.3371 0.180482 13.1515 0.412528 13.1515H4.51195L4.69243 11.7197H2.26888C2.19153 11.7197 2.11417 11.6667 2.0884 11.6136C2.06262 11.5341 2.06262 11.4545 2.0884 11.4015L2.47514 10.7651L2.29465 10.7917H2.26888C2.19153 10.7917 2.13996 10.7652 2.0884 10.6856C2.03683 10.6061 2.03683 10.5265 2.0884 10.447L3.37753 8.27273L2.78452 8.35227H2.75875C2.68139 8.35227 2.62983 8.32576 2.57826 8.24621C2.5267 8.16667 2.5267 8.08712 2.57826 8.03409L2.93923 7.39773L2.81031 7.42423C2.73295 7.45076 2.65562 7.39773 2.60405 7.3447C2.55247 7.26515 2.55247 7.18561 2.60405 7.10606L3.58378 5.4356H3.17126C3.09392 5.4356 3.01656 5.38259 2.99079 5.32954C2.96502 5.24999 2.96502 5.17046 3.01657 5.11743L3.81583 4.05681H3.60958C3.53222 4.05681 3.48066 4.03031 3.42909 3.95076C3.40332 3.89773 3.37753 3.81817 3.42909 3.73864L5.28545 0.106058C5.31122 0.0265057 5.38857 0 5.46591 0C5.54326 0 5.62062 0.0530113 5.64639 0.106058L7.50276 3.7121C7.52853 3.7386 7.52853 3.79165 7.52853 3.81816C7.52853 3.92421 7.42541 4.03029 7.32228 4.03029H7.11602L7.8895 5.09089C7.91527 5.11739 7.94106 5.17044 7.94106 5.22347C7.94106 5.32953 7.83793 5.43558 7.73481 5.43558H7.32228L8.30201 7.07953C8.3278 7.10604 8.35359 7.15907 8.35359 7.2121C8.35359 7.31816 8.25046 7.42423 8.14732 7.42423H8.09577L7.96685 7.39771L8.30203 8.00755C8.3278 8.03407 8.3278 8.0871 8.3278 8.14013C8.3278 8.24619 8.25046 8.35225 8.12155 8.35225H8.06998L7.47697 8.29924L8.7661 10.4735C8.81767 10.553 8.81767 10.6326 8.7661 10.7121C8.71456 10.7917 8.6372 10.8182 8.55985 10.7917L8.37936 10.7651L8.7661 11.375C8.79188 11.4015 8.81767 11.4545 8.81767 11.5076C8.81767 11.6136 8.74033 11.7197 8.61141 11.7197H6.16207L6.36832 13.1515H9.53958L9.64272 12.3295H7.99263C7.94106 12.3295 7.8895 12.303 7.86371 12.25C7.83793 12.197 7.83793 12.1439 7.86371 12.1174L7.96685 11.9583H8.55985C8.79189 11.9583 8.94658 11.7727 8.94658 11.5341C8.94658 11.4545 8.92081 11.3485 8.86923 11.2954L8.68878 11.0303C8.76612 11.0038 8.81768 10.9508 8.86925 10.8712C8.9466 10.7386 8.97239 10.553 8.86925 10.4204L8.79191 10.0227L8.45674 9.46591L8.43096 9.41288L8.27625 9.14774L7.91531 8.53788L8.12156 8.56438H8.1989C8.43095 8.56438 8.58565 8.37879 8.58565 8.14015V8.06062C8.58565 8.00757 8.55986 7.98106 8.53407 7.92803C8.53407 7.90153 8.53407 7.87501 8.55986 7.84848L9.10129 7.13258H8.97239C8.92083 7.13258 8.86925 7.10608 8.84347 7.05303C8.8177 7 8.8177 6.94697 8.84347 6.92045L10.1068 4.48104C10.1326 4.42803 10.1842 4.40153 10.2357 4.40153C10.2873 4.40153 10.3389 4.42803 10.3647 4.48104L11.628 6.92045C11.6538 6.94695 11.6538 6.97348 11.6538 7C11.6538 7.07955 11.6022 7.13258 11.5249 7.13258H11.3959L11.9116 7.84848C11.9374 7.87499 11.9374 7.90151 11.9374 7.95454C11.9374 8.03409 11.8858 8.08712 11.8085 8.08712H11.5249L12.1952 9.20076C12.221 9.22727 12.221 9.25377 12.221 9.2803C12.221 9.35985 12.1694 9.41288 12.0921 9.41288H11.9116L12.1436 9.83713C12.1694 9.86363 12.1694 9.89014 12.1694 9.91666C12.1694 9.99622 12.1179 10.0492 12.0405 10.0492L11.628 9.99622L12.5046 11.4546C12.5304 11.5076 12.5304 11.5606 12.5046 11.6136C12.4788 11.6667 12.4273 11.6932 12.3757 11.6667L12.2468 11.6401L12.5046 12.0644C12.5304 12.0909 12.5304 12.1174 12.5304 12.1439C12.5304 12.2235 12.4788 12.2765 12.4015 12.2765H10.7514L10.8803 13.0985H13.5875C13.8195 13.0985 14 13.2841 14 13.5227C14 13.7613 13.7421 14 13.5101 14ZM2.75875 7.45076C2.78452 7.45076 2.78452 7.45076 2.75875 7.45076Z" fill="black"/>
</svg>
