<svg width="13" height="13" viewBox="0 0 13 13" fill="none" xmlns="http://www.w3.org/2000/svg">
<path d="M6.83613 5.2C7.07944 4.95625 7.40386 5.11875 8.13379 4.79375C8.86372 4.55 10.8102 3.33125 11.3779 2.84375C11.9457 2.35625 11.9457 1.95 12.4323 1.70625C12.9189 1.38125 13 1.21875 13 1.1375C12.9189 0.89375 11.5401 1.05625 10.8102 1.3C10.1614 1.4625 7.80938 2.925 7.32276 3.7375C6.83613 4.55 6.99834 4.63125 6.75503 4.95625C6.51172 5.28125 6.43062 5.44375 6.34951 5.3625C6.26841 5.28125 6.26841 5.11875 6.51172 4.79375C6.67393 4.46875 6.99834 3.98125 7.07944 3.65625C7.16055 3.33125 6.91724 2.03125 6.83613 1.54375C6.83613 1.05625 6.59282 0 6.26841 0C5.944 0 4.97075 0.975 4.80855 1.7875C4.72744 2.51875 4.48413 3.81875 4.88965 4.63125C5.29517 5.44375 5.53848 5.28125 5.61958 5.60625C5.78179 5.93125 5.45737 6.825 4.88965 7.3125C4.40303 7.8 4.24082 7.9625 3.99751 7.88125C3.8353 7.88125 3.6731 7.475 3.8353 7.23125C3.99751 6.9875 4.32193 6.6625 4.32193 6.3375C4.32193 6.0125 4.15972 4.7125 4.07861 4.3875C3.91641 4.0625 3.6731 3.33125 3.6731 3.00625C3.6731 2.7625 3.7542 2.03125 3.51089 1.95C3.02427 1.86875 2.37544 2.68125 2.05103 3.9C1.64551 5.0375 2.13213 6.0125 2.29434 6.25625C2.45654 6.41875 2.78096 6.90625 3.10537 7.15C3.34868 7.3125 3.59199 7.39375 3.59199 7.8C3.6731 8.20625 3.6731 8.36875 3.42979 8.85625C3.18648 9.34375 2.21323 11.05 1.88882 11.2937C1.80772 10.6437 1.96992 10.8875 2.05103 10.4C2.05103 9.9125 1.96992 9.75 2.13213 9.34375C2.21323 8.9375 1.72661 7.3125 1.23999 6.90625C0.996682 6.6625 1.07779 6.09375 0.915578 6.09375C0.753371 6.09375 0.753371 6.09375 0.672268 6.41875C0.591164 6.74375 -0.138767 7.88125 0.0234396 8.85625C0.185647 9.83125 0.26675 9.9125 0.428957 10.1562C0.591164 10.4 0.834475 10.4812 0.996682 10.8875C1.15889 11.2937 1.15889 11.4563 1.4022 11.6188C1.56441 11.7 1.07779 13 1.07779 13H1.64551C1.64551 13 2.13213 11.2125 2.61875 10.9688C3.10537 10.8062 3.34868 11.2125 4.15972 11.2125C5.05186 11.2125 6.1062 10.9688 6.59282 10.8063C7.07944 10.6438 7.32275 10.5625 7.80938 10.2375C8.296 9.9125 8.86372 9.2625 9.18814 8.9375C9.51255 8.6125 9.75586 8.53125 9.67476 8.45C9.59365 8.36875 9.02593 8.36875 8.53931 8.45C8.05269 8.45 6.43062 8.53125 5.21406 8.85625C3.99751 9.18125 3.59199 9.9125 3.42979 10.075C3.18648 10.2375 3.18648 10.4813 2.94317 10.4C2.78096 10.3188 2.86206 10.1562 2.94317 10.075C3.02427 9.9125 4.40303 7.475 5.944 7.3125C6.75503 7.3125 6.67393 7.71875 7.72827 7.71875C8.78262 7.71875 10.3236 7.475 11.5401 6.25625C12.4323 5.3625 12.6756 4.63125 12.7567 4.46875C12.8378 4.3875 12.189 4.30625 11.7834 4.3875C11.2968 4.46875 11.1346 4.63125 10.648 4.63125C10.2425 4.79375 8.296 4.875 7.48496 5.525C6.67393 6.09375 6.59282 6.825 6.26841 6.9875C5.944 7.15 5.45737 7.3125 5.45737 7.23125C5.37627 7.15 6.18731 5.76875 6.83613 5.2Z" fill="black"/>
</svg>
