<svg width="12" height="13" viewBox="0 0 12 13" fill="none" xmlns="http://www.w3.org/2000/svg">
<path d="M12 0.632434V1.8973C12 3.07142 11.5342 4.19745 10.7051 5.02768C9.876 5.85791 8.75148 6.32433 7.57895 6.32433H6.94737V6.95676H10.1053V11.3838C10.1053 11.5499 10.0726 11.7144 10.0091 11.8678C9.94563 12.0213 9.85259 12.1607 9.73529 12.2782C9.618 12.3956 9.47875 12.4888 9.3255 12.5524C9.17224 12.6159 9.00799 12.6486 8.84211 12.6486H3.78947C3.62359 12.6486 3.45934 12.6159 3.30608 12.5524C3.15283 12.4888 3.01358 12.3956 2.89629 12.2782C2.77899 12.1607 2.68595 12.0213 2.62247 11.8678C2.55899 11.7144 2.52632 11.5499 2.52632 11.3838V6.95676H5.68421V5.05946C5.68421 3.88534 6.15 2.75931 6.97911 1.92908C7.80822 1.09885 8.93273 0.632434 10.1053 0.632434H12ZM2.21053 1.5553e-06C2.96841 -0.000613363 3.71534 0.18112 4.38844 0.5299C5.06153 0.878681 5.64109 1.3843 6.07832 2.00418C5.41097 2.88236 5.05056 3.95594 5.05263 5.05946V5.69189H4.73684C4.11479 5.69189 3.49883 5.56921 2.92413 5.33083C2.34943 5.09246 1.82725 4.74308 1.38739 4.30263C0.499059 3.4131 0 2.20664 0 0.94865V1.5553e-06H2.21053Z" fill="black"/>
</svg>
