<svg width="12" height="12" viewBox="0 0 12 12" fill="none" xmlns="http://www.w3.org/2000/svg">
<path d="M9.52749 11.01C9.27749 10.9915 9.01149 10.963 8.73649 10.92C8.50999 10.885 8.27849 10.84 8.04549 10.7865C7.81599 10.7325 7.56849 10.6685 7.34699 10.5965C6.23076 10.2497 5.18706 9.70242 4.26699 8.9815L4.01449 8.7765L4.28949 8.9475C4.46599 9.0535 4.72199 9.198 5.03899 9.3505C5.89729 9.76481 6.81416 10.0447 7.75749 10.1805C7.61349 10.0415 7.48399 9.888 7.37149 9.7225C7.13049 9.3775 6.97449 8.981 6.91549 8.5645C6.90449 8.488 6.89849 8.411 6.89849 8.3345C6.89429 8.27585 6.89546 8.21694 6.90199 8.1585L6.91349 8.0065L6.92199 8.1585C6.92328 8.21666 6.92997 8.27458 6.94199 8.3315C6.95199 8.4055 6.96799 8.478 6.98899 8.5495C7.09566 8.93182 7.29114 9.28354 7.55949 9.576C7.81403 9.86412 8.12926 10.0923 8.48249 10.244L8.50249 10.2515C8.59999 10.2575 8.70149 10.2675 8.79699 10.2705C9.24353 10.2819 9.69031 10.2617 10.134 10.21C9.62999 9.226 8.38349 7.195 6.42949 6.605C4.18699 5.928 1.65899 7.3545 0.999994 7.7635C1.32099 8.47 2.63499 11.055 4.88149 11.7335C5.29486 11.8557 5.72396 11.9163 6.15499 11.9135C7.44999 11.9135 8.70649 11.42 9.52749 11.01ZM9.78499 3.1725C7.66699 0.2275 2.94499 0 2.94499 0C2.94499 0 1.96999 3.4395 3.10849 6.273C4.14549 5.955 5.37849 5.789 6.56799 6.148C8.00299 6.581 9.06449 7.683 9.76999 8.6795C9.65023 8.25133 9.50531 7.8306 9.33599 7.4195C9.20999 7.127 9.07649 6.8255 8.91599 6.531C8.84249 6.3795 8.75799 6.2325 8.66899 6.0875C8.58049 5.9425 8.50099 5.79 8.40199 5.6505L8.11399 5.225L7.80549 4.8175C7.60049 4.5475 7.37749 4.299 7.16149 4.0575C6.75923 3.62255 6.32898 3.21434 5.87349 2.8355C5.67799 2.662 5.48349 2.523 5.31649 2.3915C5.14949 2.2595 4.99849 2.1515 4.87199 2.0655L4.47749 1.791L4.89449 2.031C5.02749 2.106 5.18749 2.2005 5.36599 2.3175C5.54399 2.435 5.75299 2.559 5.96449 2.716C6.45852 3.06076 6.92952 3.43739 7.37449 3.8435C7.61599 4.0705 7.86649 4.307 8.10099 4.566L8.45499 4.9585L8.79099 5.3735C8.90649 5.51 9.00199 5.661 9.10799 5.804C9.21449 5.9475 9.31449 6.094 9.40549 6.245C9.60049 6.54 9.76849 6.845 9.92749 7.1425C10.079 7.443 10.2235 7.7375 10.3385 8.0255C10.454 8.313 10.564 8.5865 10.643 8.8465C10.728 9.0905 10.792 9.3165 10.844 9.5235C11.084 7.984 11.242 5.201 9.78399 3.1725H9.78499Z" fill="black"/>
</svg>
