<svg width="12" height="12" viewBox="0 0 12 12" fill="none" xmlns="http://www.w3.org/2000/svg">
<g clip-path="url(#clip0_64_87)">
<path d="M4.66718 11.6813C4.66718 11.6813 4.2067 10.4031 3.24497 9.88076C2.28316 9.3585 1.70611 8.75367 1.76105 7.72281C1.76105 7.72281 2.28316 9.64717 4.27538 9.44091C4.27538 9.44091 5.91031 6.46174 5.96533 5.75214C6.02027 5.04253 6.17137 4.67129 5.60805 3.33816C5.60805 3.33816 6.59733 4.06459 6.66601 5.72879C6.66601 5.72879 9.52373 5.15249 10.252 3.18692C10.252 3.18692 10.1557 4.78478 8.0949 5.75214C6.03401 6.71942 5.73175 9.67465 5.8691 10.3756C6.00646 11.0766 6.11642 11.5989 6.83091 11.6813H4.66703H4.66718Z" fill="black"/>
<path d="M3.61917 7.89071C3.61917 7.89071 4.01803 7.79411 4.24216 8.06619C4.31684 8.15687 4.37201 8.28852 4.38664 8.47842C4.44504 9.23787 4.08964 9.33859 4.08964 9.33859C4.08964 9.33859 3.2531 9.26999 3.223 8.50709C3.19298 7.74419 3.61917 7.89071 3.61917 7.89071ZM4.79511 3.87467C4.92827 3.94095 5.27189 3.47086 5.27189 3.47086C5.27189 3.47086 4.18413 2.6389 3.2215 3.82296C3.2215 3.82296 3.54658 4.07898 3.72162 4.23901C3.89658 4.39889 4.8343 5.15098 5.27189 4.11096C5.27189 4.11096 4.71142 3.83309 4.79511 3.87475V3.87467ZM5.51208 2.76275C5.51208 2.76275 4.33072 3.30167 3.98733 2.19756C3.64393 1.09344 3.19065 0.501822 2.92952 0.396589C2.92952 0.396589 4.12461 -0.0765825 5.38838 0.725273C6.65207 1.52713 5.96528 2.60498 5.96528 2.60498C5.96528 2.60498 5.60815 1.97403 5.1548 1.77685C5.1548 1.77685 5.64936 2.42101 5.512 2.76267L5.51208 2.76275ZM6.15113 3.21123C6.15113 3.21123 6.37458 2.26398 6.95644 2.30977C7.5383 2.35548 7.8028 2.38498 7.90864 2.30819C7.90864 2.30819 7.82637 4.40009 6.30988 3.5836C6.30988 3.5836 6.83297 3.19817 6.89759 2.97607C6.89759 2.97607 6.35687 3.33538 6.15113 3.21123ZM7.11444 5.5301C7.11444 5.5301 8.1212 5.54999 8.19521 4.8346C8.26922 4.11922 7.61035 3.96692 7.25502 4.11922C6.89969 4.27159 6.38329 4.90268 7.08486 5.53018M8.78728 2.60167C8.78728 2.60167 9.37064 3.79901 9.60174 3.77289C9.8327 3.7467 10.0349 3.38679 9.93095 3.14473C9.82692 2.90266 9.1396 2.6082 8.78728 2.60167ZM10.0905 0.550611C10.0905 0.550611 11.3815 1.24888 11.4215 2.00383C11.4615 2.75885 10.936 3.13234 10.6502 3.18683C10.6502 3.18683 10.6388 2.36148 10.4332 2.07769C10.4332 2.07769 10.5418 2.79855 10.2104 3.02568C10.2104 3.02568 9.5477 2.86108 9.68483 2.24792C9.82189 1.63484 10.1705 1.50446 10.0905 0.550611ZM10.5449 3.56431C10.5449 3.56431 10.7342 4.29133 11.5146 3.99439C12.2949 3.69738 11.9189 3.815 11.9189 3.815C11.9189 3.815 11.4958 2.89733 10.6213 3.28036C10.6213 3.28036 10.894 3.48527 11.0069 3.51919C11.0069 3.51919 10.6376 3.60942 10.5449 3.56431ZM1.79891 4.94434C1.79891 4.94434 0.644427 5.72946 0.588133 6.78644C0.531838 7.84327 1.30607 7.85843 1.30607 7.85843C1.30607 7.85843 1.35696 7.86901 1.43562 7.87352C1.42129 7.83306 1.33685 7.55707 1.46392 6.95082C1.46392 6.95082 1.55031 7.54071 1.79058 7.83726C2.03302 7.76761 2.28522 7.58184 2.33401 7.11857C2.43248 6.18244 1.6581 5.80504 1.79891 4.94434Z" fill="black"/>
<path d="M1.08423 8.14402C1.08423 8.14402 1.46598 8.11947 1.67359 8.01184C1.55545 7.9647 0.46484 7.55848 0 8.41078C0 8.41078 0.449754 8.92471 1.2372 8.69255C1.72155 8.54964 1.7792 8.32679 1.75188 8.17637C1.71457 8.18387 1.47491 8.22568 1.08423 8.14402ZM2.05091 8.06641C2.14489 7.97063 2.37337 7.75506 2.59794 7.67753C2.59794 7.67753 2.22422 7.94323 2.09355 8.09598C2.23766 8.14064 2.71128 8.26051 3.05137 8.0288C3.47793 7.7381 3.45444 7.33233 3.51546 6.99524C3.51546 6.99524 2.15029 6.99562 2.05091 8.06641Z" fill="black"/>
</g>
<defs>
<clipPath id="clip0_64_87">
<rect width="12" height="12" fill="white"/>
</clipPath>
</defs>
</svg>
