<svg width="12" height="12" viewBox="0 0 12 12" fill="none" xmlns="http://www.w3.org/2000/svg">
<path d="M6.65741 1.51609C6.69497 1.08478 6.8875 0.68168 7.19936 0.381381C7.29727 0.293415 7.4207 0.238998 7.55169 0.226052C7.68267 0.213106 7.81437 0.242307 7.9276 0.309403C8.41866 0.532855 8.87957 0.817367 9.29941 1.1562C9.68137 1.36013 10.0298 1.62144 10.3325 1.93102C10.5569 2.20199 10.7559 2.38405 10.6204 2.77781C10.5484 2.95987 10.6543 3.06572 10.866 3.03609C11.2894 2.97258 11.2259 3.00221 11.3529 3.40868C11.5138 3.92946 11.3952 4.53915 11.861 4.97525C11.9452 5.05625 11.9949 5.16668 11.9996 5.28346C12.0044 5.40023 11.9638 5.51432 11.8864 5.60188C11.8431 5.65758 11.8196 5.72611 11.8196 5.79664C11.8196 5.86717 11.8431 5.9357 11.8864 5.9914C11.9376 6.12498 11.9578 6.2685 11.9452 6.41102C11.9326 6.55354 11.8876 6.69131 11.8137 6.81382C11.7398 6.93633 11.6389 7.04035 11.5186 7.11794C11.3984 7.19554 11.2621 7.24468 11.12 7.2616C10.4612 7.25462 9.80677 7.15338 9.17663 6.96098C8.36748 6.68108 7.48142 6.72508 6.70398 7.08377C6.53345 7.1566 6.38951 7.28023 6.29177 7.43782C6.19403 7.59541 6.14725 7.7793 6.1578 7.96444V10.9494C6.1578 11.0933 6.1578 11.2839 5.98421 11.2881C5.81061 11.2923 5.75134 11.1272 5.75134 10.9536C5.75134 10.1068 5.66666 9.22616 5.709 8.3709C5.71009 7.88609 5.54958 7.41474 5.25284 7.03135C4.9561 6.64797 4.54005 6.37441 4.07045 6.25391C3.26542 6.03757 2.44627 5.87771 1.61897 5.77547C1.21136 5.72498 0.8158 5.60316 0.450396 5.41558C0.306614 5.33941 0.187821 5.22344 0.108228 5.08152C0.0286359 4.93961 -0.00838507 4.77776 0.00159458 4.61536V3.92946C-0.0032275 3.78504 0.0342837 3.64236 0.109511 3.51899C0.184738 3.39561 0.294398 3.29693 0.424992 3.23508C0.526104 3.19557 0.616829 3.13343 0.690218 3.05344C0.763607 2.97344 0.817713 2.87771 0.84839 2.77358C0.924278 2.54722 1.01917 2.32768 1.13207 2.11731C1.25485 1.86751 1.40304 1.63887 1.74599 1.71932C2.0212 1.78283 2.16939 1.5923 2.31335 1.41447C2.59475 1.08497 2.99175 0.875864 3.42265 0.830183C3.74132 0.778189 4.03665 0.630525 4.26945 0.406785C4.3682 0.309111 4.49324 0.24229 4.62932 0.214472C4.7654 0.186655 4.90664 0.199043 5.0358 0.250127C5.12209 0.277218 5.21362 0.283283 5.30274 0.267816C5.39186 0.252349 5.47598 0.215799 5.54811 0.161214C5.66668 0.0617717 5.81676 0.00774413 5.97151 0.00879048C6.3568 -0.0377833 6.51769 0.0977042 6.52192 0.48723C6.48732 0.836039 6.53369 1.18813 6.65741 1.51609Z" fill="black"/>
</svg>
