<svg width="12" height="14" viewBox="0 0 12 14" fill="none" xmlns="http://www.w3.org/2000/svg">
    <path
        d="M11.5012 4.62286C11.6108 4.34433 11.653 4.04506 11.6244 3.7482C11.5958 3.45134 11.4973 3.16482 11.3365 2.91079C11.1757 2.65675 10.9568 2.44201 10.6968 2.28314C10.4369 2.12428 10.1427 2.02554 9.83719 1.99458C9.73465 1.72747 9.57296 1.48547 9.36353 1.28563C9.15411 1.08579 8.90204 0.933001 8.62512 0.838033C8.3482 0.743066 8.05318 0.708238 7.76087 0.736007C7.46857 0.763777 7.18611 0.853467 6.93342 0.998749L6.84917 0.876095L6.82209 0.841051C6.80403 0.811848 6.78297 0.785565 6.76191 0.756362L6.73181 0.721318C6.70774 0.695036 6.68668 0.668753 6.6596 0.64247C6.65329 0.631515 6.64515 0.621647 6.63552 0.613267C6.60543 0.581143 6.57233 0.55194 6.53923 0.522737C6.46172 0.45476 6.37926 0.392298 6.29249 0.335837C6.24133 0.292032 6.19921 0.27451 6.15407 0.251147C6.10894 0.227785 6.06681 0.204422 6.01866 0.18398C5.7543 0.0627223 5.46551 -0.000113598 5.17311 1.54168e-07C4.69636 0.000363213 4.23532 0.165414 3.87253 0.465598C3.50974 0.765782 3.2689 1.18149 3.19314 1.6383C3.11128 1.62811 3.02891 1.62226 2.94639 1.62078C2.41381 1.62078 1.903 1.8259 1.52612 2.19111C1.14925 2.55632 0.937123 3.05176 0.936326 3.56863V3.72632C0.666082 3.89114 0.440383 4.11631 0.278069 4.38302C0.115756 4.64974 0.0215366 4.95026 0.00327737 5.25952C-0.0149818 5.56877 0.0432486 5.87777 0.173108 6.16074C0.302967 6.4437 0.500687 6.69241 0.749763 6.88611V6.99124C0.749593 7.31713 0.833806 7.63785 0.994667 7.92392C1.15553 8.20999 1.38788 8.45224 1.67038 8.62843C1.95288 8.80462 2.27646 8.90908 2.61142 8.93224C2.94637 8.9554 3.28195 8.8965 3.58733 8.76095C3.73431 8.85874 3.88929 8.94469 4.05072 9.01794L5.20922 10.9395V14H6.54525V10.2211L7.93846 9.34501C8.22721 9.45834 8.53913 9.50509 8.84966 9.48158C9.16018 9.45808 9.46086 9.36497 9.72802 9.20957C9.99518 9.05417 10.2215 8.84072 10.3893 8.58603C10.5571 8.33133 10.6616 8.04233 10.6948 7.74176C11.0534 7.61274 11.3665 7.38697 11.5974 7.09103C11.8282 6.7951 11.9671 6.44131 11.9977 6.07134C12.0008 6.01979 12.0008 5.96811 11.9977 5.91656C11.9988 5.44197 11.8199 4.98357 11.4952 4.6287L11.5012 4.62286ZM4.63749 9.22528C4.82525 9.27416 5.01629 9.31026 5.20922 9.33333V10.1715L4.63749 9.22528ZM6.54525 9.30413C6.85632 9.2521 7.15954 9.16283 7.44798 9.03838L7.60746 9.15519L6.54525 9.84147V9.30413Z"
        fill="black" />
</svg>
