<svg width="12" height="12" viewBox="0 0 12 12" fill="none" xmlns="http://www.w3.org/2000/svg">
    <mask id="mask0_64_4297" style="mask-type:alpha" maskUnits="userSpaceOnUse" x="0" y="0"
        width="12" height="12">
        <rect width="12" height="12" fill="#D9D9D9" />
    </mask>
    <g mask="url(#mask0_64_4297)">
        <path
            d="M21.1318 10.3619C20.8458 10.4779 20.5891 10.6484 20.3688 10.8687C20.1485 11.089 19.9779 11.3457 19.8619 11.6316C19.7499 11.9081 19.693 12.2001 19.693 12.4999C19.693 12.7997 19.7499 13.0918 19.8619 13.3681C19.9779 13.6539 20.1484 13.9106 20.3685 14.1309L20.3687 14.131C20.3688 14.1312 20.3688 14.1312 20.3688 14.1313L21.2648 15.0273C21.2806 15.0385 21.2957 15.0507 21.3099 15.0649C21.324 15.0791 21.3363 15.0942 21.3475 15.11L21.9998 15.7624V16.7373L21.5498 17.1873L21.9998 17.6373V18.6125L21.0624 17.6751L20.6124 18.1251L22 19.5125V20H21.5125L20.111 18.5985C19.9398 18.7346 19.7552 18.8507 19.5587 18.9461L20.6125 20H19.6376L18.9401 19.3025C18.9052 19.2676 18.8794 19.2269 18.8627 19.1834C18.6624 19.2251 18.4576 19.2463 18.2501 19.2463C18.1566 19.2463 18.0634 19.2419 17.971 19.2333L18.4936 19.7558C18.4937 19.756 18.4937 19.756 18.4939 19.756L18.7375 20H17.7624L16.1312 18.3688C15.9109 18.1485 15.6542 17.9779 15.3682 17.8621C15.0918 17.75 14.7997 17.6931 14.5 17.6931C14.2001 17.6931 13.9081 17.75 13.6318 17.8621C13.3458 17.9781 13.0891 18.1485 12.8688 18.3688C12.6485 18.5891 12.4779 18.8458 12.3619 19.1318C12.2499 19.4082 12.193 19.7003 12.193 20H11.5036C11.5036 19.9064 11.5079 19.8133 11.5164 19.7209L11.2375 20H10.2625L10.5063 19.7563L12.3812 17.8812C12.6015 17.6609 12.7721 17.4042 12.8879 17.1182C13 16.8418 13.0569 16.5497 13.0569 16.25C13.0569 15.9503 13 15.6581 12.8879 15.3818C12.7719 15.0958 12.6015 14.8391 12.3812 14.6188C12.1609 14.3985 11.9042 14.2279 11.6182 14.1119C11.3418 13.9999 11.0497 13.943 10.75 13.943C10.4503 13.943 10.1581 13.9999 9.88179 14.1119C9.59597 14.2279 9.33925 14.3984 9.11895 14.6187L9.1188 14.6188L9.11866 14.619L8.22269 15.5149C8.21149 15.5307 8.19925 15.5458 8.18507 15.56C8.1709 15.5742 8.15582 15.5864 8.14 15.5976L7.48761 16.25L7.93761 16.7L9.56881 15.0688C9.72821 14.9094 9.91418 14.786 10.1216 14.7018C10.3218 14.6206 10.5333 14.5794 10.7501 14.5794C10.967 14.5794 11.1784 14.6206 11.3787 14.7018C11.5861 14.786 11.7721 14.9094 11.9315 15.0688C12.0909 15.2282 12.2143 15.4142 12.2985 15.6216C12.3797 15.8218 12.4209 16.0333 12.4209 16.2501C12.4209 16.467 12.3797 16.6784 12.2985 16.8787C12.2143 17.0861 12.0909 17.2721 11.9315 17.4315L10.0525 19.31C10.0176 19.3449 9.97687 19.3707 9.93343 19.3875C9.97507 19.5878 9.99642 19.7925 9.99642 20H9.30701C9.30701 19.7001 9.25015 19.4081 9.13806 19.1318C9.02209 18.8458 8.85164 18.5891 8.63134 18.3688L7.73507 17.4725C7.7194 17.4613 7.70418 17.4491 7.69 17.4351C7.67597 17.421 7.66358 17.4058 7.65254 17.3901L7 16.7375L6.55 17.1875L8.18119 18.8187C8.3406 18.9781 8.46403 19.164 8.54821 19.3715C8.6294 19.5716 8.6706 19.7831 8.6706 20H7.98075C7.98075 19.7488 7.88507 19.4975 7.69388 19.3063L6.06254 17.6751L5.61254 18.1251L7.24373 19.7563C7.31104 19.8236 7.34463 19.9118 7.34463 20H6.51239L5.1109 18.5985C4.9397 18.7346 4.75507 18.8507 4.55851 18.9461L5.61254 20H4.63746L3.94 19.3025C3.90507 19.2676 3.87925 19.2269 3.86254 19.1834C3.66224 19.2251 3.45746 19.2463 3.25 19.2463C3.15642 19.2463 3.06328 19.2419 2.9709 19.2333L3.49343 19.7558C3.49358 19.756 3.49358 19.756 3.49373 19.756L3.73746 20H2.76239L1.13119 18.3688C0.910895 18.1485 0.654179 17.9779 0.368209 17.8621C0.0917906 17.75 -0.200299 17.6931 -0.5 17.6931C-0.799851 17.6931 -1.09194 17.75 -1.36821 17.8621C-1.65418 17.9781 -1.9109 18.1485 -2.13119 18.3688C-2.35149 18.5891 -2.52209 18.8458 -2.63806 19.1318C-2.75015 19.4081 -2.80687 19.7003 -2.80702 20H-3.49642C-3.49642 19.9064 -3.49209 19.8133 -3.48358 19.7209L-3.76254 20H-4.73761L-4.49388 19.7563L-2.61896 17.8812C-2.39866 17.6609 -2.22806 17.4042 -2.11209 17.1182C-2 16.8418 -1.94313 16.5497 -1.94313 16.25C-1.94313 15.9501 -2 15.6581 -2.11209 15.3818C-2.22806 15.0958 -2.39851 14.8391 -2.61881 14.6188C-2.8391 14.3985 -3.09582 14.2279 -3.38179 14.1119C-3.65821 13.9999 -3.9503 13.943 -4.25 13.943C-4.5497 13.943 -4.84194 13.9999 -5.11821 14.1119C-5.40403 14.2279 -5.66075 14.3984 -5.88104 14.6187L-5.88119 14.6188L-5.88134 14.619L-6.77746 15.5149C-6.78866 15.5307 -6.8009 15.5458 -6.81507 15.56C-6.82925 15.5742 -6.84433 15.5864 -6.86015 15.5976L-7.51254 16.25L-7.06254 16.7L-5.43134 15.0688C-5.27194 14.9094 -5.08597 14.786 -4.87851 14.7018C-4.67836 14.6206 -4.46687 14.5794 -4.25 14.5794C-4.03313 14.5794 -3.82179 14.6206 -3.62149 14.7018C-3.41403 14.786 -3.22806 14.9094 -3.06866 15.0688C-2.90925 15.2282 -2.78582 15.4142 -2.70164 15.6216C-2.62045 15.8218 -2.57925 16.0333 -2.57925 16.2501C-2.57925 16.467 -2.62045 16.6784 -2.70164 16.8787C-2.78582 17.0861 -2.90925 17.2721 -3.06866 17.4315L-4.94746 19.31C-4.98239 19.3449 -5.02313 19.3707 -5.06657 19.3875C-5.02493 19.5878 -5.00373 19.7925 -5.00373 20H-5.69313C-5.69313 19.7001 -5.75 19.4081 -5.86209 19.1318C-5.97806 18.8458 -6.14851 18.5891 -6.36896 18.3688L-7.26522 17.4725C-7.2809 17.4613 -7.29612 17.4491 -7.31015 17.4351C-7.32418 17.421 -7.33657 17.4058 -7.34761 17.3901L-8 16.7375V15.7624L-7.55 15.3124L-8 14.8625V13.8875L-7.06254 14.8249L-6.61254 14.3749L-8 12.9875V12.1552C-7.91179 12.1552 -7.82358 12.189 -7.75627 12.2561L-6.11104 13.9015C-5.93985 13.7654 -5.75522 13.6493 -5.55866 13.5539L-7.30627 11.8063C-7.49746 11.6151 -7.74881 11.5194 -8 11.5194V10.8296C-7.78313 10.8296 -7.57179 10.8707 -7.37149 10.9519C-7.16403 11.0361 -6.97806 11.1596 -6.81866 11.319L-4.93985 13.1978C-4.90493 13.2327 -4.87925 13.2734 -4.86239 13.3167C-4.66209 13.2751 -4.45731 13.2539 -4.24985 13.2539C-4.15627 13.2539 -4.06313 13.2582 -3.97075 13.2669L-4.49328 12.7443C-4.49328 12.7443 -4.49343 12.7442 -4.49358 12.744L-6.36881 10.8688C-6.5891 10.6485 -6.84582 10.4779 -7.13179 10.3621C-7.40806 10.2499 -7.7003 10.1931 -8 10.1931V9.50373C-7.69657 9.50373 -7.39896 9.54881 -7.11239 9.63776C-7.20134 9.35105 -7.24642 9.05358 -7.24642 8.75C-7.24642 8.44657 -7.20134 8.14896 -7.11239 7.86239C-7.3991 7.95134 -7.69657 7.99642 -8 7.99642V7.30702C-7.70015 7.30702 -7.40806 7.25015 -7.13179 7.13806C-6.84582 7.02209 -6.5891 6.85164 -6.36881 6.63119C-6.14851 6.4109 -5.97791 6.15418 -5.86194 5.86821C-5.74985 5.59179 -5.69299 5.2997 -5.69299 5C-5.69299 4.70015 -5.74985 4.40806 -5.86194 4.13179C-5.97791 3.84582 -6.14836 3.58911 -6.36881 3.36881L-7.26507 2.47254C-7.28075 2.46135 -7.29597 2.44911 -7.31 2.43508C-7.32403 2.42105 -7.33642 2.40582 -7.34746 2.39015L-8 1.73746V0.762538L-7.55 0.312538L-8 -0.13746V-1.11254L-7.06254 -0.175073L-6.61254 -0.625073L-8 -2.01253V-2.84477C-7.91179 -2.84477 -7.82358 -2.81104 -7.75627 -2.74388L-6.11104 -1.09865C-5.93985 -1.23477 -5.75522 -1.35089 -5.55866 -1.44627L-7.30627 -3.19373C-7.49746 -3.38492 -7.74881 -3.48059 -8 -3.48059V-4.17045C-7.78313 -4.17045 -7.57179 -4.12925 -7.37149 -4.04806C-7.16403 -3.96388 -6.97806 -3.84045 -6.81866 -3.68119L-4.93985 -1.80239C-4.90493 -1.76746 -4.87925 -1.72672 -4.86239 -1.68343C-4.66209 -1.72507 -4.45731 -1.74627 -4.24985 -1.74627C-4.15627 -1.74627 -4.06313 -1.74194 -3.97075 -1.73328L-4.49328 -2.25582C-4.49328 -2.25582 -4.49343 -2.25597 -4.49358 -2.25612L-6.36851 -4.13119C-6.58881 -4.35149 -6.84552 -4.52209 -7.13149 -4.63791C-7.40791 -4.75 -7.7 -4.80686 -7.9997 -4.80686V-5.49627C-7.69627 -5.49627 -7.39866 -5.45104 -7.11209 -5.36224C-7.20104 -5.64895 -7.24612 -5.94642 -7.24612 -6.25C-7.24612 -6.55343 -7.20104 -6.85104 -7.11209 -7.13761C-7.39881 -7.04865 -7.69627 -7.00358 -7.9997 -7.00358V-7.69298C-7.69985 -7.69298 -7.40776 -7.74985 -7.13149 -7.86194C-6.84552 -7.97791 -6.58881 -8.14836 -6.36851 -8.36865C-6.14821 -8.58895 -5.97761 -8.84567 -5.86164 -9.13164C-5.74955 -9.40806 -5.69269 -9.70015 -5.69269 -9.99985H-5.00328C-5.00328 -9.90627 -5.00761 -9.81313 -5.01627 -9.72074L-4.73716 -9.99985H-3.76209L-4.00582 -9.75612L-5.88075 -7.88104C-6.10104 -7.66074 -6.27164 -7.40403 -6.38761 -7.11806C-6.4997 -6.84164 -6.55657 -6.54955 -6.55657 -6.24985C-6.55657 -5.95015 -6.4997 -5.65791 -6.38761 -5.38164C-6.27164 -5.09567 -6.10119 -4.83895 -5.8809 -4.61865C-5.6606 -4.39836 -5.40388 -4.22776 -5.11791 -4.11194C-4.84149 -3.99985 -4.5494 -3.94298 -4.2497 -3.94298C-3.95 -3.94298 -3.65776 -3.99985 -3.38149 -4.11194C-3.09552 -4.22791 -2.83881 -4.39836 -2.61851 -4.61865L-1.72224 -5.51492C-1.71105 -5.53059 -1.69881 -5.54582 -1.68478 -5.56C-1.67075 -5.57403 -1.65552 -5.58642 -1.63985 -5.59746L-0.987314 -6.25L-1.43731 -6.7L-3.06851 -5.0688C-3.22791 -4.9094 -3.41388 -4.78597 -3.62134 -4.70194C-3.82149 -4.62074 -4.03299 -4.57955 -4.24985 -4.57955C-4.46672 -4.57955 -4.67806 -4.62074 -4.87836 -4.70194C-5.08582 -4.78612 -5.27179 -4.90955 -5.43119 -5.06895C-5.5906 -5.22836 -5.71403 -5.41433 -5.79821 -5.62179C-5.8794 -5.82194 -5.9206 -6.03343 -5.9206 -6.2503C-5.9206 -6.46716 -5.8794 -6.67851 -5.79821 -6.8788C-5.71403 -7.08627 -5.5906 -7.27224 -5.43119 -7.43164L-3.55239 -9.31045C-3.51746 -9.34537 -3.47672 -9.37104 -3.43328 -9.38791C-3.47493 -9.58821 -3.49612 -9.79298 -3.49612 -10.0004H-2.80672C-2.80672 -9.70059 -2.74985 -9.4085 -2.63776 -9.13224C-2.52179 -8.84642 -2.35134 -8.5897 -2.13119 -8.3694L-2.13104 -8.36925C-2.1309 -8.3691 -2.1309 -8.3691 -2.1309 -8.36895L-1.23493 -7.47298C-1.2191 -7.46179 -1.20403 -7.44955 -1.18985 -7.43537C-1.17567 -7.42119 -1.16343 -7.40612 -1.15224 -7.3903L-0.499851 -6.73791L-0.0498513 -7.18791L-1.68104 -8.8191C-1.84045 -8.97851 -1.96388 -9.16448 -2.04806 -9.37194C-2.12925 -9.57209 -2.17045 -9.78358 -2.17045 -10.0004H-1.4806C-1.4806 -9.74925 -1.38493 -9.49791 -1.19373 -9.30671L0.437462 -7.67552L0.887463 -8.12552L-0.743731 -9.75671C-0.811045 -9.82403 -0.844776 -9.91224 -0.844627 -10.0004H-0.0123885L1.3891 -8.59895C1.5603 -8.73507 1.74493 -8.85119 1.94149 -8.94657L0.887463 -10H1.86239L2.55985 -9.30254C2.59478 -9.26761 2.62045 -9.22686 2.63731 -9.18358C2.83761 -9.22522 3.04239 -9.24642 3.24985 -9.24642C3.34343 -9.24642 3.43657 -9.24209 3.52895 -9.23343L3.00642 -9.75597C3.00627 -9.75612 3.00627 -9.75612 3.00612 -9.75627L2.76254 -10H3.73761L5.36881 -8.3688C5.5891 -8.1485 5.84582 -7.97791 6.13179 -7.86209C6.40821 -7.75 6.7003 -7.69313 7 -7.69313C7.29985 -7.69313 7.59194 -7.75 7.86821 -7.86209C8.15418 -7.97806 8.4109 -8.1485 8.63119 -8.3688C8.85149 -8.5891 9.02209 -8.84582 9.13791 -9.13179C9.25 -9.40821 9.30687 -9.7003 9.30687 -10H9.99627C9.99627 -9.90642 9.99194 -9.81328 9.98343 -9.72089L10.2625 -10H11.2375L10.9937 -9.75627L9.1188 -7.88119C8.89851 -7.66089 8.72791 -7.40418 8.61209 -7.11821C8.5 -6.84179 8.44313 -6.5497 8.44313 -6.25C8.44313 -5.9503 8.5 -5.65806 8.61209 -5.38179C8.72806 -5.09582 8.89851 -4.8391 9.1188 -4.6188C9.3391 -4.3985 9.59582 -4.22791 9.88179 -4.11209C10.1582 -4 10.4503 -3.94313 10.75 -3.94313C11.0497 -3.94313 11.3419 -4 11.6182 -4.11209C11.9042 -4.22806 12.1609 -4.3985 12.3812 -4.6188L13.2775 -5.51507C13.2887 -5.53074 13.3009 -5.54597 13.3149 -5.56015C13.329 -5.57418 13.3442 -5.58657 13.36 -5.59761L14.0125 -6.25015L13.5625 -6.70015L11.9313 -5.06895C11.7719 -4.90955 11.586 -4.78612 11.3785 -4.70209C11.1784 -4.62089 10.9669 -4.5797 10.75 -4.5797C10.5331 -4.5797 10.3218 -4.62089 10.1215 -4.70209C9.91403 -4.78627 9.72806 -4.9097 9.56866 -5.0691C9.40925 -5.22851 9.28582 -5.41448 9.20164 -5.62194C9.12045 -5.82209 9.07925 -6.03358 9.07925 -6.25045C9.07925 -6.46731 9.12045 -6.67865 9.20164 -6.87895C9.28582 -7.08642 9.40925 -7.27239 9.56866 -7.43179L11.4475 -9.3106C11.4824 -9.34552 11.5231 -9.37119 11.5666 -9.38806C11.5249 -9.58836 11.5037 -9.79313 11.5037 -10.0006H12.1931C12.1931 -9.70074 12.25 -9.40865 12.3621 -9.13239C12.4781 -8.84656 12.6485 -8.58985 12.8687 -8.36955L12.8688 -8.3694C12.869 -8.36925 12.869 -8.36925 12.869 -8.3691L13.7649 -7.47313C13.7807 -7.46194 13.7958 -7.4497 13.81 -7.43552C13.8242 -7.42134 13.8364 -7.40627 13.8476 -7.39045L14.5 -6.73806L14.95 -7.18806L13.3188 -8.81925C13.1594 -8.97865 13.036 -9.16463 12.9518 -9.37209C12.8706 -9.57224 12.8294 -9.78373 12.8294 -10.0006H13.5193C13.5193 -9.7494 13.6149 -9.49806 13.8061 -9.30686L15.4373 -7.67567L15.8873 -8.12567L14.2561 -9.75686C14.1888 -9.82418 14.1551 -9.91239 14.1552 -10.0006H14.9875L16.389 -8.5991C16.5601 -8.73522 16.7448 -8.85134 16.9413 -8.94671L15.8875 -10.0006H16.8624L17.5599 -9.30313C17.5948 -9.26821 17.6204 -9.22746 17.6373 -9.18418C17.8376 -9.22582 18.0424 -9.24701 18.2498 -9.24701C18.3434 -9.24701 18.4366 -9.24268 18.529 -9.23403L18.0064 -9.75656C18.0063 -9.75671 18.0063 -9.75671 18.0061 -9.75686L17.7624 -10.0006H18.7375L20.3687 -8.3694C20.589 -8.1491 20.8457 -7.97851 21.1316 -7.86268C21.4081 -7.7506 21.7001 -7.69373 21.9998 -7.69373V-7.00433C21.6964 -7.00433 21.3988 -7.0494 21.1122 -7.13836C21.2012 -6.85164 21.2463 -6.55418 21.2463 -6.25074C21.2463 -5.94731 21.2012 -5.6497 21.1122 -5.36298C21.399 -5.45194 21.6964 -5.49701 21.9998 -5.49701V-4.80761C21.7 -4.80761 21.4079 -4.75074 21.1316 -4.63866C20.8457 -4.52269 20.589 -4.35224 20.3687 -4.13179C20.1484 -3.91149 19.9778 -3.65477 19.8618 -3.3688C19.7497 -3.09239 19.6928 -2.8003 19.6928 -2.5006C19.6928 -2.20074 19.7497 -1.90865 19.8618 -1.63239C19.9778 -1.34657 20.1482 -1.08985 20.3684 -0.869551L20.3685 -0.869401C20.3687 -0.869252 20.3687 -0.869252 20.3687 -0.869102L21.2646 0.0268681C21.2804 0.0380621 21.2955 0.0502994 21.3097 0.0644785C21.3239 0.0786576 21.3361 0.0937325 21.3473 0.109553L21.9997 0.761943V1.73687L21.5497 2.18687L21.9997 2.63687V3.61194L21.0622 2.67448L20.6122 3.12448L21.9997 4.51194V5.34478C21.9115 5.34478 21.8233 5.3112 21.756 5.24388L20.1107 3.59866C19.9396 3.73478 19.7549 3.8509 19.5584 3.94627L21.306 5.69388C21.4973 5.88508 21.7485 5.98075 21.9997 5.98075V6.6706C21.7828 6.6706 21.5715 6.6294 21.3712 6.54821C21.1637 6.46403 20.9778 6.3406 20.8184 6.18134L18.9396 4.30254C18.9046 4.26761 18.8788 4.22687 18.8621 4.18343C18.6618 4.22508 18.457 4.24627 18.2496 4.24627C18.156 4.24627 18.0628 4.24194 17.9704 4.23329L18.493 4.75582C18.4931 4.75597 18.4931 4.75597 18.4933 4.75612L20.3682 6.63119C20.5885 6.85149 20.8452 7.02209 21.1312 7.13791C21.4076 7.25 21.6997 7.30687 21.9994 7.30687V7.99627C21.696 7.99627 21.3984 7.9512 21.1118 7.86224C21.2007 8.14896 21.2458 8.44642 21.2458 8.74985C21.2458 9.05328 21.2007 9.3509 21.1118 9.63761C21.3985 9.54866 21.696 9.50358 21.9994 9.50358V10.193C21.7001 10.1931 21.4081 10.2499 21.1318 10.3619ZM-3.55627 16.9437C-3.17373 16.5612 -3.17373 15.9388 -3.55627 15.5563C-3.93881 15.1737 -4.56119 15.1737 -4.94373 15.5563L-6.57507 17.1875L-6.12507 17.6375L-4.49388 16.0063C-4.35925 15.8716 -4.14104 15.8716 -4.00642 16.0063C-3.87179 16.1409 -3.87179 16.3591 -4.00642 16.4937L-5.65149 18.139C-5.51537 18.3101 -5.39925 18.4948 -5.30388 18.6913L-3.55627 16.9437ZM16.3749 10.1375L18.0061 8.50627C18.1407 8.37164 18.359 8.37164 18.4936 8.50627C18.6282 8.6409 18.6282 8.85911 18.4936 8.99373L16.8484 10.639C16.9845 10.8102 17.1006 10.9948 17.196 11.1913L18.9436 9.44373C19.3261 9.06119 19.3261 8.43881 18.9436 8.05627C18.561 7.67373 17.9387 7.67373 17.5561 8.05627L15.9249 9.68746L16.3749 10.1375ZM16.6381 11.6318C16.5221 11.3458 16.3516 11.0891 16.1313 10.8688L15.2351 9.97254C15.2194 9.96134 15.2042 9.94911 15.19 9.93508C15.176 9.92105 15.1636 9.90582 15.1525 9.89015L14.5 9.23761L14.05 9.68761L15.6812 11.3188C15.8406 11.4782 15.964 11.6642 16.0482 11.8716C16.1294 12.0718 16.1706 12.2833 16.1706 12.5002C16.1706 12.717 16.1294 12.9284 16.0482 13.1287C15.964 13.3361 15.8406 13.5221 15.6812 13.6815C15.5218 13.8409 15.3358 13.9643 15.1284 14.0485C14.9282 14.1297 14.7167 14.1709 14.4999 14.1709C14.283 14.1709 14.0716 14.1297 13.8713 14.0485C13.6639 13.9643 13.4779 13.8409 13.3185 13.6815L11.4397 11.8027C11.4048 11.7678 11.379 11.727 11.3622 11.6836C11.1619 11.7252 10.9572 11.7464 10.7497 11.7464C10.6561 11.7464 10.563 11.7421 10.4706 11.7334L10.9931 12.256C10.9933 12.2561 10.9933 12.2561 10.9934 12.2563L12.8684 14.1313C13.0887 14.3516 13.3454 14.5222 13.6313 14.6381C13.9078 14.7501 14.1998 14.807 14.4996 14.807C14.7994 14.807 15.0915 14.7501 15.3678 14.6381C15.6537 14.5221 15.9104 14.3516 16.1307 14.1312C16.351 13.9109 16.5216 13.6542 16.6375 13.3682C16.7496 13.0918 16.8064 12.7997 16.8064 12.5C16.8069 12.2001 16.7501 11.9081 16.6381 11.6318ZM15.8875 6.87508L14.2563 5.24388C14.1216 5.10926 14.1216 4.89105 14.2563 4.75642C14.3909 4.62179 14.6091 4.62179 14.7437 4.75642L16.389 6.40164C16.5601 6.26552 16.7448 6.1494 16.9413 6.05403L15.1937 4.30642C14.8112 3.92388 14.1888 3.92388 13.8063 4.30642C13.4237 4.68896 13.4237 5.31134 13.8063 5.69388L15.4375 7.32508L15.8875 6.87508ZM14.95 7.81254L13.3188 6.18134C13.1594 6.02194 13.036 5.83597 12.9518 5.62851C12.8706 5.42836 12.8294 5.21687 12.8294 5C12.8294 4.78314 12.8706 4.57179 12.9518 4.37149C13.036 4.16403 13.1594 3.97806 13.3188 3.81866C13.4782 3.65925 13.6642 3.53582 13.8716 3.45179C14.0718 3.3706 14.2833 3.3294 14.5001 3.3294C14.717 3.3294 14.9284 3.3706 15.1287 3.45179C15.3361 3.53597 15.5221 3.6594 15.6815 3.81866L17.5603 5.69746C17.5952 5.73239 17.6209 5.77314 17.6378 5.81642C17.8381 5.77478 18.0428 5.75358 18.2503 5.75358C18.3439 5.75358 18.437 5.75791 18.5294 5.76657L18.0069 5.24403C18.0067 5.24388 18.0067 5.24388 18.0066 5.24373L16.1316 3.36866C15.9113 3.14836 15.6546 2.97776 15.3687 2.86194C15.0922 2.74985 14.8001 2.69299 14.5004 2.69299C14.2006 2.69299 13.9085 2.74985 13.6322 2.86194C13.3463 2.97791 13.0896 3.14836 12.8693 3.36866C12.649 3.58896 12.4784 3.84567 12.3624 4.13164C12.2503 4.40806 12.1934 4.70015 12.1934 4.99985C12.1934 5.2997 12.2503 5.59179 12.3624 5.86806C12.4784 6.15388 12.6488 6.4106 12.869 6.6309L12.8691 6.63105C12.8693 6.6312 12.8693 6.63119 12.8693 6.63134L13.7652 7.52731C13.781 7.53851 13.7961 7.55075 13.8103 7.56493C13.8245 7.57911 13.8367 7.59418 13.8479 7.61L14.5003 8.26239L14.95 7.81254ZM16.3749 -4.86254L18.0061 -6.49373C18.1407 -6.62836 18.359 -6.62836 18.4936 -6.49373C18.6282 -6.3591 18.6282 -6.14089 18.4936 -6.00627L16.8484 -4.36104C16.9845 -4.18985 17.1006 -4.00522 17.196 -3.80866L18.9436 -5.55627C19.3261 -5.9388 19.3261 -6.56119 18.9436 -6.94373C18.561 -7.32627 17.9387 -7.32627 17.5561 -6.94373L15.9249 -5.31253L16.3749 -4.86254ZM16.6381 -3.36821C16.5221 -3.65418 16.3516 -3.91089 16.1313 -4.13119L15.2351 -5.02746C15.2194 -5.03865 15.2042 -5.05089 15.19 -5.06492C15.176 -5.07895 15.1636 -5.09418 15.1525 -5.10985L14.5 -5.76239L14.05 -5.31239L15.6812 -3.68119C15.8406 -3.52179 15.964 -3.33582 16.0482 -3.12836C16.1294 -2.92821 16.1706 -2.71671 16.1706 -2.49985C16.1706 -2.28298 16.1294 -2.07164 16.0482 -1.87134C15.964 -1.66388 15.8406 -1.47791 15.6812 -1.31851C15.5218 -1.1591 15.3358 -1.03567 15.1284 -0.95164C14.9282 -0.870446 14.7167 -0.829253 14.4999 -0.829253C14.283 -0.829253 14.0716 -0.870446 13.8713 -0.95164C13.6639 -1.03582 13.4779 -1.15925 13.3185 -1.31851L11.4397 -3.19731C11.4048 -3.23224 11.379 -3.27298 11.3622 -3.31642C11.1619 -3.27477 10.9572 -3.25358 10.7497 -3.25358C10.6561 -3.25358 10.563 -3.25791 10.4706 -3.26656L10.9931 -2.74403C10.9933 -2.74388 10.9933 -2.74388 10.9934 -2.74373L12.8684 -0.868654C13.0887 -0.648356 13.3454 -0.477759 13.6313 -0.361939C13.9078 -0.249849 14.1998 -0.192984 14.4996 -0.192984C14.7994 -0.192984 15.0915 -0.249849 15.3678 -0.361939C15.6537 -0.477909 15.9104 -0.648356 16.1307 -0.868804C16.351 -1.0891 16.5216 -1.34582 16.6375 -1.63179C16.7496 -1.90821 16.8064 -2.2003 16.8064 -2.5C16.8069 -2.79985 16.7501 -3.09194 16.6381 -3.36821ZM13.1125 -4.37492L14.7437 -2.74373C14.8784 -2.6091 14.8784 -2.39089 14.7437 -2.25627C14.6091 -2.12164 14.3909 -2.12164 14.2563 -2.25627L12.611 -3.90149C12.4398 -3.76537 12.2552 -3.64925 12.0587 -3.55388L13.8063 -1.80627C14.1888 -1.42373 14.8112 -1.42373 15.1937 -1.80627C15.5763 -2.1888 15.5763 -2.81119 15.1937 -3.19373L13.5625 -4.82492L13.1125 -4.37492ZM1.37493 -4.86254L3.00612 -6.49373C3.14075 -6.62836 3.35896 -6.62836 3.49358 -6.49373C3.62821 -6.3591 3.62821 -6.14089 3.49358 -6.00627L1.84836 -4.36104C1.98448 -4.18985 2.1006 -4.00522 2.19597 -3.80866L3.94358 -5.55627C4.32612 -5.9388 4.32612 -6.56119 3.94358 -6.94373C3.56104 -7.32627 2.93866 -7.32627 2.55612 -6.94373L0.924925 -5.31253L1.37493 -4.86254ZM1.63806 -3.36821C1.52209 -3.65418 1.35164 -3.91089 1.13134 -4.13119L0.235074 -5.02746C0.219403 -5.03865 0.204179 -5.05089 0.19 -5.06492C0.17597 -5.07895 0.163581 -5.09418 0.152537 -5.10985L-0.5 -5.76239L-0.95 -5.31239L0.681194 -3.68119C0.840597 -3.52179 0.964029 -3.33582 1.04821 -3.12836C1.1294 -2.92821 1.1706 -2.71671 1.1706 -2.49985C1.1706 -2.28298 1.1294 -2.07164 1.04821 -1.87134C0.964029 -1.66388 0.840597 -1.47791 0.681194 -1.31851C0.521791 -1.1591 0.33582 -1.03567 0.128358 -0.95164C-0.0717916 -0.870446 -0.283284 -0.829253 -0.50015 -0.829253C-0.717015 -0.829253 -0.928358 -0.870446 -1.12866 -0.95164C-1.33612 -1.03582 -1.52209 -1.15925 -1.68149 -1.31851L-3.5603 -3.19731C-3.59522 -3.23224 -3.62105 -3.27298 -3.63776 -3.31642C-3.83806 -3.27477 -4.04284 -3.25358 -4.2503 -3.25358C-4.34388 -3.25358 -4.43702 -3.25791 -4.5294 -3.26656L-4.00687 -2.74403C-4.00672 -2.74388 -4.00672 -2.74388 -4.00657 -2.74373L-2.13164 -0.868654C-1.91134 -0.648356 -1.65463 -0.477759 -1.36866 -0.361939C-1.09224 -0.249849 -0.800149 -0.192984 -0.500448 -0.192984C-0.200597 -0.192984 0.0914926 -0.249849 0.367761 -0.361939C0.653731 -0.477909 0.910448 -0.648356 1.13075 -0.868804C1.35104 -1.0891 1.52164 -1.34582 1.63746 -1.63179C1.74955 -1.90821 1.80642 -2.2003 1.80642 -2.5C1.80687 -2.79985 1.75015 -3.09194 1.63806 -3.36821ZM-1.88746 -4.37492L-0.256269 -2.74373C-0.121642 -2.6091 -0.121642 -2.39089 -0.256269 -2.25627C-0.390895 -2.12164 -0.609104 -2.12164 -0.743731 -2.25627L-2.38896 -3.90149C-2.56015 -3.76537 -2.74478 -3.64925 -2.94134 -3.55388L-1.19373 -1.80627C-0.811194 -1.42373 -0.188806 -1.42373 0.193731 -1.80627C0.576268 -2.1888 0.576268 -2.81119 0.193731 -3.19373L-1.43746 -4.82492L-1.88746 -4.37492ZM-2.37507 7.36254L-4.00627 8.99373C-4.1409 9.12836 -4.3591 9.12836 -4.49373 8.99373C-4.62836 8.85911 -4.62836 8.6409 -4.49373 8.50627L-2.84851 6.86105C-2.98463 6.68985 -3.10075 6.50522 -3.19612 6.30866L-4.94373 8.05627C-5.32627 8.43881 -5.32627 9.06119 -4.94373 9.44373C-4.56119 9.82627 -3.93881 9.82627 -3.55627 9.44373L-1.92507 7.81254L-2.37507 7.36254ZM-2.63806 5.86836C-2.52209 6.15418 -2.35164 6.4109 -2.13149 6.63119L-2.13134 6.63134C-2.13119 6.63149 -2.13119 6.63149 -2.13119 6.63164L-1.23522 7.52761C-1.2194 7.53881 -1.20433 7.55105 -1.19015 7.56522C-1.17597 7.5794 -1.16373 7.59448 -1.15254 7.6103L-0.50015 8.26269L-0.0501492 7.81269L-1.68119 6.18134C-1.8406 6.02194 -1.96403 5.83597 -2.04821 5.62851C-2.1294 5.42836 -2.1706 5.21687 -2.1706 5C-2.1706 4.78314 -2.1294 4.57179 -2.04821 4.37149C-1.96403 4.16403 -1.8406 3.97806 -1.68119 3.81866C-1.52179 3.65925 -1.33582 3.53582 -1.12836 3.45179C-0.928209 3.3706 -0.716716 3.3294 -0.499851 3.3294C-0.282985 3.3294 -0.071642 3.3706 0.128656 3.45179C0.336119 3.53597 0.522089 3.6594 0.681492 3.81866L2.5603 5.69746C2.59522 5.73239 2.62089 5.77314 2.63776 5.81642C2.83806 5.77478 3.04284 5.75358 3.2503 5.75358C3.34388 5.75358 3.43701 5.75791 3.5294 5.76657L3.00687 5.24403C3.00672 5.24388 3.00672 5.24388 3.00657 5.24373L1.13164 3.36866C0.911343 3.14836 0.654627 2.97776 0.368657 2.86194C0.0922388 2.74985 -0.199851 2.69299 -0.499552 2.69299C-0.799403 2.69299 -1.09149 2.74985 -1.36776 2.86194C-1.65373 2.97791 -1.91045 3.14836 -2.13075 3.36866C-2.35105 3.58896 -2.52164 3.84567 -2.63761 4.13164C-2.7497 4.40806 -2.80657 4.70015 -2.80657 4.99985C-2.80702 5.29985 -2.75015 5.59194 -2.63806 5.86836ZM-1.88746 10.6251L-0.256269 12.2563C-0.121642 12.3909 -0.121642 12.6091 -0.256269 12.7437C-0.390895 12.8784 -0.609104 12.8784 -0.743731 12.7437L-2.38896 11.0985C-2.56015 11.2346 -2.74478 11.3507 -2.94134 11.4461L-1.19373 13.1937C-0.811194 13.5763 -0.188806 13.5763 0.193731 13.1937C0.576268 12.8112 0.576268 12.1888 0.193731 11.8063L-1.43746 10.1749L-1.88746 10.6251ZM-0.95 9.68746L0.681194 11.3187C0.840597 11.4781 0.964029 11.664 1.04821 11.8715C1.1294 12.0716 1.1706 12.2831 1.1706 12.5C1.1706 12.7169 1.1294 12.9282 1.04821 13.1285C0.964029 13.336 0.840597 13.5219 0.681194 13.6813C0.521791 13.8407 0.33582 13.9642 0.128358 14.0484C-0.0717916 14.1296 -0.283284 14.1707 -0.50015 14.1707C-0.717015 14.1707 -0.928358 14.1296 -1.12866 14.0484C-1.33612 13.9642 -1.52209 13.8407 -1.68149 13.6813L-3.56 11.8025C-3.59493 11.7676 -3.62075 11.7269 -3.63746 11.6834C-3.83776 11.7251 -4.04254 11.7463 -4.25 11.7463C-4.34358 11.7463 -4.43672 11.7419 -4.5291 11.7333L-4.00657 12.2558C-4.00642 12.256 -4.00642 12.256 -4.00627 12.2561L-2.13134 14.1312C-1.91104 14.3515 -1.65433 14.5221 -1.36836 14.6379C-1.09194 14.75 -0.799851 14.8069 -0.50015 14.8069C-0.200299 14.8069 0.0917905 14.75 0.368059 14.6379C0.654029 14.5219 0.910746 14.3515 1.13105 14.131C1.35134 13.9107 1.52194 13.654 1.63776 13.3681C1.74985 13.0916 1.80672 12.7996 1.80672 12.4999C1.80672 12.2 1.74985 11.9079 1.63776 11.6316C1.52179 11.3457 1.35134 11.089 1.13105 10.8687L0.234776 9.97239C0.219104 9.9612 0.203881 9.94896 0.189702 9.93493C0.175672 9.9209 0.163284 9.90567 0.152239 9.89L-0.500299 9.23746L-0.95 9.68746ZM1.61881 17.8812C1.8391 18.1015 2.09582 18.2721 2.38179 18.3879C2.65821 18.5 2.9503 18.5569 3.25 18.5569C3.54985 18.5569 3.84194 18.5 4.11821 18.3879C4.40418 18.2719 4.66089 18.1015 4.88119 17.8812L5.77746 16.9849C5.78866 16.9693 5.80089 16.954 5.81492 16.94C5.82895 16.926 5.84418 16.9136 5.86 16.9025L6.51254 16.25L6.06254 15.8L4.43119 17.4312C4.27179 17.5906 4.08582 17.714 3.87836 17.7981C3.67821 17.8793 3.46672 17.9204 3.24985 17.9204C3.03298 17.9204 2.82164 17.8793 2.62134 17.7981C2.41388 17.7139 2.22791 17.5904 2.06851 17.431C1.9091 17.2716 1.78567 17.0857 1.70149 16.8782C1.6203 16.6781 1.5791 16.4666 1.5791 16.2497C1.5791 16.0328 1.6203 15.8215 1.70149 15.6212C1.78567 15.4137 1.9091 15.2278 2.06851 15.0684L3.94731 13.1896C3.98224 13.1546 4.02298 13.129 4.06642 13.1121C4.02478 12.9118 4.00358 12.707 4.00358 12.4996C4.00358 12.406 4.00791 12.3128 4.01642 12.2204L3.49358 12.7433L1.61881 14.6188C1.39851 14.8391 1.22791 15.0958 1.11209 15.3818C1 15.6582 0.943134 15.9503 0.943134 16.25C0.943134 16.5499 1 16.8419 1.11209 17.1182C1.22791 17.4042 1.39836 17.6609 1.61881 17.8812ZM5.12492 14.8625L3.49373 16.4937C3.3591 16.6284 3.1409 16.6284 3.00627 16.4937C2.87164 16.3591 2.87164 16.1409 3.00627 16.0063L4.65149 14.361C4.51537 14.1899 4.39925 14.0052 4.30388 13.8087L2.55627 15.5563C2.17373 15.9388 2.17373 16.5612 2.55627 16.9437C2.93881 17.3263 3.56119 17.3263 3.94373 16.9437L5.57493 15.3125L5.12492 14.8625ZM14.0125 8.75L13.5625 8.3L11.9313 9.9312C11.7719 10.0906 11.586 10.214 11.3785 10.2981C11.1784 10.3793 10.9669 10.4204 10.75 10.4204C10.5331 10.4204 10.3218 10.3793 10.1215 10.2981C9.91403 10.2139 9.72806 10.0904 9.56866 9.93105C9.40925 9.77164 9.28582 9.58567 9.20164 9.37821C9.12045 9.17806 9.07925 8.96657 9.07925 8.7497C9.07925 8.53284 9.12045 8.32149 9.20164 8.12119C9.28582 7.91373 9.40925 7.72776 9.56866 7.56836L11.4475 5.68955C11.4824 5.65463 11.5231 5.62896 11.5666 5.61209C11.5249 5.41179 11.5037 5.20702 11.5037 4.99955C11.5037 4.90597 11.5081 4.81284 11.5166 4.72045L10.9937 5.24328L9.1188 7.11836C8.89851 7.33866 8.72791 7.59537 8.61209 7.88134C8.5 8.15776 8.44313 8.44985 8.44313 8.74955C8.44313 9.04925 8.5 9.34149 8.61209 9.61776C8.72806 9.90373 8.89851 10.1604 9.1188 10.3807C9.3391 10.601 9.59582 10.7716 9.88179 10.8875C10.1582 10.9996 10.4503 11.0564 10.75 11.0564C11.0497 11.0564 11.3419 10.9996 11.6182 10.8875C11.9042 10.7715 12.1609 10.601 12.3812 10.3807L13.2775 9.48448C13.2887 9.46881 13.3009 9.45358 13.3149 9.4394C13.329 9.42537 13.3442 9.41299 13.36 9.40194L14.0125 8.75ZM12.6249 7.36254L10.9937 8.99373C10.8591 9.12836 10.6409 9.12836 10.5063 8.99373C10.3716 8.85911 10.3716 8.6409 10.5063 8.50627L12.1515 6.86105C12.0154 6.68985 11.8993 6.50522 11.8039 6.30866L10.0563 8.05627C9.67373 8.43881 9.67373 9.06119 10.0563 9.44373C10.4388 9.82627 11.0612 9.82627 11.4437 9.44373L13.0749 7.81254L12.6249 7.36254ZM12.3813 -0.381193C12.161 -0.601491 11.9043 -0.772088 11.6184 -0.888058C11.3419 -1.00015 11.0499 -1.05701 10.7501 -1.05701C10.4504 -1.05701 10.1582 -1.00015 9.88194 -0.888058C9.59612 -0.772088 9.3394 -0.601641 9.1191 -0.381342L9.11895 -0.381193L9.1188 -0.381043L8.22284 0.514927C8.21164 0.530748 8.1994 0.545823 8.18522 0.560002C8.17104 0.574181 8.15597 0.58642 8.14015 0.597614L7.48776 1.25L7.93776 1.7L9.56895 0.0688075C9.72836 -0.0905955 9.91433 -0.214028 10.1218 -0.298207C10.3219 -0.379401 10.5334 -0.420596 10.7503 -0.420596C10.9672 -0.420596 11.1785 -0.379401 11.3788 -0.298207C11.5863 -0.214028 11.7722 -0.0905955 11.9316 0.0688075C12.091 0.22821 12.2145 0.414181 12.2987 0.621644C12.3799 0.821793 12.421 1.03329 12.421 1.25015C12.421 1.46702 12.3799 1.67836 12.2987 1.87866C12.2145 2.08612 12.091 2.27209 11.9316 2.43149L10.0528 4.3103C10.0179 4.34523 9.97716 4.37105 9.93373 4.38776C9.97537 4.58806 9.99672 4.79284 9.99672 5.0003C9.99672 5.09388 9.99239 5.18702 9.98388 5.2794L10.5067 4.75657L12.3816 2.88149C12.6019 2.6612 12.7725 2.40448 12.8884 2.11851C13.0004 1.84209 13.0573 1.55 13.0573 1.2503C13.0573 0.950599 13.0004 0.65836 12.8884 0.382091C12.7721 0.0958222 12.6016 -0.160894 12.3813 -0.381193ZM10.5066 -2.25597C10.5064 -2.25612 10.5064 -2.25612 10.5063 -2.25627L8.63134 -4.13134C8.41105 -4.35164 8.15433 -4.52224 7.86836 -4.63806C7.59194 -4.75015 7.29985 -4.80701 7.00015 -4.80701C6.7003 -4.80701 6.40821 -4.75015 6.13194 -4.63806C5.84597 -4.52209 5.58925 -4.35164 5.36895 -4.13119C5.14866 -3.91089 4.97806 -3.65418 4.86209 -3.36821C4.75 -3.09179 4.69313 -2.7997 4.69313 -2.5C4.69313 -2.20015 4.75 -1.90806 4.86209 -1.63179C4.97806 -1.34597 5.14851 -1.08925 5.36866 -0.868953L5.36881 -0.868804C5.36896 -0.868654 5.36895 -0.868654 5.36895 -0.868505L6.26493 0.0274639C6.28075 0.0386579 6.29582 0.050897 6.31 0.0650761C6.32418 0.0792552 6.33642 0.0943301 6.34761 0.110151L7 0.762538L7.45 0.312538L5.81881 -1.31865C5.6594 -1.47806 5.53597 -1.66403 5.45179 -1.87149C5.3706 -2.07164 5.3294 -2.28313 5.3294 -2.5C5.3294 -2.71686 5.3706 -2.92821 5.45179 -3.12851C5.53597 -3.33597 5.6594 -3.52194 5.81881 -3.68134C5.97821 -3.84074 6.16418 -3.96418 6.37164 -4.04821C6.57179 -4.1294 6.78328 -4.1706 7.00015 -4.1706C7.21701 -4.1706 7.42836 -4.1294 7.62866 -4.04821C7.83612 -3.96403 8.02209 -3.8406 8.18149 -3.68134L10.0603 -1.80254C10.0952 -1.76761 10.1209 -1.72686 10.1378 -1.68358C10.3381 -1.72522 10.5428 -1.74642 10.7503 -1.74642C10.8439 -1.74642 10.937 -1.74209 11.0294 -1.73343L10.5066 -2.25597ZM5.12492 -0.13746L3.49373 1.49373C3.3591 1.62836 3.1409 1.62836 3.00627 1.49373C2.87164 1.35911 2.87164 1.1409 3.00627 1.00627L4.65149 -0.638954C4.51537 -0.810148 4.39925 -0.994774 4.30388 -1.19134L2.55627 0.556271C2.17373 0.938808 2.17373 1.5612 2.55627 1.94373C2.93881 2.32627 3.56119 2.32627 3.94373 1.94373L5.57493 0.312538L5.12492 -0.13746ZM5.61254 3.12508L7.24373 4.75627C7.37836 4.8909 7.37836 5.10911 7.24373 5.24373C7.1091 5.37836 6.89089 5.37836 6.75627 5.24373L5.11104 3.59851C4.93985 3.73463 4.75522 3.85075 4.55866 3.94612L6.30627 5.69373C6.68881 6.07627 7.31119 6.07627 7.69373 5.69373C8.07627 5.3112 8.07627 4.68881 7.69373 4.30627L6.06254 2.67508L5.61254 3.12508ZM6.55 2.18747L8.18119 3.81866C8.3406 3.97806 8.46403 4.16403 8.54821 4.37149C8.6294 4.57164 8.6706 4.78314 8.6706 5C8.6706 5.21687 8.6294 5.42821 8.54821 5.62851C8.46403 5.83597 8.3406 6.02194 8.18119 6.18134C8.02179 6.34075 7.83582 6.46418 7.62836 6.54821C7.42821 6.6294 7.21672 6.6706 6.99985 6.6706C6.78298 6.6706 6.57164 6.6294 6.37134 6.54821C6.16388 6.46403 5.97791 6.3406 5.81851 6.18134L3.9397 4.30254C3.90478 4.26761 3.87896 4.22687 3.86224 4.18343C3.66194 4.22508 3.45716 4.24627 3.2497 4.24627C3.15612 4.24627 3.06299 4.24194 2.9706 4.23329L3.49313 4.75582C3.49328 4.75597 3.49328 4.75597 3.49343 4.75612L5.36836 6.63119C5.58866 6.85149 5.84537 7.02209 6.13134 7.13791C6.40776 7.25 6.69985 7.30687 6.99955 7.30687C7.2994 7.30687 7.59149 7.25 7.86776 7.13791C8.15373 7.02194 8.41045 6.85149 8.63075 6.63105C8.85104 6.41075 9.02164 6.15403 9.13746 5.86806C9.24955 5.59164 9.30642 5.29955 9.30642 4.99985C9.30642 4.7 9.24955 4.40791 9.13746 4.13164C9.02149 3.84567 8.85104 3.58896 8.63075 3.36866L7.73448 2.47239C7.71881 2.4612 7.70358 2.44896 7.6894 2.43493C7.67522 2.4209 7.66299 2.40567 7.65194 2.39L6.9994 1.73746L6.55 2.18747ZM0.887463 6.87508L-0.743731 5.24373C-0.878358 5.10911 -0.878358 4.8909 -0.743731 4.75627C-0.609104 4.62164 -0.390895 4.62164 -0.256269 4.75627L1.38895 6.40149C1.56015 6.26537 1.74478 6.14925 1.94134 6.05388L0.193731 4.30627C-0.188806 3.92373 -0.811194 3.92373 -1.19373 4.30627C-1.57627 4.68881 -1.57627 5.3112 -1.19373 5.69373L0.437462 7.32493L0.887463 6.87508ZM4.11821 6.61194C3.84179 6.49985 3.5497 6.44299 3.25 6.44299C2.9503 6.44299 2.65806 6.49985 2.38179 6.61194C2.09597 6.72791 1.83925 6.89836 1.61895 7.11866L1.61881 7.11881L1.61866 7.11896L0.722537 8.01493C0.711343 8.03075 0.699104 8.04582 0.684925 8.06C0.670746 8.07418 0.655671 8.08642 0.63985 8.09761L-0.0125379 8.75L0.437462 9.2L2.06866 7.56881C2.22806 7.4094 2.41403 7.28597 2.62149 7.20179C2.82164 7.1206 3.03313 7.0794 3.25 7.0794C3.46687 7.0794 3.67821 7.1206 3.87851 7.20179C4.08597 7.28597 4.27194 7.4094 4.43134 7.56881C4.59075 7.72821 4.71418 7.91418 4.79836 8.12164C4.87955 8.32179 4.92075 8.53328 4.92075 8.75015C4.92075 8.96702 4.87955 9.17836 4.79836 9.37866C4.71418 9.58612 4.59075 9.77209 4.43134 9.93149L2.55254 11.81C2.51761 11.8449 2.47687 11.8707 2.43343 11.8875C2.47507 12.0878 2.49642 12.2925 2.49642 12.5C2.49642 12.5936 2.49209 12.6867 2.48343 12.7791L3.00627 12.2563L4.88134 10.3812C5.10164 10.1609 5.27224 9.90418 5.38806 9.61821C5.50015 9.34179 5.55701 9.0497 5.55701 8.75C5.55701 8.4503 5.50015 8.15806 5.38806 7.88179C5.27209 7.59582 5.10164 7.33911 4.88134 7.11881C4.6609 6.89851 4.40418 6.72791 4.11821 6.61194ZM1.37493 10.1375L3.00612 8.50627C3.14075 8.37164 3.35896 8.37164 3.49358 8.50627C3.62821 8.6409 3.62821 8.85911 3.49358 8.99373L1.84851 10.639C1.98463 10.8102 2.10075 10.9948 2.19612 11.1913L3.94373 9.44373C4.32627 9.06119 4.32627 8.43881 3.94373 8.05627C3.56119 7.67373 2.93881 7.67373 2.55627 8.05627L0.924925 9.68746L1.37493 10.1375ZM6.11239 7.86239C6.20134 8.14911 6.24642 8.44657 6.24642 8.75C6.24642 9.05343 6.20134 9.35105 6.11239 9.63776C6.3991 9.54881 6.69657 9.50373 7 9.50373C7.30343 9.50373 7.60104 9.54881 7.88761 9.63776C7.79866 9.35105 7.75358 9.05358 7.75358 8.75C7.75358 8.44657 7.79866 8.14896 7.88761 7.86239C7.60089 7.95134 7.30343 7.99642 7 7.99642C6.69657 7.99642 6.39896 7.9512 6.11239 7.86239ZM8.87492 2.63746L10.5061 1.00627C10.6407 0.871644 10.859 0.871644 10.9936 1.00627C11.1282 1.1409 11.1282 1.35911 10.9936 1.49373L9.34836 3.13896C9.48448 3.31015 9.6006 3.49478 9.69597 3.69134L11.4436 1.94373C11.8261 1.5612 11.8261 0.938808 11.4436 0.556271C11.061 0.173733 10.4387 0.173733 10.0561 0.556271L8.42492 2.18747L8.87492 2.63746ZM8.38746 -0.624924L6.75627 -2.25612C6.62164 -2.39074 6.62164 -2.60895 6.75627 -2.74358C6.89089 -2.87821 7.1091 -2.87821 7.24373 -2.74358L8.88896 -1.09836C9.06015 -1.23448 9.24477 -1.3506 9.44134 -1.44597L7.69373 -3.19358C7.31119 -3.57612 6.68881 -3.57612 6.30627 -3.19358C5.92373 -2.81104 5.92373 -2.18865 6.30627 -1.80612L7.93746 -0.174923L8.38746 -0.624924ZM13.1125 10.6251L14.7437 12.2563C14.8784 12.3909 14.8784 12.6091 14.7437 12.7437C14.6091 12.8784 14.3909 12.8784 14.2563 12.7437L12.611 11.0985C12.4398 11.2346 12.2552 11.3507 12.0587 11.4461L13.8063 13.1937C14.1888 13.5763 14.8112 13.5763 15.1937 13.1937C15.5763 12.8112 15.5763 12.1888 15.1937 11.8063L13.5625 10.1751L13.1125 10.6251ZM0.387611 2.13776C0.298656 1.85105 0.253582 1.55358 0.253582 1.25C0.253582 0.946569 0.298656 0.648957 0.387611 0.36239C0.100895 0.451345 -0.196567 0.49642 -0.5 0.49642C-0.803433 0.49642 -1.10104 0.451345 -1.38761 0.36239C-1.29866 0.649107 -1.25358 0.946569 -1.25358 1.25C-1.25358 1.55343 -1.29866 1.85105 -1.38761 2.13776C-1.1009 2.04881 -0.803433 2.00373 -0.5 2.00373C-0.196567 2.00358 0.101044 2.04881 0.387611 2.13776ZM3.49373 -2.25627L1.61881 -0.381193C1.39851 -0.160894 1.22791 0.0958219 1.11209 0.381792C1 0.65821 0.943134 0.9503 0.943134 1.25C0.943134 1.5497 1 1.84194 1.11209 2.11821C1.22806 2.40418 1.39851 2.6609 1.61881 2.8812C1.8391 3.10149 2.09582 3.27209 2.38179 3.38791C2.65821 3.5 2.9503 3.55687 3.25 3.55687C3.54985 3.55687 3.84194 3.5 4.11821 3.38791C4.40418 3.27194 4.66089 3.10149 4.88119 2.8812L5.77746 1.98493C5.78866 1.96926 5.80089 1.95403 5.81492 1.93985C5.82895 1.92582 5.84418 1.91343 5.86 1.90239L6.51254 1.24985L6.06254 0.799852L4.43134 2.43105C4.27194 2.59045 4.08597 2.71388 3.87851 2.79791C3.67836 2.87911 3.46687 2.9203 3.25 2.9203C3.03313 2.9203 2.82179 2.87911 2.62149 2.79791C2.41403 2.71373 2.22806 2.5903 2.06866 2.4309C1.90925 2.27149 1.78582 2.08552 1.70164 1.87806C1.62045 1.67791 1.57925 1.46642 1.57925 1.24955C1.57925 1.03269 1.62045 0.821345 1.70164 0.621046C1.78582 0.413584 1.90925 0.227613 2.06866 0.0682099L3.94746 -1.8106C3.98239 -1.84552 4.02313 -1.87119 4.06657 -1.88806C4.02493 -2.08836 4.00373 -2.29313 4.00373 -2.5006C4.00373 -2.59418 4.00806 -2.68731 4.01657 -2.7797L3.49373 -2.25627ZM13.6124 0.36239C13.7013 0.649107 13.7464 0.946569 13.7464 1.25C13.7464 1.55343 13.7013 1.85105 13.6124 2.13776C13.8991 2.04881 14.1966 2.00373 14.5 2.00373C14.8034 2.00373 15.101 2.04881 15.3876 2.13776C15.2987 1.85105 15.2536 1.55358 15.2536 1.25C15.2536 0.946569 15.2987 0.648957 15.3876 0.36239C15.1009 0.451345 14.8034 0.49642 14.5 0.49642C14.1966 0.49642 13.899 0.451196 13.6124 0.36239ZM19.0036 12.5C19.0036 12.4064 19.0079 12.3133 19.0164 12.2209L18.4936 12.7437L16.6187 14.6188C16.3984 14.8391 16.2278 15.0958 16.1119 15.3818C15.9999 15.6582 15.943 15.9503 15.943 16.25C15.943 16.5499 15.9999 16.8419 16.1119 17.1182C16.2279 17.4042 16.3984 17.6609 16.6187 17.8812C16.839 18.1015 17.0957 18.2721 17.3816 18.3879C17.6581 18.5 17.9501 18.5569 18.2498 18.5569C18.5496 18.5569 18.8418 18.5 19.1181 18.3879C19.404 18.2719 19.6607 18.1015 19.881 17.8812L20.7773 16.9849C20.7885 16.9693 20.8007 16.954 20.8148 16.94C20.8288 16.926 20.844 16.9136 20.8598 16.9025L21.5124 16.25L21.0624 15.8L19.4312 17.4312C19.2718 17.5906 19.0858 17.714 18.8784 17.7981C18.6782 17.8793 18.4667 17.9204 18.2498 17.9204C18.033 17.9204 17.8216 17.8793 17.6213 17.7981C17.4139 17.7139 17.2279 17.5904 17.0685 17.431C16.9091 17.2716 16.7857 17.0857 16.7015 16.8782C16.6203 16.6781 16.5791 16.4666 16.5791 16.2497C16.5791 16.0328 16.6203 15.8215 16.7015 15.6212C16.7857 15.4137 16.9091 15.2278 17.0685 15.0684L18.9473 13.1896C18.9822 13.1546 19.023 13.129 19.0664 13.1121C19.0248 12.9122 19.0036 12.7075 19.0036 12.5ZM20.1249 14.8625L18.4937 16.4937C18.3591 16.6284 18.1409 16.6284 18.0063 16.4937C17.8716 16.3591 17.8716 16.1409 18.0063 16.0063L19.6515 14.361C19.5154 14.1899 19.3993 14.0052 19.3039 13.8087L17.5563 15.5563C17.1737 15.9388 17.1737 16.5612 17.5563 16.9437C17.9388 17.3263 18.5612 17.3263 18.9437 16.9437L20.5749 15.3125L20.1249 14.8625ZM13.7464 16.25C13.7464 16.5534 13.7013 16.851 13.6124 17.1378C13.8991 17.0488 14.1966 17.0037 14.5 17.0037C14.8034 17.0037 15.101 17.0488 15.3876 17.1378C15.2987 16.851 15.2536 16.5536 15.2536 16.25C15.2536 15.9466 15.2987 15.649 15.3876 15.3624C15.1009 15.4513 14.8034 15.4964 14.5 15.4964C14.1966 15.4964 13.899 15.4513 13.6124 15.3624C13.7012 15.649 13.7464 15.9466 13.7464 16.25ZM10.5066 12.744C10.5064 12.7439 10.5064 12.7439 10.5063 12.7437L8.63134 10.8687C8.41105 10.6484 8.15433 10.4778 7.86836 10.3619C7.59194 10.2499 7.29985 10.193 7.00015 10.193C6.7003 10.193 6.40821 10.2499 6.13194 10.3619C5.84597 10.4779 5.58925 10.6484 5.36895 10.8687C5.14866 11.089 4.97806 11.3457 4.86209 11.6316C4.75 11.9081 4.69313 12.2001 4.69313 12.4999C4.69313 12.7997 4.75 13.0918 4.86209 13.3681C4.97806 13.6539 5.14851 13.9106 5.36866 14.1309L5.36881 14.131C5.36896 14.1312 5.36895 14.1312 5.36895 14.1313L6.26493 15.0273C6.28075 15.0385 6.29582 15.0507 6.31 15.0649C6.32418 15.0791 6.33642 15.0942 6.34761 15.11L7 15.7624L7.45 15.3124L5.81881 13.6813C5.6594 13.5219 5.53597 13.336 5.45179 13.1285C5.3706 12.9284 5.3294 12.7169 5.3294 12.5C5.3294 12.2831 5.3706 12.0718 5.45179 11.8715C5.53597 11.664 5.6594 11.4781 5.81881 11.3187C5.97821 11.1593 6.16418 11.0358 6.37164 10.9516C6.57179 10.8704 6.78328 10.8293 7.00015 10.8293C7.21701 10.8293 7.42836 10.8704 7.62866 10.9516C7.83612 11.0358 8.02209 11.1593 8.18149 11.3187L10.0603 13.1975C10.0952 13.2324 10.1209 13.2731 10.1378 13.3164C10.3381 13.2748 10.5428 13.2536 10.7503 13.2536C10.8439 13.2536 10.937 13.2579 11.0294 13.2666L10.5066 12.744ZM8.38746 14.3751L6.75627 12.7437C6.62164 12.6091 6.62164 12.3909 6.75627 12.2563C6.89089 12.1216 7.1091 12.1216 7.24373 12.2563L8.88896 13.9015C9.06015 13.7654 9.24477 13.6493 9.44134 13.5539L7.69373 11.8063C7.31119 11.4237 6.68881 11.4237 6.30627 11.8063C5.92373 12.1888 5.92373 12.8112 6.30627 13.1937L7.93746 14.8249L8.38746 14.3751ZM11.4437 16.9437C11.8263 16.5612 11.8263 15.9388 11.4437 15.5563C11.0612 15.1737 10.4388 15.1737 10.0563 15.5563L8.42507 17.1875L8.87507 17.6375L10.5063 16.0063C10.6409 15.8716 10.8591 15.8716 10.9937 16.0063C11.1284 16.1409 11.1284 16.3591 10.9937 16.4937L9.34851 18.139C9.48463 18.3101 9.60075 18.4948 9.69612 18.6913L11.4437 16.9437ZM-1.25358 16.25C-1.25358 16.5534 -1.29866 16.851 -1.38761 17.1378C-1.1009 17.0488 -0.803433 17.0037 -0.5 17.0037C-0.196567 17.0037 0.101044 17.0488 0.387611 17.1378C0.298656 16.851 0.253582 16.5536 0.253582 16.25C0.253582 15.9466 0.298656 15.649 0.387611 15.3624C0.100895 15.4513 -0.196567 15.4964 -0.5 15.4964C-0.803433 15.4964 -1.10104 15.4513 -1.38761 15.3624C-1.29881 15.649 -1.25358 15.9466 -1.25358 16.25ZM-6.55687 8.75C-6.55687 9.04985 -6.5 9.34194 -6.38791 9.61821C-6.27194 9.90418 -6.10149 10.1609 -5.88119 10.3812C-5.6609 10.6015 -5.40418 10.7721 -5.11821 10.8879C-4.84179 11 -4.5497 11.0569 -4.25 11.0569C-3.9503 11.0569 -3.65806 11 -3.38179 10.8879C-3.09582 10.7719 -2.8391 10.6015 -2.61881 10.3812L-1.72254 9.48493C-1.71134 9.46925 -1.6991 9.45403 -1.68507 9.43985C-1.67104 9.42582 -1.65582 9.41343 -1.64015 9.40239L-0.987612 8.74985L-1.43761 8.29985L-3.06881 9.9312C-3.22821 10.0906 -3.41418 10.214 -3.62164 10.2981C-3.82179 10.3793 -4.03328 10.4204 -4.25015 10.4204C-4.46701 10.4204 -4.67836 10.3793 -4.87866 10.2981C-5.08612 10.2139 -5.27209 10.0904 -5.43149 9.93105C-5.5909 9.77164 -5.71433 9.58567 -5.79851 9.37821C-5.8797 9.17806 -5.9209 8.96657 -5.9209 8.7497C-5.9209 8.53284 -5.8797 8.32149 -5.79851 8.12119C-5.71433 7.91373 -5.5909 7.72776 -5.43149 7.56836L-3.55269 5.68955C-3.51776 5.65463 -3.47701 5.62896 -3.43358 5.61209C-3.47522 5.41179 -3.49642 5.20702 -3.49642 4.99955C-3.49642 4.90597 -3.49209 4.81284 -3.48358 4.72045L-4.00642 5.24328L-5.88119 7.11881C-6.10149 7.33911 -6.27209 7.59582 -6.38806 7.88179C-6.50015 8.15806 -6.55687 8.45015 -6.55687 8.75ZM-6.12507 2.63746L-4.49388 1.00627C-4.35925 0.871644 -4.14104 0.871644 -4.00642 1.00627C-3.87179 1.1409 -3.87179 1.35911 -4.00642 1.49373L-5.65164 3.13896C-5.51552 3.31015 -5.3994 3.49478 -5.30403 3.69134L-3.55642 1.94373C-3.17388 1.5612 -3.17388 0.938808 -3.55642 0.556271C-3.93896 0.173733 -4.56134 0.173733 -4.94388 0.556271L-6.57507 2.18747L-6.12507 2.63746ZM-3.38179 -0.888058C-3.65821 -1.00015 -3.9503 -1.05701 -4.25 -1.05701C-4.5497 -1.05701 -4.84194 -1.00015 -5.11821 -0.888058C-5.40403 -0.772088 -5.66075 -0.601641 -5.88104 -0.381342L-5.88119 -0.381193L-5.88134 -0.381043L-6.77731 0.514927C-6.78851 0.530748 -6.80075 0.545823 -6.81493 0.560002C-6.8291 0.574181 -6.84418 0.58642 -6.86 0.597614L-7.51239 1.25L-7.06239 1.7L-5.43119 0.0688075C-5.27179 -0.0905955 -5.08582 -0.214028 -4.87836 -0.298207C-4.67821 -0.379401 -4.46672 -0.420596 -4.24985 -0.420596C-4.03299 -0.420596 -3.82164 -0.379401 -3.62134 -0.298207C-3.41388 -0.214028 -3.22791 -0.0905955 -3.06851 0.0688075C-2.9091 0.22821 -2.78567 0.414181 -2.70149 0.621644C-2.6203 0.821793 -2.5791 1.03329 -2.5791 1.25015C-2.5791 1.46702 -2.6203 1.67836 -2.70149 1.87866C-2.78567 2.08612 -2.9091 2.27209 -3.06851 2.43149L-4.94731 4.3103C-4.98224 4.34523 -5.02299 4.37105 -5.06642 4.38776C-5.02478 4.58806 -5.00358 4.79284 -5.00358 5.0003C-5.00358 5.09388 -5.00791 5.18702 -5.01657 5.2794L-4.49373 4.75657L-2.61881 2.88149C-2.39851 2.6612 -2.22791 2.40448 -2.11194 2.11851C-1.99985 1.84209 -1.94299 1.55 -1.94299 1.2503C-1.94299 0.95045 -1.99985 0.65836 -2.11194 0.382091C-2.22791 0.0961207 -2.39836 -0.160596 -2.61866 -0.380894C-2.8391 -0.601491 -3.09582 -0.772088 -3.38179 -0.888058ZM-4.94373 -6.94373C-5.32627 -6.56119 -5.32627 -5.9388 -4.94373 -5.55627C-4.56119 -5.17373 -3.93881 -5.17373 -3.55627 -5.55627L-1.92507 -7.18746L-2.37507 -7.63746L-4.00627 -6.00627C-4.1409 -5.87164 -4.3591 -5.87164 -4.49373 -6.00627C-4.62836 -6.14089 -4.62836 -6.3591 -4.49373 -6.49373L-2.84851 -8.13895C-2.98463 -8.31015 -3.10075 -8.49477 -3.19612 -8.69134L-4.94373 -6.94373ZM4.11821 -8.38806C3.84179 -8.50015 3.5497 -8.55701 3.25 -8.55701C2.9503 -8.55701 2.65806 -8.50015 2.38179 -8.38806C2.09597 -8.27209 1.83925 -8.10164 1.61895 -7.88134L1.61881 -7.88119L1.61866 -7.88104L0.722537 -6.98507C0.711343 -6.96925 0.699104 -6.95418 0.684925 -6.94C0.670746 -6.92582 0.655671 -6.91358 0.63985 -6.90239L-0.0125379 -6.25L0.437462 -5.8L2.06866 -7.43119C2.22806 -7.59059 2.41403 -7.71403 2.62149 -7.79821C2.82164 -7.8794 3.03313 -7.9206 3.25 -7.9206C3.46687 -7.9206 3.67821 -7.8794 3.87851 -7.79821C4.08597 -7.71403 4.27194 -7.59059 4.43134 -7.43119C4.59075 -7.27179 4.71418 -7.08582 4.79836 -6.87836C4.87955 -6.67821 4.92075 -6.46671 4.92075 -6.24985C4.92075 -6.03298 4.87955 -5.82164 4.79836 -5.62134C4.71418 -5.41388 4.59075 -5.22791 4.43134 -5.0685L2.55254 -3.1897C2.51761 -3.15477 2.47687 -3.12895 2.43343 -3.11224C2.47507 -2.91194 2.49642 -2.70716 2.49642 -2.4997C2.49642 -2.40612 2.49209 -2.31298 2.48343 -2.2206L3.00627 -2.74343L4.88134 -4.61836C5.10164 -4.83866 5.27224 -5.09537 5.38806 -5.38134C5.50015 -5.65776 5.55701 -5.94985 5.55701 -6.24955C5.55701 -6.54925 5.50015 -6.84149 5.38806 -7.11776C5.27209 -7.40373 5.10164 -7.66045 4.88134 -7.88074C4.6609 -8.10149 4.40418 -8.27209 4.11821 -8.38806ZM7.75358 -6.25C7.75358 -6.55343 7.79866 -6.85104 7.88761 -7.13761C7.60089 -7.04865 7.30343 -7.00358 7 -7.00358C6.69657 -7.00358 6.39896 -7.04865 6.11239 -7.13761C6.20134 -6.85089 6.24642 -6.55343 6.24642 -6.25C6.24642 -5.94656 6.20134 -5.64895 6.11239 -5.36224C6.3991 -5.45119 6.69657 -5.49627 7 -5.49627C7.30343 -5.49627 7.60104 -5.45104 7.88761 -5.36224C7.79881 -5.64895 7.75358 -5.94656 7.75358 -6.25ZM10.0563 -6.94373C9.67373 -6.56119 9.67373 -5.9388 10.0563 -5.55627C10.4388 -5.17373 11.0612 -5.17373 11.4437 -5.55627L13.0749 -7.18746L12.6249 -7.63746L10.9937 -6.00627C10.8591 -5.87164 10.6409 -5.87164 10.5063 -6.00627C10.3716 -6.14089 10.3716 -6.3591 10.5063 -6.49373L12.1515 -8.13895C12.0154 -8.31015 11.8993 -8.49477 11.8039 -8.69134L10.0563 -6.94373ZM20.5569 -6.25C20.5569 -6.54985 20.5 -6.84194 20.3879 -7.11821C20.2719 -7.40418 20.1015 -7.66089 19.8812 -7.88119C19.6609 -8.10149 19.4042 -8.27209 19.1182 -8.38806C18.8418 -8.50015 18.5497 -8.55701 18.25 -8.55701C17.9503 -8.55701 17.6581 -8.50015 17.3818 -8.38806C17.096 -8.27209 16.8393 -8.10164 16.619 -7.88134L16.6188 -7.88119L16.6187 -7.88104L15.7227 -6.98507C15.7115 -6.96925 15.6993 -6.95418 15.6851 -6.94C15.6709 -6.92582 15.6558 -6.91358 15.64 -6.90239L14.9876 -6.25L15.4376 -5.8L17.0688 -7.43119C17.2282 -7.59059 17.4142 -7.71403 17.6216 -7.79821C17.8218 -7.8794 18.0333 -7.9206 18.2501 -7.9206C18.467 -7.9206 18.6784 -7.8794 18.8787 -7.79821C19.0861 -7.71403 19.2721 -7.59059 19.4315 -7.43119C19.5909 -7.27179 19.7143 -7.08582 19.7985 -6.87836C19.8797 -6.67821 19.9209 -6.46671 19.9209 -6.24985C19.9209 -6.03298 19.8797 -5.82164 19.7985 -5.62134C19.7143 -5.41388 19.5909 -5.22791 19.4315 -5.0685L17.5527 -3.1897C17.5178 -3.15477 17.477 -3.12895 17.4336 -3.11224C17.4752 -2.91194 17.4964 -2.70716 17.4964 -2.4997C17.4964 -2.40612 17.4921 -2.31298 17.4836 -2.2206L18.0064 -2.74343L19.8813 -4.61836C20.1016 -4.83866 20.2722 -5.09537 20.3881 -5.38134C20.5001 -5.65806 20.5569 -5.95015 20.5569 -6.25ZM19.0036 -2.5C19.0036 -2.59358 19.0079 -2.68671 19.0164 -2.7791L18.4936 -2.25627L16.6187 -0.381193C16.3984 -0.160894 16.2278 0.0958219 16.1119 0.381792C15.9999 0.65821 15.943 0.9503 15.943 1.25C15.943 1.5497 15.9999 1.84194 16.1119 2.11821C16.2279 2.40418 16.3984 2.6609 16.6187 2.8812C16.839 3.10149 17.0957 3.27209 17.3816 3.38791C17.6581 3.5 17.9501 3.55687 18.2498 3.55687C18.5496 3.55687 18.8418 3.5 19.1181 3.38791C19.404 3.27194 19.6607 3.10149 19.881 2.8812L20.7773 1.98493C20.7885 1.96926 20.8007 1.95403 20.8148 1.93985C20.8288 1.92582 20.844 1.91343 20.8598 1.90239L21.5124 1.24985L21.0624 0.799852L19.4312 2.43105C19.2718 2.59045 19.0858 2.71388 18.8784 2.79791C18.6782 2.87911 18.4667 2.9203 18.2498 2.9203C18.033 2.9203 17.8216 2.87911 17.6213 2.79791C17.4139 2.71373 17.2279 2.5903 17.0685 2.4309C16.9091 2.27149 16.7857 2.08552 16.7015 1.87806C16.6203 1.67791 16.5791 1.46642 16.5791 1.24955C16.5791 1.03269 16.6203 0.821345 16.7015 0.621046C16.7857 0.413584 16.9091 0.227613 17.0685 0.0682099L18.9473 -1.8106C18.9822 -1.84552 19.023 -1.87119 19.0664 -1.88806C19.0248 -2.08776 19.0036 -2.29254 19.0036 -2.5ZM20.1249 -0.13746L18.4937 1.49373C18.3591 1.62836 18.1409 1.62836 18.0063 1.49373C17.8716 1.35911 17.8716 1.1409 18.0063 1.00627L19.6515 -0.638954C19.5154 -0.810148 19.3993 -0.994774 19.3039 -1.19134L17.5563 0.556271C17.1737 0.938808 17.1737 1.5612 17.5563 1.94373C17.9388 2.32627 18.5612 2.32627 18.9437 1.94373L20.5749 0.312538L20.1249 -0.13746ZM20.5569 8.75C20.5569 8.45015 20.5 8.15806 20.3879 7.88179C20.2719 7.59582 20.1015 7.33911 19.8812 7.11881C19.6609 6.89851 19.4042 6.72791 19.1182 6.61194C18.8418 6.49985 18.5497 6.44299 18.25 6.44299C17.9503 6.44299 17.6581 6.49985 17.3818 6.61194C17.096 6.72791 16.8393 6.89836 16.619 7.11866L16.6188 7.11881L16.6187 7.11896L15.7225 8.01493C15.7113 8.03075 15.6991 8.04582 15.6849 8.06C15.6707 8.07418 15.6557 8.08642 15.6399 8.09761L14.9875 8.75L15.4375 9.2L17.0687 7.56881C17.2281 7.4094 17.414 7.28597 17.6215 7.20179C17.8216 7.1206 18.0331 7.0794 18.25 7.0794C18.4669 7.0794 18.6782 7.1206 18.8785 7.20179C19.086 7.28597 19.2719 7.4094 19.4313 7.56881C19.5907 7.72821 19.7142 7.91418 19.7984 8.12164C19.8796 8.32179 19.9207 8.53328 19.9207 8.75015C19.9207 8.96702 19.8796 9.17836 19.7984 9.37866C19.7142 9.58612 19.5907 9.77209 19.4313 9.93149L17.5525 11.8103C17.5176 11.8452 17.4769 11.871 17.4334 11.8878C17.4751 12.0881 17.4963 12.2928 17.4963 12.5003C17.4963 12.5939 17.4919 12.687 17.4834 12.7794L18.0063 12.2566L19.8812 10.3815C20.1015 10.1612 20.2721 9.90448 20.3879 9.61851C20.5001 9.34194 20.5569 9.04985 20.5569 8.75Z"
            fill="black" />
    </g>
</svg>
