<svg width="12" height="12" viewBox="0 0 12 12" fill="none" xmlns="http://www.w3.org/2000/svg">
    <mask id="mask0_64_6726" style="mask-type:alpha" maskUnits="userSpaceOnUse" x="0" y="0"
        width="12" height="12">
        <rect width="12" height="12" fill="white" />
    </mask>
    <g mask="url(#mask0_64_6726)">
        <path d="M2.5 3.25003C0.772667 1.5227 -2.02267 1.5227 -3.75 3.25003" stroke="black"
            stroke-width="0.5" stroke-miterlimit="10" stroke-linecap="round" />
        <path d="M1.87488 3.875C0.492878 2.493 -1.74312 2.493 -3.12512 3.875" stroke="black"
            stroke-width="0.5" stroke-miterlimit="10" stroke-linecap="round" />
        <path d="M1.25 4.5C0.213666 3.46366 -1.46367 3.46366 -2.5 4.5" stroke="black"
            stroke-width="0.5" stroke-miterlimit="10" stroke-linecap="round" />
        <path d="M0.625 5.12503C-0.0660001 4.43403 -1.184 4.43403 -1.875 5.12503" stroke="black"
            stroke-width="0.5" stroke-miterlimit="10" stroke-linecap="round" />
        <path d="M0.000121996 5.75003C-0.345211 5.40469 -0.904545 5.40469 -1.24988 5.75003"
            stroke="black" stroke-width="0.5" stroke-miterlimit="10" stroke-linecap="round" />
        <path d="M-1.24988 2L0.000121996 0.75" stroke="black" stroke-width="0.5"
            stroke-miterlimit="10" stroke-linecap="round" />
        <path d="M0 2L0.625 1.375" stroke="black" stroke-width="0.5" stroke-miterlimit="10"
            stroke-linecap="round" />
        <path d="M0.990356 2.2597L1.25002 2.00003" stroke="black" stroke-width="0.5"
            stroke-miterlimit="10" stroke-linecap="round" />
        <path d="M2.50009 3.25C0.772756 1.52267 0.772756 -1.27267 2.50009 -3" stroke="black"
            stroke-width="0.5" stroke-miterlimit="10" stroke-linecap="round" />
        <path d="M3.125 2.625C1.743 1.243 1.743 -0.993 3.125 -2.375" stroke="black"
            stroke-width="0.5" stroke-miterlimit="10" stroke-linecap="round" />
        <path d="M3.75003 2C2.7137 0.963666 2.7137 -0.713667 3.75003 -1.75" stroke="black"
            stroke-width="0.5" stroke-miterlimit="10" stroke-linecap="round" />
        <path d="M4.37506 1.375C3.68406 0.684 3.68406 -0.434 4.37506 -1.125" stroke="black"
            stroke-width="0.5" stroke-miterlimit="10" stroke-linecap="round" />
        <path d="M4.99997 0.75C4.65463 0.404667 4.65463 -0.154667 4.99997 -0.5" stroke="black"
            stroke-width="0.5" stroke-miterlimit="10" stroke-linecap="round" />
        <path d="M5.625 0.125L8.75 -3" stroke="black" stroke-width="0.5" stroke-miterlimit="10"
            stroke-linecap="round" />
        <path d="M5.625 -6.125L-0.625 0.125" stroke="black" stroke-width="0.5"
            stroke-miterlimit="10" stroke-linecap="round" />
        <path d="M1.25 -0.5L0 0.75" stroke="black" stroke-width="0.5" stroke-miterlimit="10"
            stroke-linecap="round" />
        <path d="M1.25 0.75L0.625 1.375" stroke="black" stroke-width="0.5" stroke-miterlimit="10"
            stroke-linecap="round" />
        <path d="M1.50967 1.74033L1.25 1.99999" stroke="black" stroke-width="0.5"
            stroke-miterlimit="10" stroke-linecap="round" />
        <path d="M2.5 15.75C4.22733 14.0227 4.22733 11.2273 2.5 9.5" stroke="black"
            stroke-width="0.5" stroke-miterlimit="10" stroke-linecap="round" />
        <path d="M1.875 15.125C3.25667 13.7433 3.25667 11.507 1.875 10.125" stroke="black"
            stroke-width="0.5" stroke-miterlimit="10" stroke-linecap="round" />
        <path d="M1.25 14.5C2.28633 13.4637 2.28633 11.7863 1.25 10.75" stroke="black"
            stroke-width="0.5" stroke-miterlimit="10" stroke-linecap="round" />
        <path d="M0.625 13.875C1.316 13.184 1.316 12.066 0.625 11.375" stroke="black"
            stroke-width="0.5" stroke-miterlimit="10" stroke-linecap="round" />
        <path d="M0 13.25C0.345333 12.9047 0.345333 12.3453 0 12" stroke="black" stroke-width="0.5"
            stroke-miterlimit="10" stroke-linecap="round" />
        <path d="M2.50009 3.25C0.772756 4.97733 0.772756 7.77267 2.50009 9.5" stroke="black"
            stroke-width="0.5" stroke-miterlimit="10" stroke-linecap="round" />
        <path d="M3.125 3.87503C1.743 5.25703 1.743 7.49336 3.125 8.87503" stroke="black"
            stroke-width="0.5" stroke-miterlimit="10" stroke-linecap="round" />
        <path d="M3.75003 4.5C2.7137 5.53633 2.7137 7.21367 3.75003 8.25" stroke="black"
            stroke-width="0.5" stroke-miterlimit="10" stroke-linecap="round" />
        <path d="M4.37506 5.12497C3.68406 5.81597 3.68406 6.93397 4.37506 7.62497" stroke="black"
            stroke-width="0.5" stroke-miterlimit="10" stroke-linecap="round" />
        <path d="M4.99997 5.74997C4.65463 6.0953 4.65463 6.65464 4.99997 6.99997" stroke="black"
            stroke-width="0.5" stroke-miterlimit="10" stroke-linecap="round" />
        <path d="M5 7L8.125 10.125" stroke="black" stroke-width="0.5" stroke-miterlimit="10"
            stroke-linecap="round" />
        <path d="M5.625 6.375L8.75 9.5" stroke="black" stroke-width="0.5" stroke-miterlimit="10"
            stroke-linecap="round" />
        <path d="M4.375 7.625L7.5 10.75" stroke="black" stroke-width="0.5" stroke-miterlimit="10"
            stroke-linecap="round" />
        <path d="M3.74988 8.25L6.87488 11.375" stroke="black" stroke-width="0.5"
            stroke-miterlimit="10" stroke-linecap="round" />
        <path d="M3.125 8.875L6.25 12" stroke="black" stroke-width="0.5" stroke-miterlimit="10"
            stroke-linecap="round" />
        <path d="M1.87512 10.125L-1.24988 7" stroke="black" stroke-width="0.5"
            stroke-miterlimit="10" stroke-linecap="round" />
        <path d="M-0.000121907 12L-3.12512 8.875" stroke="black" stroke-width="0.5"
            stroke-miterlimit="10" stroke-linecap="round" />
        <path d="M0.625 11.375L-2.5 8.25" stroke="black" stroke-width="0.5" stroke-miterlimit="10"
            stroke-linecap="round" />
        <path d="M1.25 10.75L-1.875 7.625" stroke="black" stroke-width="0.5" stroke-miterlimit="10"
            stroke-linecap="round" />
        <path d="M5.625 12.625L-0.625 6.375" stroke="black" stroke-width="0.5"
            stroke-miterlimit="10" stroke-linecap="round" />
        <path d="M1.25 6.99997L0 5.74997" stroke="black" stroke-width="0.5" stroke-miterlimit="10"
            stroke-linecap="round" />
        <path d="M1.25 5.74997L0.625 5.12497" stroke="black" stroke-width="0.5"
            stroke-miterlimit="10" stroke-linecap="round" />
        <path d="M3.74988 12L4.99988 13.25" stroke="black" stroke-width="0.5" stroke-miterlimit="10"
            stroke-linecap="round" />
        <path d="M1.50967 4.75967L1.25 4.5" stroke="black" stroke-width="0.5" stroke-miterlimit="10"
            stroke-linecap="round" />
        <path d="M8.75009 -3C7.02276 -1.27267 7.02276 1.52267 8.75009 3.25" stroke="black"
            stroke-width="0.5" stroke-miterlimit="10" stroke-linecap="round" />
        <path d="M9.37488 -2.375C7.99288 -0.993 7.99288 1.243 9.37488 2.625" stroke="black"
            stroke-width="0.5" stroke-miterlimit="10" stroke-linecap="round" />
        <path d="M10 -1.75C8.9637 -0.713667 8.9637 0.963666 10 2" stroke="black" stroke-width="0.5"
            stroke-miterlimit="10" stroke-linecap="round" />
        <path d="M10.6249 -1.125C9.93394 -0.434 9.93394 0.684 10.6249 1.375" stroke="black"
            stroke-width="0.5" stroke-miterlimit="10" stroke-linecap="round" />
        <path d="M11.2501 -0.5C10.9048 -0.154667 10.9048 0.404667 11.2501 0.75" stroke="black"
            stroke-width="0.5" stroke-miterlimit="10" stroke-linecap="round" />
        <path d="M8.75 9.50003C10.4773 7.7727 10.4773 4.97736 8.75 3.25003" stroke="black"
            stroke-width="0.5" stroke-miterlimit="10" stroke-linecap="round" />
        <path d="M8.125 8.87506C9.50667 7.49339 9.50667 5.25706 8.125 3.87506" stroke="black"
            stroke-width="0.5" stroke-miterlimit="10" stroke-linecap="round" />
        <path d="M7.5 8.25003C8.53633 7.2137 8.53633 5.53636 7.5 4.50003" stroke="black"
            stroke-width="0.5" stroke-miterlimit="10" stroke-linecap="round" />
        <path d="M6.875 7.625C7.566 6.934 7.566 5.816 6.875 5.125" stroke="black" stroke-width="0.5"
            stroke-miterlimit="10" stroke-linecap="round" />
        <path d="M6.25 7C6.59533 6.65467 6.59533 6.09533 6.25 5.75" stroke="black"
            stroke-width="0.5" stroke-miterlimit="10" stroke-linecap="round" />
        <path d="M6.25 5.75L3.125 2.625" stroke="black" stroke-width="0.5" stroke-miterlimit="10"
            stroke-linecap="round" />
        <path d="M5.625 6.37503L2.5 3.25003" stroke="black" stroke-width="0.5"
            stroke-miterlimit="10" stroke-linecap="round" />
        <path d="M6.87488 5.12503L3.74988 2.00003" stroke="black" stroke-width="0.5"
            stroke-miterlimit="10" stroke-linecap="round" />
        <path d="M7.5 4.5L4.375 1.375" stroke="black" stroke-width="0.5" stroke-miterlimit="10"
            stroke-linecap="round" />
        <path d="M8.125 3.875L5 0.75" stroke="black" stroke-width="0.5" stroke-miterlimit="10"
            stroke-linecap="round" />
        <path d="M9.375 2.625L12.5 5.75" stroke="black" stroke-width="0.5" stroke-miterlimit="10"
            stroke-linecap="round" />
        <path d="M11.25 0.75L14.375 3.875" stroke="black" stroke-width="0.5" stroke-miterlimit="10"
            stroke-linecap="round" />
        <path d="M11.875 0.125L15 3.25" stroke="black" stroke-width="0.5" stroke-miterlimit="10"
            stroke-linecap="round" />
        <path d="M10.625 1.375L13.75 4.5" stroke="black" stroke-width="0.5" stroke-miterlimit="10"
            stroke-linecap="round" />
        <path d="M10 2.00003L13.125 5.12503" stroke="black" stroke-width="0.5"
            stroke-miterlimit="10" stroke-linecap="round" />
        <path d="M5.625 0.125L11.875 6.375" stroke="black" stroke-width="0.5" stroke-miterlimit="10"
            stroke-linecap="round" />
        <path d="M10 5.75L11.25 7" stroke="black" stroke-width="0.5" stroke-miterlimit="10"
            stroke-linecap="round" />
        <path d="M10 7L10.625 7.625" stroke="black" stroke-width="0.5" stroke-miterlimit="10"
            stroke-linecap="round" />
        <path d="M7.5 0.75L6.25 -0.5" stroke="black" stroke-width="0.5" stroke-miterlimit="10"
            stroke-linecap="round" />
        <path d="M9.74036 7.99036L10 8.25002" stroke="black" stroke-width="0.5"
            stroke-miterlimit="10" stroke-linecap="round" />
        <path d="M11.875 0.125L15 3.25" stroke="black" stroke-width="0.5" stroke-miterlimit="10"
            stroke-linecap="round" />
        <path d="M11.875 -6.125L18.125 0.125" stroke="black" stroke-width="0.5"
            stroke-miterlimit="10" stroke-linecap="round" />
        <path d="M8.75 9.5C10.4773 11.2273 10.4773 14.0227 8.75 15.75" stroke="black"
            stroke-width="0.5" stroke-miterlimit="10" stroke-linecap="round" />
        <path d="M8.125 10.125C9.50667 11.507 9.50667 13.7433 8.125 15.125" stroke="black"
            stroke-width="0.5" stroke-miterlimit="10" stroke-linecap="round" />
        <path d="M7.5 10.75C8.53633 11.7863 8.53633 13.4637 7.5 14.5" stroke="black"
            stroke-width="0.5" stroke-miterlimit="10" stroke-linecap="round" />
        <path d="M6.875 11.375C7.566 12.066 7.566 13.184 6.875 13.875" stroke="black"
            stroke-width="0.5" stroke-miterlimit="10" stroke-linecap="round" />
        <path d="M6.25 12C6.59533 12.3453 6.59533 12.9047 6.25 13.25" stroke="black"
            stroke-width="0.5" stroke-miterlimit="10" stroke-linecap="round" />
        <path d="M10 13.25L11.25 12" stroke="black" stroke-width="0.5" stroke-miterlimit="10"
            stroke-linecap="round" />
        <path d="M10 12L10.625 11.375" stroke="black" stroke-width="0.5" stroke-miterlimit="10"
            stroke-linecap="round" />
        <path d="M9.74036 11.0097L10 10.75" stroke="black" stroke-width="0.5" stroke-miterlimit="10"
            stroke-linecap="round" />
        <path d="M8.75 9.5C10.4773 11.2273 13.2727 11.2273 15 9.5" stroke="black" stroke-width="0.5"
            stroke-miterlimit="10" stroke-linecap="round" />
        <path d="M9.375 8.875C10.7567 10.257 12.993 10.257 14.375 8.875" stroke="black"
            stroke-width="0.5" stroke-miterlimit="10" stroke-linecap="round" />
        <path d="M10 8.25C11.0363 9.28633 12.7137 9.28633 13.75 8.25" stroke="black"
            stroke-width="0.5" stroke-miterlimit="10" stroke-linecap="round" />
        <path d="M10.6251 7.625C11.3161 8.316 12.4341 8.316 13.1251 7.625" stroke="black"
            stroke-width="0.5" stroke-miterlimit="10" stroke-linecap="round" />
        <path d="M11.25 7C11.5953 7.34533 12.1547 7.34533 12.5 7" stroke="black" stroke-width="0.5"
            stroke-miterlimit="10" stroke-linecap="round" />
        <path d="M11.875 6.375L15 3.25" stroke="black" stroke-width="0.5" stroke-miterlimit="10"
            stroke-linecap="round" />
        <path d="M11.875 12.625L18.125 6.375" stroke="black" stroke-width="0.5"
            stroke-miterlimit="10" stroke-linecap="round" />
        <path d="M12.5 10.75L11.25 12" stroke="black" stroke-width="0.5" stroke-miterlimit="10"
            stroke-linecap="round" />
        <path d="M11.2501 10.75L10.6251 11.375" stroke="black" stroke-width="0.5"
            stroke-miterlimit="10" stroke-linecap="round" />
        <path d="M10.2597 10.4903L10 10.75" stroke="black" stroke-width="0.5" stroke-miterlimit="10"
            stroke-linecap="round" />
    </g>
</svg>
