<svg width="12" height="12" viewBox="0 0 12 12" fill="none" xmlns="http://www.w3.org/2000/svg">
    <g clip-path="url(#clip0_64_9528)">
        <path
            d="M2.16663 6.35188L0.249964 5.2567L-1.6667 6.35188L-3.64087 5.22373V2.96666L-1.7242 1.87148V-0.318887L0.249964 -1.44704L2.22413 -0.318887V1.87148L4.1408 2.96666V5.22373L2.16663 6.35188ZM-3.52587 5.15703L-1.6667 6.21925L0.249964 5.12406L2.16663 6.21925L4.0258 5.15703V3.03336L2.10913 1.93818V-0.252187L0.249964 -1.31479L-1.6092 -0.252569V1.9378L-3.52587 3.03298V5.15703Z"
            fill="black" />
        <path
            d="M1.5532 2.26093V0.95338L1.05487 0.668564V2.54996L2.16615 3.18515L2.97154 3.64515V4.54521L1.66437 5.29233L2.16654 5.57945L3.46987 4.83463V3.35611L1.5532 2.26093Z"
            fill="black" />
        <path
            d="M1.89594 4.85074L0.249907 3.91004L-1.66676 5.00522L-2.47176 4.54522V3.0713L-2.97009 3.35612V4.83464L-1.66676 5.57945L0.249907 4.48389L1.39377 5.13786L1.89594 4.85074Z"
            fill="black" />
        <path
            d="M-2.20337 3.49186L-0.555036 2.55001V0.359258L0.249964 -0.100742L1.5533 0.644074V0.0702253L0.249964 -0.674591L-1.05337 0.0702253V2.26097L-2.20337 2.91801V3.49186Z"
            fill="black" />
        <path
            d="M2.16663 12.9234L0.249964 11.8282L-1.6667 12.9234L-3.64087 11.7952V9.53814L-1.7242 8.44295V6.25259L0.249964 5.12444L2.22413 6.25259V8.44295L4.1408 9.53814V11.7952L2.16663 12.9234ZM-3.52587 11.7285L-1.6667 12.7907L0.249964 11.6955L2.16663 12.7907L4.0258 11.7285V9.60484L2.10913 8.50965V6.31929L0.249964 5.25669L-1.6092 6.3189V8.50927L-3.52587 9.60445V11.7285Z"
            fill="black" />
        <path
            d="M1.5532 8.83201V7.52446L1.05487 7.24002V9.12142L2.16615 9.75661L2.97154 10.2166V11.1167L1.66437 11.8638L2.16654 12.1505L3.46987 11.4061V9.92719L1.5532 8.83201Z"
            fill="black" />
        <path
            d="M1.89594 11.4222L0.249907 10.4815L-1.66676 11.5767L-2.47176 11.1167V9.64276L-2.97009 9.9272V11.4061L-1.66676 12.1505L0.249907 11.0553L1.39377 11.7093L1.89594 11.4222Z"
            fill="black" />
        <path
            d="M-2.20337 10.0633L-0.555036 9.12142V6.93067L0.249964 6.47067L1.5533 7.21549V6.64164L0.249964 5.89682L-1.05337 6.64164V8.832L-2.20337 9.48942V10.0633Z"
            fill="black" />
        <path
            d="M2.16663 19.4948L0.249964 18.3996L-1.6667 19.4948L-3.64087 18.3667V16.1096L-1.7242 15.0144V12.824L0.249964 11.6959L2.22413 12.824V15.0144L4.1408 16.1096V18.3667L2.16663 19.4948ZM-3.52587 18.3L-1.6667 19.3622L0.249964 18.267L2.16663 19.3622L4.0258 18.3V16.1763L2.10913 15.0811V12.8907L0.249964 11.8281L-1.6092 12.8904V15.0807L-3.52587 16.1759V18.3Z"
            fill="black" />
        <path
            d="M7.91663 3.0663L5.99996 1.97112L4.0833 3.0663L2.10913 1.93815V-0.318918L4.0258 -1.4141V-3.60485L5.99996 -4.733L7.97413 -3.60485V-1.41448L9.8908 -0.319302V1.93777L7.91663 3.0663ZM2.22413 1.87145L4.0833 2.93367L5.99996 1.83848L7.91663 2.93367L9.7758 1.87145V-0.252218L7.85913 -1.3474V-3.53777L5.99996 -4.60037L4.1408 -3.53815V-1.34778L2.22413 -0.2526V1.87145Z"
            fill="black" />
        <path
            d="M7.3032 -1.02503V-2.33258L6.80487 -2.6174V-0.736L7.91615 -0.100818L8.72154 0.359566V1.25963L7.41437 2.00675L7.91654 2.29348L9.21987 1.54867V0.0701495L7.3032 -1.02503Z"
            fill="black" />
        <path
            d="M7.64594 1.56516L5.99991 0.624457L4.08324 1.71964L3.27824 1.25964V-0.214661L2.77991 0.0701557V1.54867L4.08324 2.29349L5.99991 1.19831L7.14378 1.85189L7.64594 1.56516Z"
            fill="black" />
        <path
            d="M3.54663 0.206245L5.19496 -0.735988V-2.92636L5.99996 -3.38636L7.3033 -2.64154V-3.21539L5.99996 -3.96021L4.69663 -3.21539V-1.02502L3.54663 -0.367988V0.206245Z"
            fill="black" />
        <path
            d="M7.91663 9.63783L5.99996 8.54265L4.0833 9.63783L2.10913 8.50968V6.25261L4.0258 5.15743V2.96706L5.99996 1.83853L7.97413 2.96668V5.15705L9.8908 6.25223V8.5093L7.91663 9.63783ZM2.22413 8.44298L4.0833 9.5052L5.99996 8.41001L7.91663 9.5052L9.7758 8.44298V6.31932L7.85913 5.22413V3.03376L5.99996 1.97116L4.1408 3.03338V5.22375L2.22413 6.31893V8.44298Z"
            fill="black" />
        <path
            d="M7.3032 5.54648V4.23893L6.80487 3.95412V5.83551L7.91615 6.4707L8.72154 6.9307V7.83115L7.41437 8.57788L7.91654 8.865L9.21987 8.12018V6.64167L7.3032 5.54648Z"
            fill="black" />
        <path
            d="M7.64594 8.13667L5.99991 7.19597L4.08324 8.29116L3.27824 7.83116V6.35686L2.77991 6.64167V8.12019L4.08324 8.86501L5.99991 7.76982L7.14378 8.42341L7.64594 8.13667Z"
            fill="black" />
        <path
            d="M3.54663 6.77739L5.19496 5.83554V3.64518L5.99996 3.18518L7.3033 3.93V3.35576L5.99996 2.61133L4.69663 3.35576V5.54651L3.54663 6.20355V6.77739Z"
            fill="black" />
        <path
            d="M7.91663 16.2093L5.99996 15.1141L4.0833 16.2093L2.10913 15.0812V12.8241L4.0258 11.7289V9.53855L5.99996 8.4104L7.97413 9.53855V11.7289L9.8908 12.8241V15.0812L7.91663 16.2093ZM5.99996 14.9815L7.91663 16.0767L9.7758 15.0145V12.8908L7.85913 11.7956V9.60487L5.99996 8.54265L4.1408 9.60487V11.7952L2.22413 12.8904V15.0141L4.0833 16.0763L5.99996 14.9815Z"
            fill="black" />
        <path
            d="M7.3032 12.118V10.8105L6.80487 10.5256V12.407L7.91615 13.0422L8.72154 13.5022V14.4027L7.41437 15.1494L7.91654 15.4365L9.21987 14.6917V13.2132L7.3032 12.118Z"
            fill="black" />
        <path
            d="M3.54663 13.3489L5.19496 12.407V10.2167L5.99996 9.75667L7.3033 10.5015V9.92725L5.99996 9.18243L4.69663 9.92725V12.118L3.54663 12.775V13.3489Z"
            fill="black" />
        <path
            d="M13.6666 6.35188L11.75 5.2567L9.8333 6.35188L7.85913 5.22373V2.96666L9.7758 1.87148V-0.318887L11.75 -1.44704L13.7241 -0.318887V1.87148L15.6408 2.96666V5.22373L13.6666 6.35188ZM7.97413 5.15703L9.8333 6.21925L11.75 5.12406L13.6666 6.21925L15.5258 5.15703V3.03336L13.6091 1.93818V-0.252187L11.75 -1.31479L9.8908 -0.252569V1.9378L7.97413 3.03298V5.15703Z"
            fill="black" />
        <path
            d="M13.3959 4.85074L11.7499 3.91004L9.83324 5.00522L9.02824 4.54522V3.0713L8.52991 3.35612V4.83464L9.83324 5.57945L11.7499 4.48389L12.8938 5.13786L13.3959 4.85074Z"
            fill="black" />
        <path
            d="M9.29663 3.49186L10.945 2.55001V0.359258L11.75 -0.100742L13.0533 0.644074V0.0702253L11.75 -0.674591L10.4466 0.0702253V2.26097L9.29663 2.91801V3.49186Z"
            fill="black" />
        <path
            d="M13.6666 12.9234L11.75 11.8282L9.8333 12.9234L7.85913 11.7952V9.53814L9.7758 8.44295V6.25259L11.75 5.12444L13.7241 6.25259V8.44295L15.6408 9.53814V11.7952L13.6666 12.9234ZM7.97413 11.7285L9.8333 12.7907L11.75 11.6955L13.6666 12.7907L15.5258 11.7285V9.60484L13.6091 8.50965V6.31929L11.75 5.25669L9.8908 6.3189V8.50927L7.97413 9.60445V11.7285Z"
            fill="black" />
        <path
            d="M13.3959 11.4222L11.7499 10.4815L9.83324 11.5767L9.02824 11.1167V9.64276L8.52991 9.9272V11.4061L9.83324 12.1505L11.7499 11.0553L12.8938 11.7093L13.3959 11.4222Z"
            fill="black" />
        <path
            d="M9.29663 10.0633L10.945 9.12142V6.93067L11.75 6.47067L13.0533 7.21549V6.64164L11.75 5.89682L10.4466 6.64164V8.832L9.29663 9.48942V10.0633Z"
            fill="black" />
        <path
            d="M13.6666 19.4948L11.75 18.3996L9.8333 19.4948L7.85913 18.3667V16.1096L9.7758 15.0144V12.824L11.75 11.6959L13.7241 12.824V15.0144L15.6408 16.1096V18.3667L13.6666 19.4948ZM7.97413 18.3L9.8333 19.3622L11.75 18.267L13.6666 19.3622L15.5258 18.3V16.1763L13.6091 15.0811V12.8907L11.75 11.8281L9.8908 12.8904V15.0807L7.97413 16.1759V18.3Z"
            fill="black" />
    </g>
    <defs>
        <clipPath id="clip0_64_9528">
            <rect width="12" height="12" fill="white" />
        </clipPath>
    </defs>
</svg>
