<svg width="12" height="12" viewBox="0 0 12 12" fill="none" xmlns="http://www.w3.org/2000/svg">
    <mask id="mask0_64_7151" style="mask-type:alpha" maskUnits="userSpaceOnUse" x="0" y="0"
        width="12" height="12">
        <rect width="12" height="12" fill="#D9D9D9" />
    </mask>
    <g mask="url(#mask0_64_7151)">
        <path
            d="M-5.41549 2.6469C-5.38197 2.57521 -5.3286 2.46871 -5.24992 2.33567C-5.11171 2.10165 -4.86608 1.737 -4.48122 1.3279C-3.82131 0.626174 -2.6202 -0.33921 -0.616528 -1.01129C-0.373296 -0.720056 -0.136565 -0.395046 0.0899048 -0.0321215C0.0899048 -0.0321215 -2.71052 -0.1431 -5.41549 2.6469Z"
            fill="black" />
        <path
            d="M0.290736 0.263932C0.371814 0.263588 0.648915 0.268413 1.06183 0.335621C0.588706 1.88003 0.365657 3.89352 0.266448 5.1398C0.16724 3.89352 -0.0558089 1.87968 -0.528932 0.335621C-0.116018 0.268068 0.161081 0.263588 0.242159 0.263932C0.257895 0.263932 0.274315 0.263932 0.290736 0.263932Z"
            fill="black" />
        <path
            d="M-0.0288333 4.19233C-0.27925 3.17387 -0.768109 1.76112 -1.69451 0.628925C-1.28331 0.489684 -0.91658 0.40352 -0.614164 0.350098C-0.118805 1.95999 0.102531 4.08997 0.194214 5.31557C0.14461 4.99228 0.0734543 4.60868 -0.0288333 4.19233Z"
            fill="black" />
        <path
            d="M-0.112363 4.21129C0.00737134 4.69794 0.0843437 5.13979 0.133606 5.49134C0.0586863 5.24664 -0.0459964 4.95712 -0.191731 4.63556C-0.590276 3.75599 -1.3836 2.45423 -2.9145 1.15763C-2.51458 0.944972 -2.13246 0.782292 -1.78078 0.658905C-0.85164 1.78214 -0.362096 3.19489 -0.112363 4.21129Z"
            fill="black" />
        <path
            d="M4.57648 1.87589C3.77118 2.21434 3.05037 2.6362 2.43117 3.13216C1.88347 3.57091 1.41343 4.0686 1.03404 4.61109C0.744283 5.02502 0.552365 5.40311 0.428183 5.69538C0.503445 5.42069 0.620786 5.06948 0.803467 4.66692C1.20064 3.79149 1.99329 2.49351 3.52794 1.20105C3.86765 1.38682 4.22001 1.60947 4.57648 1.87589Z"
            fill="black" />
        <path
            d="M1.1467 0.350098C1.44912 0.40352 1.81585 0.489684 2.22705 0.628925C1.30065 1.76112 0.811445 3.17387 0.56137 4.19233C0.459083 4.60868 0.387926 4.99228 0.338321 5.31523C0.430004 4.08997 0.651342 1.95999 1.1467 0.350098Z"
            fill="black" />
        <path
            d="M-5.41549 9.21813C-5.38197 9.14644 -5.3286 9.03994 -5.24992 8.9069C-5.11171 8.67288 -4.86608 8.30823 -4.48122 7.89912C-3.82131 7.1974 -2.6202 6.23202 -0.616528 5.55994C-0.373296 5.85117 -0.136565 6.17618 0.0899048 6.53911C0.0899048 6.53911 -2.71052 6.42847 -5.41549 9.21813Z"
            fill="black" />
        <path
            d="M-1.69451 7.20051C-1.28331 7.06126 -0.91658 6.9751 -0.614164 6.92168C-0.118805 8.53157 0.102531 10.6616 0.194214 11.8872C0.14461 11.5639 0.0734543 11.1803 -0.0288333 10.7643C-0.27925 9.74545 -0.768109 8.3327 -1.69451 7.20051Z"
            fill="black" />
        <path
            d="M-2.9145 7.72887C-2.51458 7.51621 -2.13246 7.35354 -1.78078 7.23015C-0.85164 8.35339 -0.362096 9.76614 -0.112363 10.7825C0.00737134 11.2692 0.0843437 11.711 0.133606 12.0626C0.0586863 11.8179 -0.0459964 11.5284 -0.191731 11.2068C-0.589934 10.3276 -1.38326 9.02581 -2.9145 7.72887Z"
            fill="black" />
        <path
            d="M3.5276 7.77263C3.86765 7.9584 4.21967 8.18105 4.57648 8.44747C3.77118 8.78592 3.05037 9.20778 2.43117 9.70374C1.88347 10.1425 1.41343 10.6402 1.03404 11.1827C0.744283 11.5966 0.552365 11.9747 0.428183 12.267C0.503445 11.9923 0.620786 11.6411 0.803467 11.2385C1.20064 10.3631 1.99329 9.06475 3.5276 7.77263Z"
            fill="black" />
        <path
            d="M1.1467 6.92168C1.44912 6.9751 1.81585 7.06126 2.22705 7.20051C1.30065 8.3327 0.811445 9.74545 0.56137 10.7639C0.459083 11.1803 0.387926 11.5639 0.338321 11.8868C0.430004 10.6616 0.651342 8.53157 1.1467 6.92168Z"
            fill="black" />
        <path
            d="M0.410128 6.53911C0.636255 6.17618 0.873329 5.85117 1.11656 5.55994C3.12024 6.23202 4.32135 7.1974 4.98125 7.89912C5.36612 8.30823 5.61174 8.67322 5.74995 8.9069C5.82863 9.03959 5.882 9.14609 5.91553 9.21813C3.21055 6.42847 0.410128 6.53911 0.410128 6.53911Z"
            fill="black" />
        <path
            d="M0.103882 5.69538C-0.0203001 5.40311 -0.212218 5.02502 -0.501976 4.61109C-0.881364 4.0686 -1.35141 3.57126 -1.89911 3.13216C-2.51831 2.6362 -3.23911 2.21434 -4.04441 1.87589C-3.68794 1.60947 -3.33558 1.38682 -2.99554 1.20105C-1.46122 2.49317 -0.668237 3.79149 -0.27106 4.66692C-0.0883786 5.06948 0.0289621 5.42034 0.103882 5.69538Z"
            fill="black" />
        <path
            d="M-5.01969 2.71479C-4.72104 2.42149 -4.42068 2.16334 -4.12305 1.93587C-3.30749 2.27398 -2.57882 2.6979 -1.95449 3.19731C-1.41329 3.63055 -0.948713 4.12134 -0.574115 4.65659C-0.112965 5.31454 0.0977668 5.87943 0.179871 6.14551C-1.56312 3.14079 -5.01969 2.71479 -5.01969 2.71479Z"
            fill="black" />
        <path
            d="M1.10661 4.65659C1.48155 4.12168 1.94578 3.63055 2.48698 3.19731C3.11131 2.69756 3.83998 2.27398 4.65554 1.93587C4.95317 2.16334 5.25353 2.42114 5.55219 2.71479C5.55219 2.71479 2.09561 3.14113 0.35262 6.14551C0.434724 5.87943 0.645458 5.31454 1.10661 4.65659Z"
            fill="black" />
        <path
            d="M0.723829 4.63556C0.578095 4.95712 0.473412 5.24664 0.398493 5.49134C0.447755 5.13979 0.524727 4.69794 0.644462 4.21129C0.894536 3.19489 1.38408 1.78214 2.31288 0.658905C2.66456 0.782637 3.04668 0.944972 3.44659 1.15763C1.9157 2.45423 1.12237 3.75599 0.723829 4.63556Z"
            fill="black" />
        <path
            d="M-0.529274 6.9072C-0.116361 6.83965 0.160739 6.83517 0.241816 6.83551C0.258237 6.83551 0.274657 6.83551 0.290736 6.83551C0.371813 6.83517 0.648915 6.83999 1.06183 6.9072C0.588706 8.45161 0.365657 10.4651 0.266448 11.7114C0.166897 10.4651 -0.0561515 8.45161 -0.529274 6.9072Z"
            fill="black" />
        <path
            d="M-1.89908 9.70374C-2.51828 9.20778 -3.23909 8.78592 -4.04439 8.44747C-3.68792 8.18105 -3.33556 7.9584 -2.99551 7.77263C-1.4612 9.06475 -0.668213 10.3631 -0.271036 11.2385C-0.0883548 11.6411 0.0289863 11.9919 0.104248 12.267C-0.0199339 11.9747 -0.211852 11.5966 -0.50161 11.1827C-0.880998 10.6402 -1.35138 10.1425 -1.89908 9.70374Z"
            fill="black" />
        <path
            d="M-5.01969 9.28602C-4.72104 8.99272 -4.42068 8.73457 -4.12305 8.5071C-3.30749 8.8452 -2.57882 9.26913 -1.95449 9.76854C-1.41329 10.2018 -0.948713 10.6926 -0.574115 11.2278C-0.112965 11.8858 0.0977668 12.4507 0.179871 12.7167C-1.56312 9.71236 -5.01969 9.28602 -5.01969 9.28602Z"
            fill="black" />
        <path
            d="M1.10661 11.2278C1.48155 10.6929 1.94578 10.2018 2.48698 9.76854C3.11131 9.26879 3.83998 8.8452 4.65554 8.5071C4.95317 8.73457 5.25353 8.99237 5.55219 9.28602C5.55219 9.28602 2.09561 9.71236 0.35262 12.7167C0.434724 12.451 0.645458 11.8861 1.10661 11.2278Z"
            fill="black" />
        <path
            d="M0.644462 10.7825C0.894536 9.76614 1.38408 8.35339 2.31288 7.23015C2.66456 7.35388 3.04668 7.51621 3.44659 7.72887C1.91536 9.02581 1.12203 10.3272 0.723829 11.2068C0.578095 11.5284 0.473412 11.8179 0.398493 12.0626C0.447755 11.7114 0.524727 11.2695 0.644462 10.7825Z"
            fill="black" />
        <path
            d="M6.03894 -3.52144C6.16004 -3.52213 6.55414 -3.51282 7.10321 -3.38909C6.56064 -2.41268 6.27636 -0.858271 6.13233 0.302189C6.07007 0.805389 6.02799 1.27791 5.99994 1.67048C5.97189 1.27791 5.92981 0.805389 5.86755 0.302189C5.72353 -0.858271 5.43958 -2.41268 4.89667 -3.38909C5.44574 -3.51248 5.83984 -3.52178 5.96094 -3.52144C5.98694 -3.52109 6.01294 -3.52109 6.03894 -3.52144Z"
            fill="black" />
        <path
            d="M5.49133 0.632035C5.69454 1.23622 5.82077 1.77768 5.89569 2.16197C5.78075 1.82041 5.59054 1.35237 5.28881 0.840207C4.93371 0.237746 4.49548 -0.30819 3.98609 -0.781404C3.449 -1.28081 2.83083 -1.7006 2.14526 -2.03285C2.56604 -2.37648 2.98785 -2.64083 3.38947 -2.84418C4.50506 -1.8071 5.14615 -0.394699 5.49133 0.632035Z"
            fill="black" />
        <path
            d="M5.86757 6.87342C5.72355 5.71296 5.43961 4.15855 4.8967 3.18214C5.44576 3.05875 5.83986 3.04945 5.96096 3.04979C5.98696 3.04979 6.01297 3.04979 6.03931 3.04979C6.16041 3.0491 6.55451 3.05841 7.10358 3.18214C6.56101 4.15855 6.27672 5.71296 6.1327 6.87342C6.07044 7.37662 6.02836 7.84914 6.00031 8.24171C5.97191 7.84914 5.92983 7.37662 5.86757 6.87342Z"
            fill="black" />
        <path
            d="M3.47159 3.68604C3.96285 3.44547 4.42195 3.29589 4.81023 3.20248C5.24298 3.969 5.57858 5.23596 5.78282 6.88342C5.85774 7.4883 5.90324 8.04871 5.9306 8.47849C5.85295 8.11936 5.73834 7.66924 5.57311 7.17776C5.2269 6.14827 4.58581 4.73414 3.47159 3.68604Z"
            fill="black" />
        <path
            d="M5.49133 7.20326C5.69454 7.80745 5.82077 8.3489 5.89569 8.7332C5.78075 8.39164 5.59054 7.9236 5.28881 7.41144C4.93371 6.80898 4.49548 6.26304 3.98609 5.78982C3.449 5.29041 2.83083 4.87062 2.14526 4.53837C2.56604 4.19475 2.98785 3.9304 3.38947 3.72705C4.50506 4.76412 5.14615 6.17687 5.49133 7.20326Z"
            fill="black" />
        <path
            d="M6.08451 2.6469C6.11803 2.57521 6.1714 2.46871 6.25008 2.33567C6.38829 2.10165 6.63392 1.737 7.01878 1.3279C7.67869 0.626174 8.8798 -0.33921 10.8835 -1.01129C11.1267 -0.720056 11.3634 -0.395046 11.5899 -0.0321215C11.5899 -0.0321215 8.78948 -0.1431 6.08451 2.6469Z"
            fill="black" />
        <path
            d="M8.07352 -0.720056C8.61335 -1.22188 9.23597 -1.64201 9.9277 -1.97289C10.2301 -1.71956 10.5315 -1.42488 10.8243 -1.08195C8.82101 -0.403661 7.61682 0.566548 6.95349 1.27275C6.53031 1.72322 6.27134 2.11888 6.12424 2.38255C6.2255 2.04306 6.42495 1.49471 6.78689 0.880875C7.13754 0.285997 7.57064 -0.252701 8.07352 -0.720056Z"
            fill="black" />
        <path
            d="M6.21716 0.311843C6.42174 -1.33562 6.75699 -2.60258 7.18975 -3.36909C7.57837 -3.27569 8.03713 -3.12577 8.52838 -2.88554C7.41416 -1.83778 6.77307 -0.423311 6.42686 0.60618C6.26163 1.09766 6.14703 1.54813 6.06937 1.90692C6.09674 1.47713 6.14224 0.91706 6.21716 0.311843Z"
            fill="black" />
        <path
            d="M6.50873 0.632028C6.8539 -0.394706 7.495 -1.80711 8.61058 -2.84453C9.01221 -2.64118 9.43367 -2.37648 9.8548 -2.03321C9.16889 -1.70096 8.55106 -1.28151 8.01396 -0.781756C7.50492 -0.308197 7.06669 0.237395 6.71159 0.839855C6.40986 1.35202 6.21965 1.82006 6.10471 2.16162C6.17929 1.77767 6.30552 1.23621 6.50873 0.632028Z"
            fill="black" />
        <path
            d="M0.410128 -0.0321215C0.636255 -0.395046 0.873329 -0.720056 1.11656 -1.01129C3.12024 -0.33921 4.32135 0.626174 4.98125 1.3279C5.36612 1.737 5.61174 2.102 5.74995 2.33567C5.82863 2.46837 5.882 2.57487 5.91553 2.6469C3.21055 -0.1431 0.410128 -0.0321215 0.410128 -0.0321215Z"
            fill="black" />
        <path
            d="M5.21345 0.880875C5.57539 1.49471 5.77484 2.04306 5.8761 2.38255C5.729 2.11923 5.46969 1.72322 5.04685 1.27275C4.38352 0.566548 3.17967 -0.403661 1.176 -1.08195C1.46884 -1.42488 1.77023 -1.71956 2.07264 -1.97289C2.76437 -1.64201 3.38699 -1.22188 3.92682 -0.720056C4.42936 -0.252701 4.86246 0.285997 5.21345 0.880875Z"
            fill="black" />
        <path
            d="M5.78282 0.311843C5.85774 0.916716 5.90324 1.47713 5.9306 1.90692C5.85295 1.54778 5.73834 1.09766 5.57311 0.60618C5.22725 -0.423311 4.58615 -1.83744 3.47159 -2.88554C3.96285 -3.12611 4.42195 -3.27569 4.81023 -3.36909C5.24298 -2.60258 5.57858 -1.33527 5.78282 0.311843Z"
            fill="black" />
        <path
            d="M11.7907 0.263932C11.8718 0.263588 12.1489 0.268413 12.5618 0.335621C12.0887 1.88003 11.8657 3.89352 11.7664 5.1398C11.6672 3.89352 11.4442 1.87968 10.9711 0.335621C11.384 0.268068 11.6611 0.263588 11.7422 0.263932C11.7579 0.263932 11.7743 0.263932 11.7907 0.263932Z"
            fill="black" />
        <path
            d="M11.4712 4.19233C11.2207 3.17387 10.7319 1.76112 9.80548 0.628925C10.2167 0.489684 10.5834 0.40352 10.8858 0.350098C11.3812 1.95999 11.6025 4.08997 11.6942 5.31557C11.6446 4.99228 11.5735 4.60868 11.4712 4.19233Z"
            fill="black" />
        <path
            d="M11.3878 4.21129C11.5075 4.69794 11.5845 5.13979 11.6334 5.49134C11.5585 5.24664 11.4538 4.95712 11.3081 4.63556C10.9095 3.75599 10.1162 2.45423 8.58532 1.15763C8.98523 0.944972 9.36736 0.782292 9.71904 0.658905C10.6485 1.78214 11.1381 3.19489 11.3878 4.21129Z"
            fill="black" />
        <path
            d="M16.0765 1.87589C15.2712 2.21434 14.5504 2.6362 13.9312 3.13216C13.3835 3.57091 12.9134 4.0686 12.534 4.61109C12.2446 5.02502 12.0524 5.40311 11.9282 5.69538C12.0034 5.42069 12.1208 5.06948 12.3035 4.66692C12.7006 3.79149 13.4933 2.49351 15.0279 1.20105C15.3676 1.38682 15.7197 1.60947 16.0765 1.87589Z"
            fill="black" />
        <path
            d="M12.6467 0.350098C12.9491 0.40352 13.3158 0.489684 13.7271 0.628925C12.8006 1.76112 12.3114 3.17387 12.0614 4.19233C11.9591 4.60868 11.8879 4.99228 11.8383 5.31523C11.93 4.08997 12.1513 1.95999 12.6467 0.350098Z"
            fill="black" />
        <path
            d="M5.49133 13.7748C5.69454 14.379 5.82077 14.9205 5.89569 15.3048C5.78075 14.9632 5.59054 14.4952 5.28881 13.983C4.93371 13.3806 4.49548 12.8346 3.98609 12.3614C3.449 11.862 2.83083 11.4422 2.14526 11.11C2.56604 10.7663 2.98785 10.502 3.38947 10.2986C4.50506 11.3357 5.14615 12.7481 5.49133 13.7748Z"
            fill="black" />
        <path
            d="M6.08451 9.21813C6.11803 9.14644 6.1714 9.03994 6.25008 8.9069C6.38829 8.67288 6.63392 8.30823 7.01878 7.89912C7.67869 7.1974 8.8798 6.23202 10.8835 5.55994C11.1267 5.85117 11.3634 6.17618 11.5899 6.53911C11.5899 6.53911 8.78948 6.42847 6.08451 9.21813Z"
            fill="black" />
        <path
            d="M8.07352 5.85117C8.61335 5.34935 9.23597 4.92921 9.9277 4.59834C10.2301 4.85167 10.5315 5.14635 10.8243 5.48928C8.82101 6.16757 7.61682 7.13778 6.95349 7.84398C6.53031 8.29444 6.27134 8.69011 6.12424 8.95377C6.2255 8.61429 6.42495 8.06594 6.78689 7.4521C7.13754 6.85722 7.57064 6.31853 8.07352 5.85117Z"
            fill="black" />
        <path
            d="M6.21716 6.88342C6.42174 5.23596 6.75699 3.969 7.18975 3.20248C7.57837 3.29589 8.03713 3.44581 8.52838 3.68604C7.41416 4.73379 6.77307 6.14827 6.42686 7.17776C6.26163 7.66924 6.14703 8.11971 6.06937 8.47849C6.09674 8.04871 6.14224 7.4883 6.21716 6.88342Z"
            fill="black" />
        <path
            d="M6.50873 7.20326C6.8539 6.17652 7.495 4.76412 8.61058 3.7267C9.01221 3.93005 9.43367 4.19475 9.8548 4.53802C9.16889 4.87027 8.55106 5.28972 8.01396 5.78947C7.50492 6.26303 7.06669 6.80862 6.71159 7.41109C6.40986 7.92325 6.21965 8.39129 6.10471 8.73284C6.17929 8.34924 6.30552 7.80778 6.50873 7.20326Z"
            fill="black" />
        <path
            d="M5.21345 7.4521C5.57539 8.06594 5.77484 8.61429 5.8761 8.95377C5.729 8.69046 5.46969 8.29444 5.04685 7.84398C4.38352 7.13778 3.17967 6.16757 1.176 5.48928C1.46884 5.14635 1.77023 4.85167 2.07264 4.59834C2.76437 4.92921 3.38699 5.34935 3.92682 5.85117C4.42936 6.31853 4.86246 6.85722 5.21345 7.4521Z"
            fill="black" />
        <path
            d="M9.80548 7.20051C10.2167 7.06126 10.5834 6.9751 10.8858 6.92168C11.3812 8.53157 11.6025 10.6616 11.6942 11.8872C11.6446 11.5639 11.5735 11.1803 11.4712 10.7643C11.2207 9.74545 10.7319 8.3327 9.80548 7.20051Z"
            fill="black" />
        <path
            d="M8.58566 7.72887C8.98558 7.51621 9.3677 7.35354 9.71938 7.23015C10.6485 8.35339 11.1381 9.76614 11.3878 10.7825C11.5075 11.2692 11.5845 11.711 11.6334 12.0626C11.5585 11.8179 11.4538 11.5284 11.3081 11.2068C10.9102 10.3276 10.1169 9.02581 8.58566 7.72887Z"
            fill="black" />
        <path
            d="M15.0276 7.77263C15.3676 7.9584 15.7197 8.18105 16.0765 8.44747C15.2712 8.78592 14.5504 9.20778 13.9312 9.70374C13.3835 10.1425 12.9134 10.6402 12.534 11.1827C12.2446 11.5966 12.0524 11.9747 11.9282 12.267C12.0034 11.9923 12.1208 11.6411 12.3035 11.2385C12.7006 10.3631 13.4933 9.06475 15.0276 7.77263Z"
            fill="black" />
        <path
            d="M12.6467 6.92168C12.9491 6.9751 13.3158 7.06126 13.7271 7.20051C12.8006 8.3327 12.3114 9.74545 12.0614 10.7639C11.9591 11.1803 11.8879 11.5639 11.8383 11.8868C11.93 10.6616 12.1513 8.53157 12.6467 6.92168Z"
            fill="black" />
        <path
            d="M11.91 6.53911C12.1361 6.17618 12.3732 5.85117 12.6164 5.55994C14.6201 6.23202 15.8212 7.1974 16.4811 7.89912C16.866 8.30823 17.1116 8.67322 17.2498 8.9069C17.3285 9.03959 17.3819 9.14609 17.4154 9.21813C14.7104 6.42847 11.91 6.53911 11.91 6.53911Z"
            fill="black" />
        <path
            d="M11.6039 5.69538C11.4797 5.40311 11.2878 5.02502 10.998 4.61109C10.6186 4.0686 10.1486 3.57126 9.60089 3.13216C8.98169 2.6362 8.26089 2.21434 7.45559 1.87589C7.81206 1.60947 8.16442 1.38682 8.50446 1.20105C10.0388 2.49317 10.8318 3.79149 11.2289 4.66692C11.4116 5.06948 11.529 5.42034 11.6039 5.69538Z"
            fill="black" />
        <path
            d="M6.48031 2.71479C6.77896 2.42149 7.07932 2.16334 7.37695 1.93587C8.19251 2.27398 8.92118 2.6979 9.54552 3.19731C10.0867 3.63055 10.5513 4.12134 10.9259 4.65659C11.387 5.31454 11.5978 5.87943 11.6799 6.14551C9.93688 3.14079 6.48031 2.71479 6.48031 2.71479Z"
            fill="black" />
        <path
            d="M12.6066 4.65659C12.9815 4.12168 13.4458 3.63055 13.987 3.19731C14.6113 2.69756 15.34 2.27398 16.1555 1.93587C16.4532 2.16334 16.7535 2.42114 17.0522 2.71479C17.0522 2.71479 13.5956 3.14113 11.8526 6.14551C11.9347 5.87943 12.1455 5.31454 12.6066 4.65659Z"
            fill="black" />
        <path
            d="M12.2239 4.63556C12.0781 4.95712 11.9734 5.24664 11.8985 5.49134C11.9478 5.13979 12.0248 4.69794 12.1442 4.21129C12.3942 3.19489 12.8838 1.78214 13.8126 0.658905C14.1643 0.782637 14.5464 0.944972 14.9463 1.15763C13.4157 2.45423 12.6224 3.75599 12.2239 4.63556Z"
            fill="black" />
        <path
            d="M8.07352 12.4227C8.61335 11.9209 9.23597 11.5008 9.9277 11.1699C10.2301 11.4232 10.5315 11.7179 10.8243 12.0609C8.82101 12.7391 7.61682 13.7094 6.95349 14.4156C6.53031 14.866 6.27134 15.2617 6.12424 15.5254C6.2255 15.1859 6.42495 14.6375 6.78689 14.0237C7.13754 13.4288 7.57064 12.8901 8.07352 12.4227Z"
            fill="black" />
        <path
            d="M6.21716 13.4546C6.42174 11.8072 6.75699 10.5402 7.18975 9.77371C7.57837 9.86711 8.03713 10.017 8.52838 10.2573C7.41416 11.305 6.77307 12.7195 6.42686 13.749C6.26163 14.2405 6.14703 14.6909 6.06937 15.0497C6.09674 14.6199 6.14224 14.0599 6.21716 13.4546Z"
            fill="black" />
        <path
            d="M6.50873 13.7748C6.8539 12.7481 7.495 11.3357 8.61058 10.2983C9.01221 10.5016 9.43367 10.7663 9.8548 11.1096C9.16889 11.4419 8.55106 11.8613 8.01396 12.3611C7.50492 12.8346 7.06669 13.3802 6.71159 13.9827C6.40986 14.4948 6.21965 14.9629 6.10471 15.3044C6.17929 14.9205 6.30552 14.379 6.50873 13.7748Z"
            fill="black" />
        <path
            d="M5.21345 14.0237C5.57539 14.6375 5.77484 15.1859 5.8761 15.5254C5.729 15.262 5.46969 14.866 5.04685 14.4156C4.38352 13.7094 3.17967 12.7391 1.176 12.0609C1.46884 11.7179 1.77023 11.4232 2.07264 11.1699C2.76437 11.5008 3.38699 11.9209 3.92682 12.4227C4.42936 12.8901 4.86246 13.4288 5.21345 14.0237Z"
            fill="black" />
        <path
            d="M5.86757 13.445C5.72355 12.2845 5.43961 10.7301 4.8967 9.75372C5.44576 9.63033 5.83986 9.62103 5.96096 9.62137C5.98696 9.62137 6.01297 9.62137 6.03931 9.62137C6.16041 9.62068 6.55451 9.62999 7.10358 9.75372C6.56101 10.7301 6.27672 12.2845 6.1327 13.445C6.07044 13.9482 6.02836 14.4207 6.00031 14.8133C5.97191 14.4207 5.92983 13.9482 5.86757 13.445Z"
            fill="black" />
        <path
            d="M3.47159 10.2576C3.96285 10.017 4.42195 9.86747 4.81023 9.77406C5.24298 10.5406 5.57858 11.8075 5.78282 13.455C5.85774 14.0599 5.90324 14.6203 5.9306 15.0501C5.85295 14.6909 5.73834 14.2408 5.57311 13.7493C5.2269 12.7195 4.58581 11.3054 3.47159 10.2576Z"
            fill="black" />
        <path
            d="M10.9707 6.9072C11.3836 6.83965 11.6607 6.83517 11.7418 6.83551C11.7582 6.83551 11.7747 6.83551 11.7907 6.83551C11.8718 6.83517 12.1489 6.83999 12.5618 6.9072C12.0887 8.45161 11.8657 10.4651 11.7664 11.7114C11.6669 10.4651 11.4438 8.45161 10.9707 6.9072Z"
            fill="black" />
        <path
            d="M9.60092 9.70374C8.98172 9.20778 8.26091 8.78592 7.45561 8.44747C7.81208 8.18105 8.16444 7.9584 8.50449 7.77263C10.0388 9.06475 10.8318 10.3631 11.229 11.2385C11.4116 11.6411 11.529 11.9919 11.6042 12.267C11.4801 11.9747 11.2881 11.5966 10.9984 11.1827C10.619 10.6402 10.1486 10.1425 9.60092 9.70374Z"
            fill="black" />
        <path
            d="M6.48031 9.28602C6.77896 8.99272 7.07932 8.73457 7.37695 8.5071C8.19251 8.8452 8.92118 9.26913 9.54552 9.76854C10.0867 10.2018 10.5513 10.6926 10.9259 11.2278C11.387 11.8858 11.5978 12.4507 11.6799 12.7167C9.93688 9.71236 6.48031 9.28602 6.48031 9.28602Z"
            fill="black" />
        <path
            d="M12.6066 11.2278C12.9815 10.6929 13.4458 10.2018 13.987 9.76854C14.6113 9.26879 15.34 8.8452 16.1555 8.5071C16.4532 8.73457 16.7535 8.99237 17.0522 9.28602C17.0522 9.28602 13.5956 9.71236 11.8526 12.7167C11.9347 12.451 12.1455 11.8861 12.6066 11.2278Z"
            fill="black" />
        <path
            d="M12.1445 10.7825C12.3945 9.76614 12.8841 8.35339 13.8129 7.23015C14.1646 7.35388 14.5467 7.51621 14.9466 7.72887C13.4154 9.02581 12.622 10.3272 12.2238 11.2068C12.0781 11.5284 11.9734 11.8179 11.8985 12.0626C11.9478 11.7114 12.0247 11.2695 12.1445 10.7825Z"
            fill="black" />
        <path
            d="M11.91 -0.0321215C12.1361 -0.395046 12.3732 -0.720056 12.6164 -1.01129C14.6201 -0.33921 15.8212 0.626174 16.4811 1.3279C16.866 1.737 17.1116 2.102 17.2498 2.33567C17.3285 2.46837 17.3819 2.57487 17.4154 2.6469C14.7104 -0.1431 11.91 -0.0321215 11.91 -0.0321215Z"
            fill="black" />
    </g>
</svg>
