<svg width="13" height="13" viewBox="0 0 13 13" fill="none" xmlns="http://www.w3.org/2000/svg">
<path d="M10.8524 0L11.8762 0.0567121L11.8963 0.424499C11.8497 0.408497 11.8008 0.400339 11.7515 0.400354C11.6329 0.400354 11.5191 0.447681 11.4352 0.531923C11.3513 0.616166 11.3042 0.730423 11.3042 0.849559C11.3042 0.90855 11.3158 0.966963 11.3383 1.02146C11.3607 1.07596 11.3937 1.12548 11.4352 1.1672C11.4767 1.20891 11.5261 1.242 11.5803 1.26457C11.6346 1.28715 11.6928 1.29876 11.7515 1.29876C11.8701 1.29876 11.9839 1.25144 12.0678 1.1672C12.1517 1.08295 12.1988 0.968696 12.1988 0.849559C12.1988 0.766274 12.1758 0.684623 12.1323 0.613727L12.3123 0.0808569L12.7492 0.105002L12.771 10.6978L12.1278 10.6754L12.1124 7.70219L11.7705 10.6641L10.4611 10.6192L10.8524 0ZM0.970066 0.325674L10.2598 0.613446L10.1871 2.25276L0.0978454 1.83304L1.17179e-07 0.811658L0.970066 0.325674ZM0.774376 2.36787L1.48445 2.39595L1.90379 3.49089L2.27281 2.42964L2.90181 2.45771L2.98009 4.79639L2.76762 5.75095L3.0332 6.42757L3.24287 12.7894L2.84869 12.8091L2.53279 11.8686L2.21689 12.8428L2.0855 12.8512L1.69133 12.2588L1.56273 12.8765L1.05114 12.9045L0.774376 2.36787ZM2.48247 10.7624C2.36384 10.7624 2.25007 10.8097 2.16619 10.894C2.08231 10.9782 2.03518 11.0925 2.03518 11.2116C2.03518 11.3307 2.08231 11.445 2.16619 11.5292C2.25007 11.6135 2.36384 11.6608 2.48247 11.6608C2.6011 11.6608 2.71487 11.6135 2.79876 11.5292C2.88264 11.445 2.92977 11.3307 2.92977 11.2116C2.92977 11.0925 2.88264 10.9782 2.79876 10.894C2.71487 10.8097 2.6011 10.7624 2.48247 10.7624ZM0.0978454 10.7849L0.492022 10.7989L0.545138 12.9102L0.0922539 12.9074L0.0978454 10.7849ZM3.68457 10.9028L6.28446 10.987L7.50613 11.5569L8.12116 11.0488L12.9922 11.2088L13 13L3.75167 12.9354L3.71532 11.8124C4.07595 11.804 6.17264 11.7478 6.22016 11.7478C6.26489 11.7478 4.29121 11.4699 3.70135 11.3829L3.68457 10.9028ZM10.777 11.5625C10.6583 11.5625 10.5446 11.6099 10.4607 11.6941C10.3768 11.7784 10.3297 11.8926 10.3297 12.0117C10.3297 12.1309 10.3768 12.2451 10.4607 12.3294C10.5446 12.4136 10.6583 12.461 10.777 12.461C10.8954 12.4607 11.0089 12.4132 11.0925 12.329C11.1762 12.2448 11.2231 12.1307 11.2231 12.0117C11.2231 11.8928 11.1762 11.7787 11.0925 11.6945C11.0089 11.6103 10.8954 11.5628 10.777 11.5625ZM12.2161 11.571C12.1574 11.571 12.0992 11.5826 12.0449 11.6052C11.9907 11.6277 11.9414 11.6608 11.8998 11.7025C11.8583 11.7442 11.8254 11.7938 11.8029 11.8483C11.7804 11.9028 11.7688 11.9612 11.7688 12.0202C11.7688 12.1393 11.816 12.2536 11.8998 12.3378C11.9837 12.4221 12.0975 12.4694 12.2161 12.4694C12.3347 12.4694 12.4485 12.4221 12.5324 12.3378C12.6163 12.2536 12.6634 12.1393 12.6634 12.0202C12.6634 11.901 12.6163 11.7868 12.5324 11.7025C12.4485 11.6183 12.3347 11.571 12.2161 11.571Z" fill="black"/>
</svg>
