<svg width="14" height="14" viewBox="0 0 14 14" fill="none" xmlns="http://www.w3.org/2000/svg">
<path d="M3.29808 0.00720879C3.41869 0.0201688 3.5314 0.0734572 3.61792 0.158439L7 3.53931L8.76669 1.77245C8.8176 1.7216 8.87804 1.68127 8.94455 1.65377C9.01105 1.62626 9.08233 1.61211 9.15431 1.61214C9.22628 1.61216 9.29755 1.62636 9.36404 1.65391C9.43052 1.68146 9.49093 1.72184 9.54181 1.77272C9.64456 1.87549 9.70225 2.01485 9.7022 2.16014C9.70218 2.23208 9.68798 2.30331 9.66041 2.36976C9.63284 2.43621 9.59245 2.49659 9.54154 2.54744L7.77431 4.31268H12.3846C12.813 4.31268 13.2239 4.48279 13.5269 4.78557C13.8298 5.08836 14 5.49903 14 5.92724V12.3854C14 12.8137 13.8298 13.2243 13.5269 13.5271C13.2239 13.8299 12.813 14 12.3846 14H1.61538C1.18696 14 0.776078 13.8299 0.473134 13.5271C0.170191 13.2243 -7.15256e-07 12.8137 -7.15256e-07 12.3854V5.92724C-7.15256e-07 5.49903 0.170191 5.08836 0.473134 4.78557C0.776078 4.48279 1.18696 4.31268 1.61538 4.31268H6.22623L2.84361 0.932348C2.75888 0.85361 2.70177 0.749687 2.68074 0.635971C2.65972 0.522255 2.67591 0.404796 2.7269 0.300993C2.77789 0.197189 2.86098 0.112562 2.96386 0.0596477C3.06673 0.00673326 3.18393 -0.0116543 3.29808 0.00720879ZM8.34615 5.38905C4.33731 5.38905 3.76923 5.40035 3.76923 9.15634C3.76923 12.9129 4.37661 12.9236 8.34615 12.9236C12.334 12.9236 12.9231 12.8838 12.9231 9.15634C12.9231 5.42995 12.334 5.38905 8.34615 5.38905ZM1.88461 6.97024C1.41831 6.97024 1.043 7.34481 1.043 7.81088C1.04279 7.92141 1.06441 8.03089 1.10663 8.13304C1.14885 8.23519 1.21083 8.32801 1.28903 8.40616C1.36722 8.48431 1.46008 8.54627 1.56229 8.58847C1.6645 8.63066 1.77403 8.65228 1.88461 8.65206C1.99522 8.65235 2.10479 8.63078 2.20702 8.58861C2.30926 8.54644 2.40215 8.48449 2.48036 8.40632C2.55857 8.32815 2.62055 8.23531 2.66274 8.13312C2.70494 8.03094 2.72651 7.92143 2.72623 7.81088C2.72644 7.70036 2.70482 7.59088 2.6626 7.48872C2.62038 7.38657 2.55839 7.29375 2.4802 7.2156C2.40201 7.13745 2.30914 7.07549 2.20694 7.0333C2.10473 6.9911 1.9952 6.97002 1.88461 6.97024ZM1.88461 9.12297C1.41831 9.12297 1.043 9.49755 1.043 9.96362C1.04279 10.0741 1.06441 10.1836 1.10663 10.2858C1.14885 10.3879 1.21083 10.4807 1.28903 10.5589C1.36722 10.6371 1.46008 10.699 1.56229 10.7412C1.6645 10.7834 1.77403 10.805 1.88461 10.8048C1.99522 10.8051 2.10479 10.7835 2.20702 10.7413C2.30926 10.6992 2.40215 10.6372 2.48036 10.5591C2.55857 10.4809 2.62055 10.388 2.66274 10.2859C2.70494 10.1837 2.72651 10.0742 2.72623 9.96362C2.72644 9.85309 2.70482 9.74361 2.6626 9.64146C2.62038 9.53931 2.55839 9.44649 2.4802 9.36834C2.40201 9.29019 2.30914 9.22823 2.20694 9.18603C2.10473 9.14384 1.9952 9.12276 1.88461 9.12297Z" fill="black"/>
</svg>
