<svg width="12" height="13" viewBox="0 0 12 13" fill="none" xmlns="http://www.w3.org/2000/svg">
<path fill-rule="evenodd" clip-rule="evenodd" d="M10.4155 0.780059C10.3926 0.687035 10.3571 0.602504 10.3163 0.528893L10.3008 0.50139L10.2855 0.476853C10.2757 0.46081 10.2656 0.445036 10.2545 0.428858C10.233 0.397041 10.209 0.365494 10.1829 0.334755C10.0803 0.211801 9.935 0.103812 9.77713 0.0500192C9.61926 -0.0048518 9.46139 -0.00889634 9.32401 0.0107871C9.18622 0.0311446 9.06448 0.0721293 8.95272 0.121473C8.84109 0.171221 8.73957 0.228788 8.64399 0.291344C8.45268 0.416185 8.2847 0.558149 8.12817 0.70901C8.05025 0.784104 7.97434 0.860546 7.90141 0.939684C7.82928 1.0195 7.75904 1.10039 7.69055 1.18236C7.4193 1.51253 7.17878 1.86508 6.96995 2.2392C6.86668 2.427 6.77028 2.61911 6.68858 2.82053C6.67293 2.85886 6.65791 2.89754 6.64364 2.93661H6.07518C6.0609 2.89749 6.04585 2.85876 6.03014 2.82039C5.94844 2.61911 5.85204 2.42686 5.74877 2.23906C5.53994 1.86494 5.29942 1.51239 5.02817 1.18222C4.95968 1.10025 4.88958 1.01936 4.81732 0.939547C4.74451 0.860544 4.66848 0.783967 4.59055 0.708873C4.43416 0.558281 4.26618 0.416183 4.07487 0.291341C3.97942 0.228786 3.8779 0.171219 3.76614 0.121471C3.65451 0.0719924 3.53263 0.0310077 3.39471 0.0109198C3.25747 -0.00889848 3.09946 -0.00485394 2.94159 0.0501519C2.78372 0.103944 2.63825 0.211934 2.53579 0.334888C2.50977 0.365626 2.48591 0.397174 2.46433 0.428991C2.45314 0.445034 2.44303 0.460808 2.43333 0.476986L2.41809 0.501523L2.40259 0.529026C2.36174 0.602636 2.32628 0.687167 2.30336 0.780192C2.28071 0.872812 2.27168 0.972308 2.27707 1.06789C2.28246 1.16348 2.30107 1.25381 2.32763 1.33443C2.38196 1.49621 2.45948 1.62173 2.5401 1.72715C2.6218 1.83258 2.70714 1.92048 2.7941 1.99908C2.96855 2.15574 3.14894 2.27843 3.33148 2.38749C3.42289 2.44169 3.5143 2.4936 3.60678 2.54119C3.69954 2.58837 3.79229 2.6334 3.88572 2.67627C4.25957 2.84574 4.63936 2.98083 5.02426 3.0903L5.0697 3.10298H4.76981L4.72253 3.09435C4.65107 3.07886 4.57988 3.06219 4.5088 3.04554C4.47033 3.03653 4.43188 3.02752 4.39344 3.01871L4.22964 2.9807C4.19473 2.97195 4.15993 2.96203 4.12517 2.95212C4.10583 2.94661 4.08651 2.9411 4.06718 2.9358L3.74389 2.84412C3.31598 2.70998 2.89736 2.55157 2.49466 2.36377L2.34407 2.29299C2.31272 2.27761 2.28169 2.26148 2.25071 2.24538L2.25071 2.24538L2.2507 2.24537L2.25069 2.24537L2.25069 2.24537C2.23252 2.23592 2.21437 2.22649 2.19618 2.21722C2.17846 2.2079 2.16066 2.19879 2.14287 2.18969L2.14286 2.18968L2.14285 2.18968L2.14284 2.18967L2.14283 2.18967L2.14283 2.18967L2.14282 2.18967L2.14282 2.18967L2.14282 2.18966C2.11148 2.17363 2.08019 2.15762 2.04949 2.14051L1.90564 2.05975C1.86621 2.03838 1.82803 2.01512 1.79001 1.99196L1.76449 1.97644L1.73656 1.95951L1.73656 1.95951L1.73655 1.95951L1.73655 1.95951L1.73655 1.95951C1.69927 1.93698 1.66208 1.9145 1.6267 1.89056L1.59459 1.86962L1.59459 1.86962L1.59459 1.86961C1.56038 1.84738 1.52631 1.82525 1.49458 1.80225C1.48701 1.79681 1.47909 1.79133 1.47119 1.78586L1.47119 1.78585C1.45756 1.77642 1.44398 1.76702 1.4323 1.75789L1.40371 1.73619L1.39941 1.73301C1.39585 1.73041 1.39207 1.72766 1.39104 1.72635L1.38376 1.71934L1.38538 2.47027L0.794067 2.90183L0.824267 2.91774C0.83162 2.92173 0.836589 2.92401 0.841685 2.92635L0.849478 2.93L0.896799 2.95225C0.917448 2.96214 0.936645 2.9703 0.955828 2.97845L0.955871 2.97847L0.955897 2.97848C0.9665 2.98299 0.977098 2.98749 0.987936 2.99229C1.0358 3.01355 1.08257 3.03185 1.12931 3.05014L1.12931 3.05014L1.12933 3.05015L1.16603 3.06455C1.20007 3.07839 1.23398 3.09088 1.26784 3.10298H1.16724C1.07533 3.10298 1.00086 3.17739 1.00086 3.26924V12.8325C1.00086 12.9244 1.07533 12.9988 1.16724 12.9988H11.3336C11.4255 12.9988 11.5 12.9244 11.5 12.8325V3.26924C11.5 3.2085 11.4674 3.15539 11.4188 3.12638L11.4446 3.11726L11.4446 3.11725C11.4918 3.10057 11.5391 3.08387 11.5867 3.06455L11.6234 3.05015C11.6701 3.03186 11.7169 3.01356 11.7648 2.99229C11.7756 2.98748 11.7862 2.98297 11.7969 2.97845C11.816 2.9703 11.8352 2.96214 11.8559 2.95225L11.9032 2.93L11.911 2.92635C11.9161 2.92401 11.9211 2.92173 11.9284 2.91774L11.9586 2.90183L11.3673 2.47027L11.3689 1.71934L11.3617 1.72635C11.3606 1.72766 11.3568 1.73041 11.3533 1.73301L11.349 1.73619L11.3204 1.75789C11.3087 1.76702 11.2951 1.77642 11.2815 1.78584L11.2815 1.78586C11.2736 1.79133 11.2657 1.79681 11.2581 1.80225C11.2264 1.82524 11.1923 1.84737 11.1581 1.86959L11.1581 1.8696L11.1581 1.86961L11.1581 1.86962L11.126 1.89056C11.0906 1.9145 11.0534 1.93697 11.0162 1.95949L11.0162 1.9595L10.9882 1.97644L10.9627 1.99196C10.9247 2.01512 10.8865 2.03838 10.8471 2.05975L10.7032 2.14051C10.6725 2.15761 10.6412 2.17362 10.6099 2.18965L10.6099 2.18967L10.6098 2.18968L10.6098 2.1897C10.592 2.1988 10.5742 2.2079 10.5565 2.21722C10.5383 2.22649 10.5202 2.23592 10.502 2.24537C10.471 2.26147 10.44 2.27761 10.4086 2.29299L10.258 2.36377C9.85533 2.55157 9.43672 2.70998 9.00881 2.84412L8.68551 2.9358C8.66619 2.9411 8.64686 2.94661 8.62752 2.95212L8.62751 2.95213C8.59275 2.96203 8.55796 2.97195 8.52306 2.9807L8.35925 3.01871C8.32086 3.02751 8.28247 3.0365 8.24405 3.0455L8.24404 3.0455L8.24403 3.04551L8.24389 3.04554L8.24386 3.04554L8.24384 3.04555L8.24382 3.04555C8.17276 3.0622 8.1016 3.07887 8.03016 3.09435L7.98289 3.10298H7.64866L7.69406 3.0903C8.07896 2.98083 8.45888 2.84574 8.8326 2.67628C8.92603 2.6334 9.01878 2.58837 9.11154 2.54119C9.20402 2.4936 9.29543 2.44156 9.38683 2.3875C9.56938 2.27843 9.74976 2.15574 9.92422 1.99908C10.0113 1.92035 10.0967 1.83258 10.1782 1.72716C10.2588 1.62173 10.3365 1.49621 10.3907 1.33443C10.4174 1.25394 10.4359 1.16348 10.4412 1.0679C10.4473 0.97231 10.4381 0.872679 10.4155 0.780059ZM6.74507 3.10298H6.89773L7.04032 3.01737L7.55654 2.71173C7.89831 2.50937 8.23737 2.30795 8.56188 2.09494C8.64318 2.04223 8.72312 1.98803 8.80145 1.93275C8.88005 1.87788 8.95811 1.82301 9.03294 1.76585C9.18204 1.65125 9.32482 1.53194 9.44454 1.40858C9.50359 1.34683 9.55724 1.28414 9.59809 1.22415C9.63894 1.16402 9.66725 1.1074 9.6771 1.06817C9.68721 1.02745 9.68451 1.01505 9.67939 0.996173C9.67669 0.986735 9.67197 0.973523 9.66213 0.956671C9.65809 0.949795 9.64825 0.934022 9.64151 0.924854C9.63436 0.913799 9.62694 0.904631 9.61953 0.896273C9.59081 0.862298 9.56897 0.848008 9.54026 0.836278C9.51221 0.824954 9.47002 0.818752 9.41339 0.824549C9.29974 0.834391 9.14726 0.89479 8.99883 0.977568C8.84904 1.06102 8.69791 1.16618 8.5484 1.27996C8.47472 1.33592 8.40236 1.39636 8.32963 1.4571L8.32962 1.45711L8.32703 1.45927C8.25342 1.52088 8.18062 1.58452 8.10835 1.65004C7.8189 1.91091 7.53821 2.1939 7.26601 2.48861C7.12971 2.63623 6.99637 2.78777 6.86789 2.94402C6.82627 2.99563 6.78483 3.0477 6.74507 3.10095V3.10298ZM5.97461 3.10298H5.82086L5.67826 3.01736L5.16205 2.71173C4.82028 2.50937 4.48121 2.30795 4.15671 2.09494C4.07541 2.04222 3.99546 1.98803 3.91713 1.93275C3.83854 1.87788 3.76061 1.82288 3.68565 1.76585C3.53654 1.65125 3.39377 1.53194 3.27405 1.40858C3.215 1.3467 3.16134 1.28414 3.12049 1.22415C3.07964 1.16415 3.05133 1.1074 3.04149 1.06816C3.03138 1.02758 3.03408 1.01505 3.03906 0.99644C3.04176 0.986868 3.04648 0.973791 3.05632 0.956939C3.06037 0.949928 3.07021 0.934289 3.07695 0.925121C3.08409 0.914201 3.09151 0.905034 3.09892 0.89654C3.12764 0.862431 3.14948 0.848275 3.1782 0.836546C3.20624 0.825221 3.2483 0.81902 3.30506 0.824817C3.41871 0.834658 3.57119 0.895057 3.71963 0.977835C3.86941 1.06129 4.02054 1.16631 4.17005 1.28023C4.24461 1.33699 4.31781 1.39806 4.39142 1.45954C4.46504 1.52102 4.53784 1.58479 4.6101 1.65031C4.89955 1.91132 5.18025 2.1943 5.45244 2.48888C5.58874 2.63637 5.72194 2.7879 5.85056 2.94429C5.89255 2.99647 5.93442 3.04911 5.97461 3.10298ZM7.37508 3.61906L7.16137 3.60175H5.59132L5.37761 3.61906L5.32018 3.62368C5.28143 3.62687 5.24263 3.63006 5.20383 3.63241L5.02992 3.63793L4.68074 3.64872C4.60322 3.64872 4.5257 3.64729 4.44806 3.64585H4.44805H4.44804H4.44803H4.44802L4.44792 3.64585C4.40895 3.64513 4.36994 3.64441 4.33089 3.64387L4.15535 3.64076C4.11826 3.63948 4.08127 3.63706 4.04422 3.63464L4.04421 3.63464L4.0442 3.63464L4.04419 3.63464L4.04418 3.63464L4.04416 3.63463C4.02279 3.63324 4.0014 3.63184 3.97995 3.63065L3.86078 3.62311L3.86075 3.6231L3.86073 3.6231L3.86071 3.6231L3.86069 3.6231C3.7833 3.61829 3.70576 3.61348 3.62821 3.6076L3.56713 3.60175H1.50001L1.50001 12.5H11V3.60175H9.18557L9.12448 3.6076C9.04692 3.61348 8.96936 3.6183 8.89196 3.6231L8.89194 3.6231L8.89193 3.62311L8.89192 3.62311L8.77274 3.63065C8.75128 3.63184 8.72988 3.63324 8.7085 3.63464L8.70848 3.63464L8.70847 3.63464C8.67142 3.63706 8.63444 3.63948 8.59734 3.64076L8.42181 3.64387C8.38276 3.64441 8.34375 3.64513 8.30477 3.64585L8.30467 3.64585H8.30466H8.30465H8.30464C8.227 3.64729 8.14948 3.64872 8.07195 3.64872L7.72278 3.63793L7.54886 3.63241C7.51006 3.63006 7.47127 3.62687 7.43251 3.62368L7.37508 3.61906Z" fill="black"/>
</svg>
