<svg width="12" height="12" viewBox="0 0 12 12" fill="none" xmlns="http://www.w3.org/2000/svg">
<path d="M11.8183 -4.58344e-07H11.0249C10.9846 -3.23908e-05 10.9453 0.0133332 10.9134 0.0380001C10.8814 0.0626669 10.8586 0.0972397 10.8484 0.136295C10.7595 0.470996 10.4565 0.704645 10.1109 0.704645C9.76528 0.704645 9.4623 0.470996 9.37341 0.136295C9.36323 0.0972397 9.34038 0.0626669 9.30843 0.0380001C9.27649 0.0133332 9.23726 -3.23908e-05 9.1969 -4.58344e-07H8.28541C8.20266 -4.58344e-07 8.12964 0.055978 8.1089 0.136295C8.02011 0.470996 7.71703 0.704645 7.3714 0.704645C7.02577 0.704645 6.72279 0.470996 6.6339 0.136295C6.62372 0.0972397 6.60087 0.0626669 6.56893 0.0380001C6.53698 0.0133332 6.49775 -3.23908e-05 6.45739 -4.58344e-07H5.54591C5.46315 -4.58344e-07 5.39013 0.055978 5.36939 0.136295C5.32627 0.299047 5.23059 0.442998 5.09722 0.545776C4.96385 0.648554 4.80027 0.704404 4.63189 0.704645C4.28626 0.704645 3.98318 0.470996 3.89439 0.136295C3.88421 0.0972397 3.86136 0.0626669 3.82942 0.0380001C3.79747 0.0133332 3.75824 -3.23908e-05 3.71788 -4.58344e-07H2.8064C2.72364 -4.58344e-07 2.65062 0.055978 2.62988 0.136295C2.58674 0.299039 2.49106 0.44298 2.3577 0.545756C2.22433 0.648532 2.06076 0.704387 1.89238 0.704645C1.54675 0.704645 1.24367 0.470996 1.15488 0.136295C1.14469 0.097248 1.12183 0.0626851 1.08989 0.0380209C1.05795 0.0133566 1.01873 -1.57254e-05 0.978369 -4.58344e-07H0.18255C0.158566 -3.8922e-05 0.134811 0.00465639 0.112646 0.0138162C0.0904803 0.0229759 0.070341 0.0364201 0.053382 0.0533779C0.036423 0.0703358 0.022978 0.0904743 0.0138177 0.112638C0.00465731 0.134802 -3.82317e-05 0.158556 2.34435e-07 0.182538V0.97597C2.34435e-07 1.05872 0.0559821 1.13174 0.136304 1.15247C0.471027 1.24126 0.70469 1.54432 0.70469 1.88993C0.70469 2.23553 0.471027 2.53849 0.136304 2.62738C0.0972464 2.63755 0.0626718 2.66041 0.0380033 2.69235C0.0133349 2.72429 -3.17001e-05 2.76352 2.34435e-07 2.80388V3.71531C2.34435e-07 3.79806 0.0559821 3.87107 0.136304 3.89181C0.299067 3.93489 0.443034 4.03055 0.545822 4.16389C0.64861 4.29724 0.704461 4.4608 0.70469 4.62916C0.70469 4.97477 0.471027 5.27773 0.136304 5.36652C0.0972547 5.37671 0.0626895 5.39957 0.0380237 5.43151C0.0133578 5.46345 -1.50336e-05 5.50267 2.34435e-07 5.54302V6.45454C2.34435e-07 6.53729 0.0559821 6.61031 0.136304 6.63105C0.299058 6.67418 0.443009 6.76986 0.545791 6.90322C0.648574 7.03657 0.704433 7.20014 0.70469 7.3685C0.70469 7.7141 0.471027 8.0196 0.136304 8.10712C0.0972464 8.1173 0.0626718 8.14015 0.0380033 8.17209C0.0133349 8.20404 -3.17001e-05 8.24326 2.34435e-07 8.28362V9.19505C2.34435e-07 9.2778 0.0559821 9.35081 0.136304 9.37155C0.471027 9.46043 0.70469 9.7634 0.70469 10.109C0.70469 10.4546 0.471027 10.7577 0.136304 10.8465C0.0972464 10.8566 0.0626718 10.8795 0.0380033 10.9114C0.0133349 10.9434 -3.17001e-05 10.9826 2.34435e-07 11.023V11.8175C2.34435e-07 11.9185 0.0814904 12 0.18255 12H0.977298C1.06005 12 1.13307 11.944 1.15381 11.8637C1.19695 11.701 1.29264 11.557 1.42601 11.4543C1.55937 11.3515 1.72295 11.2957 1.89131 11.2955C2.23694 11.2955 2.53992 11.5291 2.62881 11.8637C2.64945 11.944 2.72247 12 2.80532 12H3.7169C3.79966 12 3.87268 11.944 3.89342 11.8637C3.93655 11.701 4.03223 11.557 4.1656 11.4543C4.29897 11.3515 4.46255 11.2957 4.63092 11.2955C4.97655 11.2955 5.27963 11.5291 5.36842 11.8637C5.38906 11.944 5.46208 12 5.54493 12H6.45651C6.53927 12 6.61229 11.944 6.63302 11.8637C6.67613 11.701 6.7718 11.557 6.90515 11.4543C7.0385 11.3515 7.20207 11.2957 7.37043 11.2955C7.71615 11.2955 8.01914 11.5291 8.10793 11.8637C8.12867 11.944 8.20169 12 8.28444 12H9.19592C9.27878 12 9.3518 11.944 9.37244 11.8637C9.46133 11.529 9.76431 11.2955 10.1099 11.2955C10.4556 11.2955 10.7586 11.5291 10.8474 11.8637C10.8682 11.944 10.9412 12 11.024 12H11.8174C11.9184 12 12 11.9185 12 11.8175V11.024C12 10.9413 11.944 10.8683 11.8637 10.8475C11.7009 10.8044 11.557 10.7087 11.4542 10.5754C11.3514 10.442 11.2955 10.2784 11.2953 10.1101C11.2953 9.76447 11.529 9.46141 11.8637 9.37262C11.944 9.35198 12 9.27897 12 9.19612V8.28469C12 8.20194 11.944 8.12893 11.8637 8.10819C11.529 8.01931 11.2953 7.71634 11.2953 7.37074C11.2953 7.02513 11.529 6.72207 11.8637 6.63329C11.944 6.61265 12 6.53963 12 6.45678V5.54536C12 5.46261 11.944 5.38959 11.8637 5.36886C11.529 5.28007 11.2953 4.97701 11.2953 4.6314C11.2953 4.2858 11.529 3.98283 11.8637 3.89395C11.944 3.87331 12 3.8003 12 3.71745V2.80602C12 2.72327 11.944 2.65026 11.8637 2.62952C11.7009 2.58641 11.5569 2.49074 11.4542 2.35738C11.3514 2.22402 11.2955 2.06044 11.2953 1.89207C11.2953 1.54646 11.529 1.2435 11.8637 1.15471C11.944 1.13397 12 1.06096 12 0.978209V0.184777C12.0003 0.160681 11.9959 0.136758 11.9869 0.114392C11.9779 0.092026 11.9646 0.0716623 11.9477 0.054478C11.9308 0.0372937 11.9107 0.02363 11.8885 0.0142789C11.8663 0.00492779 11.8424 7.44537e-05 11.8183 -4.58344e-07ZM11.155 0.365076H11.6358V0.845808C11.4278 0.930283 11.2498 1.07489 11.1244 1.26112C10.9991 1.44735 10.9322 1.66673 10.9323 1.89119C10.9323 2.35362 11.2158 2.76494 11.6358 2.93648V3.58631C11.2147 3.75658 10.9323 4.1679 10.9323 4.6316C10.9323 5.09529 11.2158 5.50544 11.6358 5.67688V6.32672C11.4278 6.41116 11.2497 6.55576 11.1244 6.742C10.9991 6.92823 10.9322 7.14763 10.9323 7.3721C10.9323 7.8357 11.2158 8.24585 11.6358 8.41739V9.06722C11.4278 9.15166 11.2497 9.29626 11.1244 9.4825C10.9991 9.66874 10.9322 9.88814 10.9323 10.1126C10.9323 10.5762 11.2158 10.9864 11.6358 11.1579V11.6349H11.155C10.9846 11.2139 10.5733 10.9315 10.1096 10.9315C9.64602 10.9315 9.23584 11.215 9.06429 11.6349H8.41442C8.32996 11.427 8.18537 11.2489 7.99914 11.1236C7.81291 10.9983 7.59353 10.9314 7.36906 10.9315C6.90661 10.9315 6.49516 11.215 6.32362 11.6349H5.67374C5.5893 11.427 5.44471 11.2489 5.25848 11.1236C5.07225 10.9983 4.85285 10.9314 4.62839 10.9315C4.16593 10.9315 3.75458 11.215 3.58303 11.6349H2.93316C2.84872 11.427 2.70413 11.2489 2.5179 11.1236C2.33167 10.9983 2.11227 10.9314 1.88781 10.9315C1.42535 10.9315 1.014 11.215 0.842357 11.6349H0.365294V11.1542C0.573273 11.0698 0.751317 10.9252 0.876632 10.739C1.00195 10.5527 1.06883 10.3334 1.06872 10.1089C1.06872 9.64648 0.785109 9.23516 0.365294 9.06362V8.41379C0.573273 8.32935 0.751317 8.18477 0.876632 7.99855C1.00195 7.81233 1.06883 7.59295 1.06872 7.3685C1.06872 6.90607 0.785109 6.49475 0.365294 6.32312V5.67328C0.786375 5.50291 1.06872 5.09159 1.06872 4.628C1.06872 4.1644 0.785109 3.75415 0.365294 3.58271V2.93531C0.786375 2.76494 1.06872 2.35362 1.06872 1.89002C1.06872 1.42642 0.785109 1.01618 0.365294 0.844737V0.364005H0.845862C0.930332 0.57197 1.07494 0.749999 1.26119 0.875304C1.44743 1.00061 1.66683 1.06749 1.89131 1.06738C2.35494 1.06738 2.76512 0.783891 2.93666 0.364005H3.58654C3.67101 0.57197 3.81562 0.749999 4.00187 0.875304C4.18811 1.00061 4.40751 1.06749 4.63199 1.06738C5.09445 1.06738 5.50579 0.783891 5.67734 0.364005H6.32722C6.4976 0.784962 6.90894 1.06738 7.37257 1.06738C7.8362 1.06738 8.24637 0.783891 8.41792 0.364005H9.0678C9.15228 0.571962 9.29689 0.749984 9.48313 0.875288C9.66938 1.00059 9.88877 1.06748 10.1132 1.06738C10.3372 1.06764 10.556 1.00089 10.7417 0.87573C10.9273 0.75057 11.0713 0.572724 11.155 0.365076Z" fill="#050505"/>
</svg>
